  0
SECTION
  2
HEADER
  9
$ACADVER
  1
AC1014
  9
$ACADMAINTVER
 70
     9
  9
$DWGCODEPAGE
  3
ANSI_1252
  9
$INSBASE
 10
0.0
 20
0.0
 30
0.0
  9
$EXTMIN
 10
1.000000000000000E+20
 20
1.000000000000000E+20
 30
1.000000000000000E+20
  9
$EXTMAX
 10
-1.000000000000000E+20
 20
-1.000000000000000E+20
 30
-1.000000000000000E+20
  9
$LIMMIN
 10
0.0
 20
0.0
  9
$LIMMAX
 10
12.0
 20
9.0
  9
$ORTHOMODE
 70
     0
  9
$REGENMODE
 70
     1
  9
$FILLMODE
 70
     1
  9
$QTEXTMODE
 70
     0
  9
$MIRRTEXT
 70
     1
  9
$DRAGMODE
 70
     2
  9
$LTSCALE
 40
1.0
  9
$OSMODE
 70
    37
  9
$ATTMODE
 70
     1
  9
$TEXTSIZE
 40
0.2
  9
$TRACEWID
 40
0.05
  9
$TEXTSTYLE
  7
STANDARD
  9
$CLAYER
  8
0
  9
$CELTYPE
  6
BYLAYER
  9
$CECOLOR
 62
   256
  9
$CELTSCALE
 40
1.0
  9
$DELOBJ
 70
     1
  9
$DISPSILH
 70
     0
  9
$DIMSCALE
 40
1.0
  9
$DIMASZ
 40
0.18
  9
$DIMEXO
 40
0.0625
  9
$DIMDLI
 40
0.38
  9
$DIMRND
 40
0.0
  9
$DIMDLE
 40
0.0
  9
$DIMEXE
 40
0.18
  9
$DIMTP
 40
0.0
  9
$DIMTM
 40
0.0
  9
$DIMTXT
 40
0.18
  9
$DIMCEN
 40
0.09
  9
$DIMTSZ
 40
0.0
  9
$DIMTOL
 70
     0
  9
$DIMLIM
 70
     0
  9
$DIMTIH
 70
     1
  9
$DIMTOH
 70
     1
  9
$DIMSE1
 70
     0
  9
$DIMSE2
 70
     0
  9
$DIMTAD
 70
     0
  9
$DIMZIN
 70
     0
  9
$DIMBLK
  1

  9
$DIMASO
 70
     1
  9
$DIMSHO
 70
     1
  9
$DIMPOST
  1

  9
$DIMAPOST
  1

  9
$DIMALT
 70
     0
  9
$DIMALTD
 70
     2
  9
$DIMALTF
 40
25.4
  9
$DIMLFAC
 40
1.0
  9
$DIMTOFL
 70
     0
  9
$DIMTVP
 40
0.0
  9
$DIMTIX
 70
     0
  9
$DIMSOXD
 70
     0
  9
$DIMSAH
 70
     0
  9
$DIMBLK1
  1

  9
$DIMBLK2
  1

  9
$DIMSTYLE
  2
STANDARD
  9
$DIMCLRD
 70
     0
  9
$DIMCLRE
 70
     0
  9
$DIMCLRT
 70
     0
  9
$DIMTFAC
 40
1.0
  9
$DIMGAP
 40
0.09
  9
$DIMJUST
 70
     0
  9
$DIMSD1
 70
     0
  9
$DIMSD2
 70
     0
  9
$DIMTOLJ
 70
     1
  9
$DIMTZIN
 70
     0
  9
$DIMALTZ
 70
     0
  9
$DIMALTTZ
 70
     0
  9
$DIMFIT
 70
     3
  9
$DIMUPT
 70
     0
  9
$DIMUNIT
 70
     2
  9
$DIMDEC
 70
     4
  9
$DIMTDEC
 70
     4
  9
$DIMALTU
 70
     2
  9
$DIMALTTD
 70
     2
  9
$DIMTXSTY
  7
STANDARD
  9
$DIMAUNIT
 70
     0
  9
$LUNITS
 70
     2
  9
$LUPREC
 70
     4
  9
$SKETCHINC
 40
0.1
  9
$FILLETRAD
 40
0.5
  9
$AUNITS
 70
     0
  9
$AUPREC
 70
     0
  9
$MENU
  1
.
  9
$ELEVATION
 40
0.0
  9
$PELEVATION
 40
0.0
  9
$THICKNESS
 40
0.0
  9
$LIMCHECK
 70
     0
  9
$CHAMFERA
 40
0.0
  9
$CHAMFERB
 40
0.0
  9
$CHAMFERC
 40
0.0
  9
$CHAMFERD
 40
0.0
  9
$SKPOLY
 70
     0
  9
$TDCREATE
 40
2457211.424798067
  9
$TDUPDATE
 40
2457211.424798947
  9
$TDINDWG
 40
0.0000000116
  9
$TDUSRTIMER
 40
0.0000000116
  9
$USRTIMER
 70
     1
  9
$ANGBASE
 50
0.0
  9
$ANGDIR
 70
     0
  9
$PDMODE
 70
     0
  9
$PDSIZE
 40
0.0
  9
$PLINEWID
 40
0.0
  9
$COORDS
 70
     1
  9
$SPLFRAME
 70
     0
  9
$SPLINETYPE
 70
     6
  9
$SPLINESEGS
 70
     8
  9
$ATTDIA
 70
     0
  9
$ATTREQ
 70
     1
  9
$HANDLING
 70
     1
  9
$HANDSEED
  5
459
  9
$SURFTAB1
 70
     6
  9
$SURFTAB2
 70
     6
  9
$SURFTYPE
 70
     6
  9
$SURFU
 70
     6
  9
$SURFV
 70
     6
  9
$UCSNAME
  2

  9
$UCSORG
 10
0.0
 20
0.0
 30
0.0
  9
$UCSXDIR
 10
1.0
 20
0.0
 30
0.0
  9
$UCSYDIR
 10
0.0
 20
1.0
 30
0.0
  9
$PUCSNAME
  2

  9
$PUCSORG
 10
0.0
 20
0.0
 30
0.0
  9
$PUCSXDIR
 10
1.0
 20
0.0
 30
0.0
  9
$PUCSYDIR
 10
0.0
 20
1.0
 30
0.0
  9
$USERI1
 70
     0
  9
$USERI2
 70
     0
  9
$USERI3
 70
     0
  9
$USERI4
 70
     0
  9
$USERI5
 70
     0
  9
$USERR1
 40
0.0
  9
$USERR2
 40
0.0
  9
$USERR3
 40
0.0
  9
$USERR4
 40
0.0
  9
$USERR5
 40
0.0
  9
$WORLDVIEW
 70
     1
  9
$SHADEDGE
 70
     3
  9
$SHADEDIF
 70
    70
  9
$TILEMODE
 70
     1
  9
$MAXACTVP
 70
    64
  9
$PINSBASE
 10
0.0
 20
0.0
 30
0.0
  9
$PLIMCHECK
 70
     0
  9
$PEXTMIN
 10
1.000000000000000E+20
 20
1.000000000000000E+20
 30
1.000000000000000E+20
  9
$PEXTMAX
 10
-1.000000000000000E+20
 20
-1.000000000000000E+20
 30
-1.000000000000000E+20
  9
$PLIMMIN
 10
0.0
 20
0.0
  9
$PLIMMAX
 10
12.0
 20
9.0
  9
$UNITMODE
 70
     0
  9
$VISRETAIN
 70
     1
  9
$PLINEGEN
 70
     0
  9
$PSLTSCALE
 70
     1
  9
$TREEDEPTH
 70
  3020
  9
$PICKSTYLE
 70
     1
  9
$CMLSTYLE
  2
STANDARD
  9
$CMLJUST
 70
     0
  9
$CMLSCALE
 40
1.0
  9
$PROXYGRAPHICS
 70
     1
  9
$MEASUREMENT
 70
     1
  0
ENDSEC
  0
SECTION
  2
CLASSES
  0
CLASS
  1
ACDBDICTIONARYWDFLT
  2
AcDbDictionaryWithDefault
  3
ObjectDBX Classes
 90
        0
280
     0
281
     0
  0
CLASS
  1
VISUALSTYLE
  2
AcDbVisualStyle
  3
ObjectDBX Classes
 90
     4095
280
     0
281
     0
  0
CLASS
  1
MATERIAL
  2
AcDbMaterial
  3
ObjectDBX Classes
 90
     1153
280
     0
281
     0
  0
CLASS
  1
SCALE
  2
AcDbScale
  3
ObjectDBX Classes
 90
     1153
280
     0
281
     0
  0
CLASS
  1
SUN
  2
AcDbSun
  3
SCENEOE
 90
     1153
280
     0
281
     0
  0
CLASS
  1
DICTIONARYVAR
  2
AcDbDictionaryVar
  3
ObjectDBX Classes
 90
        0
280
     0
281
     0
  0
CLASS
  1
XRECORD
  2
AcDbXrecord
  3
ObjectDBX Classes
 90
        0
280
     0
281
     0
  0
CLASS
  1
LWPOLYLINE
  2
AcDbPolyline
  3
ObjectDBX Classes
 90
        0
280
     0
281
     1
  0
CLASS
  1
HATCH
  2
AcDbHatch
  3
ObjectDBX Classes
 90
        0
280
     0
281
     1
  0
CLASS
  1
ACDBPLACEHOLDER
  2
AcDbPlaceHolder
  3
ObjectDBX Classes
 90
        0
280
     0
281
     0
  0
CLASS
  1
LAYOUT
  2
AcDbLayout
  3
ObjectDBX Classes
 90
        0
280
     0
281
     0
  0
ENDSEC
  0
SECTION
  2
TABLES
  0
TABLE
  2
VPORT
  5
8
102
{ACAD_XDICTIONARY
360
44F
102
}
330
0
100
AcDbSymbolTable
 70
     1
  0
VPORT
  5
29
330
8
100
AcDbSymbolTableRecord
100
AcDbViewportTableRecord
  2
*ACTIVE
 70
     0
 10
0.0
 20
0.0
 11
1.0
 21
1.0
 12
0.0
 22
0.0
 13
0.0
 23
0.0
 14
0.5
 24
0.5
 15
0.5
 25
0.5
 16
0.0
 26
0.0
 36
1.0
 17
0.0
 27
0.0
 37
-1000.0
 40
63.26034898434109
 41
2.07191011235955
 42
50.0
 43
779.4341639902367
 44
980.5817559880672
 50
0.0
 51
0.0
 71
     0
 72
   100
 73
     1
 74
     3
 75
     0
 76
     0
 77
     0
 78
     0
  0
ENDTAB
  0
TABLE
  2
LTYPE
  5
5
330
0
100
AcDbSymbolTable
 70
     1
  0
LTYPE
  5
14
330
5
100
AcDbSymbolTableRecord
100
AcDbLinetypeTableRecord
  2
BYBLOCK
 70
     0
  3

 72
    65
 73
     0
 40
0.0
  0
LTYPE
  5
15
330
5
100
AcDbSymbolTableRecord
100
AcDbLinetypeTableRecord
  2
BYLAYER
 70
     0
  3

 72
    65
 73
     0
 40
0.0
  0
LTYPE
  5
16
330
5
100
AcDbSymbolTableRecord
100
AcDbLinetypeTableRecord
  2
CONTINUOUS
 70
     0
  3
Solid line
 72
    65
 73
     0
 40
0.0
  0
ENDTAB
  0
TABLE
  2
LAYER
  5
2
330
0
100
AcDbSymbolTable
 70
     3
  0
LAYER
  5
10
330
2
100
AcDbSymbolTableRecord
100
AcDbLayerTableRecord
  2
0
 70
     0
 62
     7
  6
CONTINUOUS
  0
LAYER
  5
6A
330
2
100
AcDbSymbolTableRecord
100
AcDbLayerTableRecord
  2
PROFILEEDGES
 70
     0
 62
     7
  6
CONTINUOUS
  0
LAYER
  5
6B
330
2
100
AcDbSymbolTableRecord
100
AcDbLayerTableRecord
  2
SECTIONCUTEDGES
 70
     0
 62
     7
  6
CONTINUOUS
  0
ENDTAB
  0
TABLE
  2
STYLE
  5
3
330
0
100
AcDbSymbolTable
 70
     1
  0
STYLE
  5
11
330
3
100
AcDbSymbolTableRecord
100
AcDbTextStyleTableRecord
  2
STANDARD
 70
     0
 40
0.0
 41
1.0
 50
0.0
 71
     0
 42
0.2
  3
txt
  4

  0
ENDTAB
  0
TABLE
  2
VIEW
  5
6
330
0
100
AcDbSymbolTable
 70
     0
  0
ENDTAB
  0
TABLE
  2
UCS
  5
7
330
0
100
AcDbSymbolTable
 70
     0
  0
ENDTAB
  0
TABLE
  2
APPID
  5
9
330
0
100
AcDbSymbolTable
 70
     1
  0
APPID
  5
12
330
9
100
AcDbSymbolTableRecord
100
AcDbRegAppTableRecord
  2
ACAD
 70
     0
  0
ENDTAB
  0
TABLE
  2
DIMSTYLE
  5
A
330
0
100
AcDbSymbolTable
 70
     1
  0
DIMSTYLE
105
27
330
A
100
AcDbSymbolTableRecord
100
AcDbDimStyleTableRecord
  2
STANDARD
 70
     0
  3

  4

  5

  6

  7

 40
1.0
 41
0.18
 42
0.0625
 43
0.38
 44
0.18
 45
0.0
 46
0.0
 47
0.0
 48
0.0
140
0.18
141
0.09
142
0.0
143
25.4
144
1.0
145
0.0
146
1.0
147
0.09
 71
     0
 72
     0
 73
     1
 74
     1
 75
     0
 76
     0
 77
     0
 78
     0
170
     0
171
     2
172
     0
173
     0
174
     0
175
     0
176
     0
177
     0
178
     0
270
     2
271
     4
272
     4
273
     2
274
     2
340
11
275
     0
280
     0
281
     0
282
     0
283
     1
284
     0
285
     0
286
     0
287
     3
288
     0
  0
ENDTAB
  0
TABLE
  2
BLOCK_RECORD
  5
1
330
0
100
AcDbSymbolTable
 70
     1
  0
BLOCK_RECORD
  5
1F
330
1
100
AcDbSymbolTableRecord
100
AcDbBlockTableRecord
  2
*MODEL_SPACE
  0
BLOCK_RECORD
  5
1B
330
1
100
AcDbSymbolTableRecord
100
AcDbBlockTableRecord
  2
*PAPER_SPACE
  0
ENDTAB
  0
ENDSEC
  0
SECTION
  2
BLOCKS
  0
BLOCK
  5
20
330
1F
100
AcDbEntity
  8
0
100
AcDbBlockBegin
  2
*MODEL_SPACE
 70
     0
 10
0.0
 20
0.0
 30
0.0
  3
*MODEL_SPACE
  1

  0
ENDBLK
  5
21
330
1F
100
AcDbEntity
  8
0
100
AcDbBlockEnd
  0
BLOCK
  5
1C
330
1B
100
AcDbEntity
 67
     1
  8
0
100
AcDbBlockBegin
  2
*PAPER_SPACE
 70
     0
 10
0.0
 20
0.0
 30
0.0
  3
*PAPER_SPACE
  1

  0
ENDBLK
  5
1D
330
1B
100
AcDbEntity
 67
     1
  8
0
100
AcDbBlockEnd
  0
ENDSEC
  0
SECTION
  2
ENTITIES
  0
LINE
  5
6C
330
1F
100
AcDbEntity
  8
0
100
AcDbLine
 10
-20.36996243889389
 20
-14.63596486812796
 30
0.0
 11
-20.34854617254983
 21
-14.79863756129018
 31
0.0
  0
LINE
  5
6D
330
1F
100
AcDbEntity
  8
0
100
AcDbLine
 10
-20.34854617254983
 20
-14.79863756129018
 30
0.0
 11
-20.31303354216772
 21
-14.95882468514238
 31
0.0
  0
LINE
  5
6E
330
1F
100
AcDbEntity
  8
0
100
AcDbLine
 10
-20.31303354216772
 20
-14.95882468514238
 30
0.0
 11
-20.26369482030778
 21
-15.11530711894856
 31
0.0
  0
LINE
  5
6F
330
1F
100
AcDbEntity
  8
0
100
AcDbLine
 10
-20.26369482030778
 20
-15.11530711894856
 30
0.0
 11
-20.20090550443482
 21
-15.26689393690115
 31
0.0
  0
LINE
  5
70
330
1F
100
AcDbEntity
  8
0
100
AcDbLine
 10
-20.20090550443482
 20
-15.26689393690115
 30
0.0
 11
-20.12514345915581
 21
-15.4124314717849
 31
0.0
  0
LINE
  5
71
330
1F
100
AcDbEntity
  8
0
100
AcDbLine
 10
-20.12514345915581
 20
-15.4124314717849
 30
0.0
 11
-20.03698527938258
 21
-15.55081209507986
 31
0.0
  0
LINE
  5
72
330
1F
100
AcDbEntity
  8
0
100
AcDbLine
 10
-20.03698527938258
 20
-15.55081209507986
 30
0.0
 11
-19.93710190209287
 21
-15.68098264668888
 31
0.0
  0
LINE
  5
73
330
1F
100
AcDbEntity
  8
0
100
AcDbLine
 10
-19.93710190209287
 20
-15.68098264668888
 30
0.0
 11
-19.8262535001007
 21
-15.8019524501129
 31
0.0
  0
LINE
  5
74
330
1F
100
AcDbEntity
  8
0
100
AcDbLine
 10
-19.8262535001007
 20
-15.8019524501129
 30
0.0
 11
-19.70528369667668
 21
-15.91280085210507
 31
0.0
  0
LINE
  5
75
330
1F
100
AcDbEntity
  8
0
100
AcDbLine
 10
-19.70528369667668
 20
-15.91280085210507
 30
0.0
 11
-19.57511314506765
 21
-16.01268422939478
 31
0.0
  0
LINE
  5
76
330
1F
100
AcDbEntity
  8
0
100
AcDbLine
 10
-19.57511314506765
 20
-16.01268422939478
 30
0.0
 11
-19.4367325217727
 21
-16.10084240916801
 31
0.0
  0
LINE
  5
77
330
1F
100
AcDbEntity
  8
0
100
AcDbLine
 10
-19.4367325217727
 20
-16.10084240916801
 30
0.0
 11
-19.29119498688895
 21
-16.17660445444702
 31
0.0
  0
LINE
  5
78
330
1F
100
AcDbEntity
  8
0
100
AcDbLine
 10
-19.29119498688895
 20
-16.17660445444702
 30
0.0
 11
-19.13960816893618
 21
-16.23939377032007
 31
0.0
  0
LINE
  5
79
330
1F
100
AcDbEntity
  8
0
100
AcDbLine
 10
-19.13960816893618
 20
-16.23939377032007
 30
0.0
 11
-18.98312573513032
 21
-16.28873249217988
 31
0.0
  0
LINE
  5
7A
330
1F
100
AcDbEntity
  8
0
100
AcDbLine
 10
-18.98312573513032
 20
-16.28873249217988
 30
0.0
 11
-18.82293861127798
 21
-16.32424512256203
 31
0.0
  0
LINE
  5
7B
330
1F
100
AcDbEntity
  8
0
100
AcDbLine
 10
-18.82293861127798
 20
-16.32424512256203
 30
0.0
 11
-18.67142151843521
 21
-16.34419272626196
 31
0.0
  0
LINE
  5
7C
330
1F
100
AcDbEntity
  8
0
100
AcDbLine
 10
-18.67142151843521
 20
-16.34419272626196
 30
0.0
 11
-15.67555023074657
 21
-16.34048670690701
 31
0.0
  0
LINE
  5
7D
330
1F
100
AcDbEntity
  8
0
100
AcDbLine
 10
-15.67555023074657
 20
-16.34048670690701
 30
0.0
 11
-15.52278815181626
 21
-16.32062156199585
 31
0.0
  0
LINE
  5
7E
330
1F
100
AcDbEntity
  8
0
100
AcDbLine
 10
-15.52278815181626
 20
-16.32062156199585
 30
0.0
 11
-15.36237205884867
 21
-16.28530876933998
 31
0.0
  0
LINE
  5
7F
330
1F
100
AcDbEntity
  8
0
100
AcDbLine
 10
-15.36237205884867
 20
-16.28530876933998
 30
0.0
 11
-15.20564883498703
 21
-16.23613410807404
 31
0.0
  0
LINE
  5
80
330
1F
100
AcDbEntity
  8
0
100
AcDbLine
 10
-15.20564883498703
 20
-16.23613410807404
 30
0.0
 11
-15.05381386525573
 21
-16.17347265122297
 31
0.0
  0
LINE
  5
81
330
1F
100
AcDbEntity
  8
0
100
AcDbLine
 10
-15.05381386525573
 20
-16.17347265122297
 30
0.0
 11
-14.90802525018469
 21
-16.09780234050537
 31
0.0
  0
LINE
  5
82
330
1F
100
AcDbEntity
  8
0
100
AcDbLine
 10
-14.90802525018469
 20
-16.09780234050537
 30
0.0
 11
-14.76939497256187
 21
-16.00970034090117
 31
0.0
  0
LINE
  5
83
330
1F
100
AcDbEntity
  8
0
100
AcDbLine
 10
-14.76939497256187
 20
-16.00970034090117
 30
0.0
 11
-14.63898041592893
 21
-15.90983863840048
 31
0.0
  0
LINE
  5
84
330
1F
100
AcDbEntity
  8
0
100
AcDbLine
 10
-14.63898041592893
 20
-15.90983863840048
 30
0.0
 11
-14.51777629953648
 21
-15.79897891452434
 31
0.0
  0
LINE
  5
85
330
1F
100
AcDbEntity
  8
0
100
AcDbLine
 10
-14.51777629953648
 20
-15.79897891452434
 30
0.0
 11
-14.40670709125974
 21
-15.67796673670437
 31
0.0
  0
LINE
  5
86
330
1F
100
AcDbEntity
  8
0
100
AcDbLine
 10
-14.40670709125974
 20
-15.67796673670437
 30
0.0
 11
-14.30661995634081
 21
-15.54772510882696
 31
0.0
  0
LINE
  5
87
330
1F
100
AcDbEntity
  8
0
100
AcDbLine
 10
-14.30661995634081
 20
-15.54772510882696
 30
0.0
 11
-14.218278295758
 21
-15.40924743115512
 31
0.0
  0
LINE
  5
88
330
1F
100
AcDbEntity
  8
0
100
AcDbLine
 10
-14.218278295758
 20
-15.40924743115512
 30
0.0
 11
-14.14235592348208
 21
-15.26358992329401
 31
0.0
  0
LINE
  5
89
330
1F
100
AcDbEntity
  8
0
100
AcDbLine
 10
-14.14235592348208
 20
-15.26358992329401
 30
0.0
 11
-14.07943192705781
 21
-15.11186356802857
 31
0.0
  0
LINE
  5
8A
330
1F
100
AcDbEntity
  8
0
100
AcDbLine
 10
-14.07943192705781
 20
-15.11186356802857
 30
0.0
 11
-14.02998625068899
 21
-14.95522563744762
 31
0.0
  0
LINE
  5
8B
330
1F
100
AcDbEntity
  8
0
100
AcDbLine
 10
-14.02998625068899
 20
-14.95522563744762
 30
0.0
 11
-13.99439603453133
 21
-14.79487086601262
 31
0.0
  0
LINE
  5
8C
330
1F
100
AcDbEntity
  8
0
100
AcDbLine
 10
-13.99439603453133
 20
-14.79487086601262
 30
0.0
 11
-13.97293273810637
 21
-14.63202233788065
 31
0.0
  0
LINE
  5
8D
330
1F
100
AcDbEntity
  8
0
100
AcDbLine
 10
-13.97293273810637
 20
-14.63202233788065
 30
0.0
 11
-13.96528267670912
 21
-14.45700010145136
 31
0.0
  0
LINE
  5
8E
330
1F
100
AcDbEntity
  8
0
100
AcDbLine
 10
-13.96528267670912
 20
-14.45700010145136
 30
0.0
 11
-13.96528267670912
 21
-3.808350517211929
 31
0.0
  0
LINE
  5
8F
330
1F
100
AcDbEntity
  8
0
100
AcDbLine
 10
-13.96528267670912
 20
-3.808350517211929
 30
0.0
 11
-3.592415299135524
 21
13.40960656757452
 31
0.0
  0
LINE
  5
90
330
1F
100
AcDbEntity
  8
0
100
AcDbLine
 10
-3.592415299135524
 20
13.40960656757452
 30
0.0
 11
-3.483017945537373
 21
13.61794532834831
 31
0.0
  0
LINE
  5
91
330
1F
100
AcDbEntity
  8
0
100
AcDbLine
 10
-3.483017945537373
 20
13.61794532834831
 30
0.0
 11
-3.404037982073012
 21
13.82393419308806
 31
0.0
  0
LINE
  5
92
330
1F
100
AcDbEntity
  8
0
100
AcDbLine
 10
-3.404037982073012
 20
13.82393419308806
 30
0.0
 11
-3.349727014615602
 21
14.03775553402328
 31
0.0
  0
LINE
  5
93
330
1F
100
AcDbEntity
  8
0
100
AcDbLine
 10
-3.349727014615602
 20
14.03775553402328
 30
0.0
 11
-3.320832605580128
 21
14.25646621083643
 31
0.0
  0
LINE
  5
94
330
1F
100
AcDbEntity
  8
0
100
AcDbLine
 10
-3.320832605580128
 20
14.25646621083643
 30
0.0
 11
-3.317752471582916
 21
14.47705578402642
 31
0.0
  0
LINE
  5
95
330
1F
100
AcDbEntity
  8
0
100
AcDbLine
 10
-3.317752471582916
 20
14.47705578402642
 30
0.0
 11
-3.340529009077426
 21
14.69648795205377
 31
0.0
  0
LINE
  5
96
330
1F
100
AcDbEntity
  8
0
100
AcDbLine
 10
-3.340529009077426
 20
14.69648795205377
 30
0.0
 11
-3.3888487107894
 21
14.91174234446425
 31
0.0
  0
LINE
  5
97
330
1F
100
AcDbEntity
  8
0
100
AcDbLine
 10
-3.3888487107894
 20
14.91174234446425
 30
0.0
 11
-3.462046480982207
 21
15.11985609572647
 31
0.0
  0
LINE
  5
98
330
1F
100
AcDbEntity
  8
0
100
AcDbLine
 10
-3.462046480982207
 20
15.11985609572647
 30
0.0
 11
-3.559114790155972
 21
15.3179646275457
 31
0.0
  0
LINE
  5
99
330
1F
100
AcDbEntity
  8
0
100
AcDbLine
 10
-3.559114790155972
 20
15.3179646275457
 30
0.0
 11
-3.678717543171549
 21
15.50334107830633
 31
0.0
  0
LINE
  5
9A
330
1F
100
AcDbEntity
  8
0
100
AcDbLine
 10
-3.678717543171549
 20
15.50334107830633
 30
0.0
 11
-3.819208469909197
 21
15.67343383691164
 31
0.0
  0
LINE
  5
9B
330
1F
100
AcDbEntity
  8
0
100
AcDbLine
 10
-3.819208469909197
 20
15.67343383691164
 30
0.0
 11
-3.978653785326675
 21
15.82590166439311
 31
0.0
  0
LINE
  5
9C
330
1F
100
AcDbEntity
  8
0
100
AcDbLine
 10
-3.978653785326675
 20
15.82590166439311
 30
0.0
 11
-4.154858807012064
 21
15.95864591985635
 31
0.0
  0
LINE
  5
9D
330
1F
100
AcDbEntity
  8
0
100
AcDbLine
 10
-4.154858807012064
 20
15.95864591985635
 30
0.0
 11
-4.345398163852177
 21
16.0698394471877
 31
0.0
  0
LINE
  5
9E
330
1F
100
AcDbEntity
  8
0
100
AcDbLine
 10
-4.345398163852177
 20
16.0698394471877
 30
0.0
 11
-4.547649180015675
 21
16.15795172491604
 31
0.0
  0
LINE
  5
9F
330
1F
100
AcDbEntity
  8
0
100
AcDbLine
 10
-4.547649180015675
 20
16.15795172491604
 30
0.0
 11
-4.758827974728099
 21
16.22176993304856
 31
0.0
  0
LINE
  5
A0
330
1F
100
AcDbEntity
  8
0
100
AcDbLine
 10
-4.758827974728099
 20
16.22176993304856
 30
0.0
 11
-4.961216106983886
 21
16.25778024992943
 31
0.0
  0
LINE
  5
A1
330
1F
100
AcDbEntity
  8
0
100
AcDbLine
 10
-4.961216106983886
 20
16.25778024992943
 30
0.0
 11
-8.092523365122428
 21
16.25417293445276
 31
0.0
  0
LINE
  5
A2
330
1F
100
AcDbEntity
  8
0
100
AcDbLine
 10
-8.092523365122428
 20
16.25417293445276
 30
0.0
 11
-8.301036896629208
 21
16.21840631424551
 31
0.0
  0
LINE
  5
A3
330
1F
100
AcDbEntity
  8
0
100
AcDbLine
 10
-8.301036896629208
 20
16.21840631424551
 30
0.0
 11
-8.39934479832543
 21
16.19259940567953
 31
0.0
  0
LINE
  5
A4
330
1F
100
AcDbEntity
  8
0
100
AcDbLine
 10
-8.39934479832543
 20
16.19259940567953
 30
0.0
 11
-8.502885417301187
 21
16.15890515203636
 31
0.0
  0
LINE
  5
A5
330
1F
100
AcDbEntity
  8
0
100
AcDbLine
 10
-8.502885417301187
 20
16.15890515203636
 30
0.0
 11
-8.604302973689348
 21
16.1192763523709
 31
0.0
  0
LINE
  5
A6
330
1F
100
AcDbEntity
  8
0
100
AcDbLine
 10
-8.604302973689348
 20
16.1192763523709
 30
0.0
 11
-8.703257643766767
 21
16.07384579243259
 31
0.0
  0
LINE
  5
A7
330
1F
100
AcDbEntity
  8
0
100
AcDbLine
 10
-8.703257643766767
 20
16.07384579243259
 30
0.0
 11
-8.799417856302249
 21
16.02276569815176
 31
0.0
  0
LINE
  5
A8
330
1F
100
AcDbEntity
  8
0
100
AcDbLine
 10
-8.799417856302249
 20
16.02276569815176
 30
0.0
 11
-8.892461403558775
 21
15.9662072255724
 31
0.0
  0
LINE
  5
A9
330
1F
100
AcDbEntity
  8
0
100
AcDbLine
 10
-8.892461403558775
 20
15.9662072255724
 30
0.0
 11
-8.982076520929951
 21
15.90435988735256
 31
0.0
  0
LINE
  5
AA
330
1F
100
AcDbEntity
  8
0
100
AcDbLine
 10
-8.982076520929951
 20
15.90435988735256
 30
0.0
 11
-9.06796293158512
 21
15.83743091775406
 31
0.0
  0
LINE
  5
AB
330
1F
100
AcDbEntity
  8
0
100
AcDbLine
 10
-9.06796293158512
 20
15.83743091775406
 30
0.0
 11
-9.149832852610174
 21
15.76564457826096
 31
0.0
  0
LINE
  5
AC
330
1F
100
AcDbEntity
  8
0
100
AcDbLine
 10
-9.149832852610174
 20
15.76564457826096
 30
0.0
 11
-9.227411959302085
 21
15.6892414061305
 31
0.0
  0
LINE
  5
AD
330
1F
100
AcDbEntity
  8
0
100
AcDbLine
 10
-9.227411959302085
 20
15.6892414061305
 30
0.0
 11
-9.300440304351186
 21
15.6084774084231
 31
0.0
  0
LINE
  5
AE
330
1F
100
AcDbEntity
  8
0
100
AcDbLine
 10
-9.300440304351186
 20
15.6084774084231
 30
0.0
 11
-9.368673188864943
 21
15.52362320418114
 31
0.0
  0
LINE
  5
AF
330
1F
100
AcDbEntity
  8
0
100
AcDbLine
 10
-9.368673188864943
 20
15.52362320418114
 30
0.0
 11
-9.43188198228244
 21
15.43496311766314
 31
0.0
  0
LINE
  5
B0
330
1F
100
AcDbEntity
  8
0
100
AcDbLine
 10
-9.43188198228244
 20
15.43496311766314
 30
0.0
 11
-9.493709759972297
 21
15.33666551380817
 31
0.0
  0
LINE
  5
B1
330
1F
100
AcDbEntity
  8
0
100
AcDbLine
 10
-9.493709759972297
 20
15.33666551380817
 30
0.0
 11
-17.05177485464862
 21
2.51113112688959
 31
0.0
  0
LINE
  5
B2
330
1F
100
AcDbEntity
  8
0
100
AcDbLine
 10
-17.05177485464862
 20
2.51113112688959
 30
0.0
 11
-24.66026480975346
 21
15.34124099932849
 31
0.0
  0
LINE
  5
B3
330
1F
100
AcDbEntity
  8
0
100
AcDbLine
 10
-24.66026480975346
 20
15.34124099932849
 30
0.0
 11
-24.72218852492686
 21
15.43910845677576
 31
0.0
  0
LINE
  5
B4
330
1F
100
AcDbEntity
  8
0
100
AcDbLine
 10
-24.72218852492686
 20
15.43910845677576
 30
0.0
 11
-24.78545004149175
 21
15.52737057310623
 31
0.0
  0
LINE
  5
B5
330
1F
100
AcDbEntity
  8
0
100
AcDbLine
 10
-24.78545004149175
 20
15.52737057310623
 30
0.0
 11
-24.85369936519977
 21
15.6118350654727
 31
0.0
  0
LINE
  5
B6
330
1F
100
AcDbEntity
  8
0
100
AcDbLine
 10
-24.85369936519977
 20
15.6118350654727
 30
0.0
 11
-24.92670904017466
 21
15.69222043738416
 31
0.0
  0
LINE
  5
B7
330
1F
100
AcDbEntity
  8
0
100
AcDbLine
 10
-24.92670904017466
 20
15.69222043738416
 30
0.0
 11
-25.00423574562345
 21
15.76825878691625
 31
0.0
  0
LINE
  5
B8
330
1F
100
AcDbEntity
  8
0
100
AcDbLine
 10
-25.00423574562345
 20
15.76825878691625
 30
0.0
 11
-25.08602110675541
 21
15.8396966995515
 31
0.0
  0
LINE
  5
B9
330
1F
100
AcDbEntity
  8
0
100
AcDbLine
 10
-25.08602110675541
 20
15.8396966995515
 30
0.0
 11
-25.17179255587534
 21
15.90629609274158
 31
0.0
  0
LINE
  5
BA
330
1F
100
AcDbEntity
  8
0
100
AcDbLine
 10
-25.17179255587534
 20
15.90629609274158
 30
0.0
 11
-25.26126424077023
 21
15.96783500936522
 31
0.0
  0
LINE
  5
BB
330
1F
100
AcDbEntity
  8
0
100
AcDbLine
 10
-25.26126424077023
 20
15.96783500936522
 30
0.0
 11
-25.35413797738217
 21
16.02410835745507
 31
0.0
  0
LINE
  5
BC
330
1F
100
AcDbEntity
  8
0
100
AcDbLine
 10
-25.35413797738217
 20
16.02410835745507
 30
0.0
 11
-25.45010424356269
 21
16.07492859370516
 31
0.0
  0
LINE
  5
BD
330
1F
100
AcDbEntity
  8
0
100
AcDbLine
 10
-25.45010424356269
 20
16.07492859370516
 30
0.0
 11
-25.54884321063372
 21
16.12012634850655
 31
0.0
  0
LINE
  5
BE
330
1F
100
AcDbEntity
  8
0
100
AcDbLine
 10
-25.54884321063372
 20
16.12012634850655
 30
0.0
 11
-25.65002580927813
 21
16.15955099040385
 31
0.0
  0
LINE
  5
BF
330
1F
100
AcDbEntity
  8
0
100
AcDbLine
 10
-25.65002580927813
 20
16.15955099040385
 30
0.0
 11
-25.75331482624199
 21
16.19307112811092
 31
0.0
  0
LINE
  5
C0
330
1F
100
AcDbEntity
  8
0
100
AcDbLine
 10
-25.75331482624199
 20
16.19307112811092
 30
0.0
 11
-25.85137491706882
 21
16.21874467464942
 31
0.0
  0
LINE
  5
C1
330
1F
100
AcDbEntity
  8
0
100
AcDbLine
 10
-25.85137491706882
 20
16.21874467464942
 30
0.0
 11
-26.05931854882076
 21
16.25432408250705
 31
0.0
  0
LINE
  5
C2
330
1F
100
AcDbEntity
  8
0
100
AcDbLine
 10
-26.05931854882076
 20
16.25432408250705
 30
0.0
 11
-29.24793661278612
 21
16.2577970049261
 31
0.0
  0
LINE
  5
C3
330
1F
100
AcDbEntity
  8
0
100
AcDbLine
 10
-29.24793661278612
 20
16.2577970049261
 30
0.0
 11
-29.45025686185144
 21
16.22181444115938
 31
0.0
  0
LINE
  5
C4
330
1F
100
AcDbEntity
  8
0
100
AcDbLine
 10
-29.45025686185144
 20
16.22181444115938
 30
0.0
 11
-29.66135375873479
 21
16.15804981638694
 31
0.0
  0
LINE
  5
C5
330
1F
100
AcDbEntity
  8
0
100
AcDbLine
 10
-29.66135375873479
 20
16.15804981638694
 30
0.0
 11
-29.86353412443144
 21
16.07001046738444
 31
0.0
  0
LINE
  5
C6
330
1F
100
AcDbEntity
  8
0
100
AcDbLine
 10
-29.86353412443144
 20
16.07001046738444
 30
0.0
 11
-30.05401742119745
 21
15.95890717805775
 31
0.0
  0
LINE
  5
C7
330
1F
100
AcDbEntity
  8
0
100
AcDbLine
 10
-30.05401742119745
 20
15.95890717805775
 30
0.0
 11
-30.23018397825287
 21
15.82626792511415
 31
0.0
  0
LINE
  5
C8
330
1F
100
AcDbEntity
  8
0
100
AcDbLine
 10
-30.23018397825287
 20
15.82626792511415
 30
0.0
 11
-30.38961101948099
 21
15.67391686416832
 31
0.0
  0
LINE
  5
C9
330
1F
100
AcDbEntity
  8
0
100
AcDbLine
 10
-30.38961101948099
 20
15.67391686416832
 30
0.0
 11
-30.5301059832846
 21
15.50394924256962
 31
0.0
  0
LINE
  5
CA
330
1F
100
AcDbEntity
  8
0
100
AcDbLine
 10
-30.5301059832846
 20
15.50394924256962
 30
0.0
 11
-30.64973667635469
 21
15.31870258397221
 31
0.0
  0
LINE
  5
CB
330
1F
100
AcDbEntity
  8
0
100
AcDbLine
 10
-30.64973667635469
 20
15.31870258397221
 30
0.0
 11
-30.74685784665992
 21
15.1207245409353
 31
0.0
  0
LINE
  5
CC
330
1F
100
AcDbEntity
  8
0
100
AcDbLine
 10
-30.74685784665992
 20
15.1207245409353
 30
0.0
 11
-30.82013381019881
 21
14.91273785767514
 31
0.0
  0
LINE
  5
CD
330
1F
100
AcDbEntity
  8
0
100
AcDbLine
 10
-30.82013381019881
 20
14.91273785767514
 30
0.0
 11
-30.86855682034052
 21
14.69760292481925
 31
0.0
  0
LINE
  5
CE
330
1F
100
AcDbEntity
  8
0
100
AcDbLine
 10
-30.86855682034052
 20
14.69760292481925
 30
0.0
 11
-30.8914609271203
 21
14.47827844114541
 31
0.0
  0
LINE
  5
CF
330
1F
100
AcDbEntity
  8
0
100
AcDbLine
 10
-30.8914609271203
 20
14.47827844114541
 30
0.0
 11
-30.88853113588884
 21
14.25778072331283
 31
0.0
  0
LINE
  5
D0
330
1F
100
AcDbEntity
  8
0
100
AcDbLine
 10
-30.88853113588884
 20
14.25778072331283
 30
0.0
 11
-30.85980773935743
 21
14.03914222318576
 31
0.0
  0
LINE
  5
D1
330
1F
100
AcDbEntity
  8
0
100
AcDbLine
 10
-30.85980773935743
 20
14.03914222318576
 30
0.0
 11
-30.80568576346215
 21
13.82536982325745
 31
0.0
  0
LINE
  5
D2
330
1F
100
AcDbEntity
  8
0
100
AcDbLine
 10
-30.80568576346215
 20
13.82536982325745
 30
0.0
 11
-30.72690953466707
 21
13.61940348371846
 31
0.0
  0
LINE
  5
D3
330
1F
100
AcDbEntity
  8
0
100
AcDbLine
 10
-30.72690953466707
 20
13.61940348371846
 30
0.0
 11
-30.61774126119367
 21
13.41105770023406
 31
0.0
  0
LINE
  5
D4
330
1F
100
AcDbEntity
  8
0
100
AcDbLine
 10
-30.61774126119367
 20
13.41105770023406
 30
0.0
 11
-20.37759569306314
 21
-3.621300783636231
 31
0.0
  0
LINE
  5
D5
330
1F
100
AcDbEntity
  8
0
100
AcDbLine
 10
-20.37759569306314
 20
-3.621300783636231
 30
0.0
 11
-20.37759569306314
 21
-14.46113460426429
 31
0.0
  0
LINE
  5
D6
330
1F
100
AcDbEntity
  8
0
100
AcDbLine
 10
-20.37759569306314
 20
-14.46113460426429
 30
0.0
 11
-20.36996243889389
 21
-14.63596486812796
 31
0.0
  0
LINE
  5
D7
330
1F
100
AcDbEntity
  8
0
100
AcDbLine
 10
-44.96841621711278
 20
3.295456593076328
 30
0.0
 11
-44.62332473488314
 21
3.489003321159395
 31
0.0
  0
LINE
  5
D8
330
1F
100
AcDbEntity
  8
0
100
AcDbLine
 10
-44.62332473488314
 20
3.489003321159395
 30
0.0
 11
-44.2917885938085
 21
3.712131002639655
 31
0.0
  0
LINE
  5
D9
330
1F
100
AcDbEntity
  8
0
100
AcDbLine
 10
-44.2917885938085
 20
3.712131002639655
 30
0.0
 11
-43.98122779650288
 21
3.972533319052434
 31
0.0
  0
LINE
  5
DA
330
1F
100
AcDbEntity
  8
0
100
AcDbLine
 10
-43.98122779650288
 20
3.972533319052434
 30
0.0
 11
-43.70387655342984
 21
4.269925679656354
 31
0.0
  0
LINE
  5
DB
330
1F
100
AcDbEntity
  8
0
100
AcDbLine
 10
-43.70387655342984
 20
4.269925679656354
 30
0.0
 11
-43.46416564187462
 21
4.60030776273411
 31
0.0
  0
LINE
  5
DC
330
1F
100
AcDbEntity
  8
0
100
AcDbLine
 10
-43.46416564187462
 20
4.60030776273411
 30
0.0
 11
-43.26314431864947
 21
4.961315031588662
 31
0.0
  0
LINE
  5
DD
330
1F
100
AcDbEntity
  8
0
100
AcDbLine
 10
-43.26314431864947
 20
4.961315031588662
 30
0.0
 11
-43.10089135898674
 21
5.350643050819205
 31
0.0
  0
LINE
  5
DE
330
1F
100
AcDbEntity
  8
0
100
AcDbLine
 10
-43.10089135898674
 20
5.350643050819205
 30
0.0
 11
-42.9767125939387
 21
5.766474360281982
 31
0.0
  0
LINE
  5
DF
330
1F
100
AcDbEntity
  8
0
100
AcDbLine
 10
-42.9767125939387
 20
5.766474360281982
 30
0.0
 11
-42.88948485627997
 21
6.207660848045977
 31
0.0
  0
LINE
  5
E0
330
1F
100
AcDbEntity
  8
0
100
AcDbLine
 10
-42.88948485627997
 20
6.207660848045977
 30
0.0
 11
-42.83797525694693
 21
6.673685130374635
 31
0.0
  0
LINE
  5
E1
330
1F
100
AcDbEntity
  8
0
100
AcDbLine
 10
-42.83797525694693
 20
6.673685130374635
 30
0.0
 11
-42.82115083547567
 21
7.161567717369709
 31
0.0
  0
LINE
  5
E2
330
1F
100
AcDbEntity
  8
0
100
AcDbLine
 10
-42.82115083547567
 20
7.161567717369709
 30
0.0
 11
-42.82694590495363
 21
7.442223429153046
 31
0.0
  0
LINE
  5
E3
330
1F
100
AcDbEntity
  8
0
100
AcDbLine
 10
-42.82694590495363
 20
7.442223429153046
 30
0.0
 11
-42.84423761932882
 21
7.710435466612165
 31
0.0
  0
LINE
  5
E4
330
1F
100
AcDbEntity
  8
0
100
AcDbLine
 10
-42.84423761932882
 20
7.710435466612165
 30
0.0
 11
-42.87330207366524
 21
7.969882958248966
 31
0.0
  0
LINE
  5
E5
330
1F
100
AcDbEntity
  8
0
100
AcDbLine
 10
-42.87330207366524
 20
7.969882958248966
 30
0.0
 11
-42.91437363781072
 21
8.220557734654568
 31
0.0
  0
LINE
  5
E6
330
1F
100
AcDbEntity
  8
0
100
AcDbLine
 10
-42.91437363781072
 20
8.220557734654568
 30
0.0
 11
-42.9677154457984
 21
8.46239492336886
 31
0.0
  0
LINE
  5
E7
330
1F
100
AcDbEntity
  8
0
100
AcDbLine
 10
-42.9677154457984
 20
8.46239492336886
 30
0.0
 11
-43.03360865924841
 21
8.695254411753492
 31
0.0
  0
LINE
  5
E8
330
1F
100
AcDbEntity
  8
0
100
AcDbLine
 10
-43.03360865924841
 20
8.695254411753492
 30
0.0
 11
-43.11233409626068
 21
8.91890264328354
 31
0.0
  0
LINE
  5
E9
330
1F
100
AcDbEntity
  8
0
100
AcDbLine
 10
-43.11233409626068
 20
8.91890264328354
 30
0.0
 11
-43.20414527734905
 21
9.132998346835587
 31
0.0
  0
LINE
  5
EA
330
1F
100
AcDbEntity
  8
0
100
AcDbLine
 10
-43.20414527734905
 20
9.132998346835587
 30
0.0
 11
-43.30848505839693
 21
9.335633212381502
 31
0.0
  0
LINE
  5
EB
330
1F
100
AcDbEntity
  8
0
100
AcDbLine
 10
-43.30848505839693
 20
9.335633212381502
 30
0.0
 11
-43.42260568081094
 21
9.524838144809964
 31
0.0
  0
LINE
  5
EC
330
1F
100
AcDbEntity
  8
0
100
AcDbLine
 10
-43.42260568081094
 20
9.524838144809964
 30
0.0
 11
-43.54310810676036
 21
9.702404375563814
 31
0.0
  0
LINE
  5
ED
330
1F
100
AcDbEntity
  8
0
100
AcDbLine
 10
-43.54310810676036
 20
9.702404375563814
 30
0.0
 11
-43.6721297097296
 21
9.871526831739404
 31
0.0
  0
LINE
  5
EE
330
1F
100
AcDbEntity
  8
0
100
AcDbLine
 10
-43.6721297097296
 20
9.871526831739404
 30
0.0
 11
-43.80968564365466
 21
10.03196305522146
 31
0.0
  0
LINE
  5
EF
330
1F
100
AcDbEntity
  8
0
100
AcDbLine
 10
-43.80968564365466
 20
10.03196305522146
 30
0.0
 11
-43.95572583299395
 21
10.18346743568592
 31
0.0
  0
LINE
  5
F0
330
1F
100
AcDbEntity
  8
0
100
AcDbLine
 10
-43.95572583299395
 20
10.18346743568592
 30
0.0
 11
-44.11013625763367
 21
10.32580984695233
 31
0.0
  0
LINE
  5
F1
330
1F
100
AcDbEntity
  8
0
100
AcDbLine
 10
-44.11013625763367
 20
10.32580984695233
 30
0.0
 11
-44.27274666173938
 21
10.45879419957684
 31
0.0
  0
LINE
  5
F2
330
1F
100
AcDbEntity
  8
0
100
AcDbLine
 10
-44.27274666173938
 20
10.45879419957684
 30
0.0
 11
-44.44334413269048
 21
10.58227430396535
 31
0.0
  0
LINE
  5
F3
330
1F
100
AcDbEntity
  8
0
100
AcDbLine
 10
-44.44334413269048
 20
10.58227430396535
 30
0.0
 11
-44.62102859487008
 21
10.69574190231596
 31
0.0
  0
LINE
  5
F4
330
1F
100
AcDbEntity
  8
0
100
AcDbLine
 10
-44.62102859487008
 20
10.69574190231596
 30
0.0
 11
-44.80233762059975
 21
10.79822362677825
 31
0.0
  0
LINE
  5
F5
330
1F
100
AcDbEntity
  8
0
100
AcDbLine
 10
-44.80233762059975
 20
10.79822362677825
 30
0.0
 11
-44.98672650340236
 21
10.89221236936671
 31
0.0
  0
LINE
  5
F6
330
1F
100
AcDbEntity
  8
0
100
AcDbLine
 10
-44.98672650340236
 20
10.89221236936671
 30
0.0
 11
-45.17632000156328
 21
10.97893142410799
 31
0.0
  0
LINE
  5
F7
330
1F
100
AcDbEntity
  8
0
100
AcDbLine
 10
-45.17632000156328
 20
10.97893142410799
 30
0.0
 11
-45.37100959949619
 21
11.05835355587017
 31
0.0
  0
LINE
  5
F8
330
1F
100
AcDbEntity
  8
0
100
AcDbLine
 10
-45.37100959949619
 20
11.05835355587017
 30
0.0
 11
-45.5706937133675
 21
11.13046459619972
 31
0.0
  0
LINE
  5
F9
330
1F
100
AcDbEntity
  8
0
100
AcDbLine
 10
-45.5706937133675
 20
11.13046459619972
 30
0.0
 11
-45.77527947230609
 21
11.19526172158066
 31
0.0
  0
LINE
  5
FA
330
1F
100
AcDbEntity
  8
0
100
AcDbLine
 10
-45.77527947230609
 20
11.19526172158066
 30
0.0
 11
-45.9846839657682
 21
11.25275150653978
 31
0.0
  0
LINE
  5
FB
330
1F
100
AcDbEntity
  8
0
100
AcDbLine
 10
-45.9846839657682
 20
11.25275150653978
 30
0.0
 11
-46.19883496659283
 21
11.30294788983378
 31
0.0
  0
LINE
  5
FC
330
1F
100
AcDbEntity
  8
0
100
AcDbLine
 10
-46.19883496659283
 20
11.30294788983378
 30
0.0
 11
-46.41536573296078
 21
11.34541798716372
 31
0.0
  0
LINE
  5
FD
330
1F
100
AcDbEntity
  8
0
100
AcDbLine
 10
-46.41536573296078
 20
11.34541798716372
 30
0.0
 11
-46.63300780525317
 21
11.3822586694663
 31
0.0
  0
LINE
  5
FE
330
1F
100
AcDbEntity
  8
0
100
AcDbLine
 10
-46.63300780525317
 20
11.3822586694663
 30
0.0
 11
-46.85086739693465
 21
11.41446563661286
 31
0.0
  0
LINE
  5
FF
330
1F
100
AcDbEntity
  8
0
100
AcDbLine
 10
-46.85086739693465
 20
11.41446563661286
 30
0.0
 11
-47.07016181962135
 21
11.44227129770142
 31
0.0
  0
LINE
  5
100
330
1F
100
AcDbEntity
  8
0
100
AcDbLine
 10
-47.07016181962135
 20
11.44227129770142
 30
0.0
 11
-47.29091383896925
 21
11.46570690830533
 31
0.0
  0
LINE
  5
101
330
1F
100
AcDbEntity
  8
0
100
AcDbLine
 10
-47.29091383896925
 20
11.46570690830533
 30
0.0
 11
-47.51314749681367
 21
11.48480483191918
 31
0.0
  0
LINE
  5
102
330
1F
100
AcDbEntity
  8
0
100
AcDbLine
 10
-47.51314749681367
 20
11.48480483191918
 30
0.0
 11
-47.73688820160699
 21
11.49959839350508
 31
0.0
  0
LINE
  5
103
330
1F
100
AcDbEntity
  8
0
100
AcDbLine
 10
-47.73688820160699
 20
11.49959839350508
 30
0.0
 11
-47.96216279269352
 21
11.51012172842474
 31
0.0
  0
LINE
  5
104
330
1F
100
AcDbEntity
  8
0
100
AcDbLine
 10
-47.96216279269352
 20
11.51012172842474
 30
0.0
 11
-48.18899957933877
 21
11.51640963049327
 31
0.0
  0
LINE
  5
105
330
1F
100
AcDbEntity
  8
0
100
AcDbLine
 10
-48.18899957933877
 20
11.51640963049327
 30
0.0
 11
-48.41517164101821
 21
11.51847677681003
 31
0.0
  0
LINE
  5
106
330
1F
100
AcDbEntity
  8
0
100
AcDbLine
 10
-48.41517164101821
 20
11.51847677681003
 30
0.0
 11
-55.84674020335902
 21
11.51847677681003
 31
0.0
  0
LINE
  5
107
330
1F
100
AcDbEntity
  8
0
100
AcDbLine
 10
-55.84674020335902
 20
11.51847677681003
 30
0.0
 11
-55.84674020335902
 21
2.673374777911175
 31
0.0
  0
LINE
  5
108
330
1F
100
AcDbEntity
  8
0
100
AcDbLine
 10
-55.84674020335902
 20
2.673374777911175
 30
0.0
 11
-47.84381853661257
 21
2.673456424547878
 31
0.0
  0
LINE
  5
109
330
1F
100
AcDbEntity
  8
0
100
AcDbLine
 10
-47.84381853661257
 20
2.673456424547878
 30
0.0
 11
-47.39136416471467
 21
2.68560380368946
 31
0.0
  0
LINE
  5
10A
330
1F
100
AcDbEntity
  8
0
100
AcDbLine
 10
-47.39136416471467
 20
2.68560380368946
 30
0.0
 11
-46.94786987690329
 21
2.722835087465119
 31
0.0
  0
LINE
  5
10B
330
1F
100
AcDbEntity
  8
0
100
AcDbLine
 10
-46.94786987690329
 20
2.722835087465119
 30
0.0
 11
-46.51985514289507
 21
2.785359670542183
 31
0.0
  0
LINE
  5
10C
330
1F
100
AcDbEntity
  8
0
100
AcDbLine
 10
-46.51985514289507
 20
2.785359670542183
 30
0.0
 11
-46.10750710582167
 21
2.873566305632183
 31
0.0
  0
LINE
  5
10D
330
1F
100
AcDbEntity
  8
0
100
AcDbLine
 10
-46.10750710582167
 20
2.873566305632183
 30
0.0
 11
-45.71115060755465
 21
2.987814926816643
 31
0.0
  0
LINE
  5
10E
330
1F
100
AcDbEntity
  8
0
100
AcDbLine
 10
-45.71115060755465
 20
2.987814926816643
 30
0.0
 11
-45.33125428649752
 21
3.128391237689475
 31
0.0
  0
LINE
  5
10F
330
1F
100
AcDbEntity
  8
0
100
AcDbLine
 10
-45.33125428649752
 20
3.128391237689475
 30
0.0
 11
-44.96841621711278
 21
3.295456593076328
 31
0.0
  0
LINE
  5
110
330
1F
100
AcDbEntity
  8
0
100
AcDbLine
 10
-46.18416995904627
 20
-11.52959324277832
 30
0.0
 11
-45.94409092087466
 21
-11.49934812306412
 31
0.0
  0
LINE
  5
111
330
1F
100
AcDbEntity
  8
0
100
AcDbLine
 10
-45.94409092087466
 20
-11.49934812306412
 30
0.0
 11
-45.70613386720362
 21
-11.46342984144749
 31
0.0
  0
LINE
  5
112
330
1F
100
AcDbEntity
  8
0
100
AcDbLine
 10
-45.70613386720362
 20
-11.46342984144749
 30
0.0
 11
-45.47028638700618
 21
-11.42178855011138
 31
0.0
  0
LINE
  5
113
330
1F
100
AcDbEntity
  8
0
100
AcDbLine
 10
-45.47028638700618
 20
-11.42178855011138
 30
0.0
 11
-45.23614672569457
 21
-11.37429717599107
 31
0.0
  0
LINE
  5
114
330
1F
100
AcDbEntity
  8
0
100
AcDbLine
 10
-45.23614672569457
 20
-11.37429717599107
 30
0.0
 11
-45.00302268070284
 21
-11.32033978271049
 31
0.0
  0
LINE
  5
115
330
1F
100
AcDbEntity
  8
0
100
AcDbLine
 10
-45.00302268070284
 20
-11.32033978271049
 30
0.0
 11
-44.77294644459595
 21
-11.25797920051705
 31
0.0
  0
LINE
  5
116
330
1F
100
AcDbEntity
  8
0
100
AcDbLine
 10
-44.77294644459595
 20
-11.25797920051705
 30
0.0
 11
-44.54818301890806
 21
-11.18770204918888
 31
0.0
  0
LINE
  5
117
330
1F
100
AcDbEntity
  8
0
100
AcDbLine
 10
-44.54818301890806
 20
-11.18770204918888
 30
0.0
 11
-44.32886810033791
 21
-11.10950296425103
 31
0.0
  0
LINE
  5
118
330
1F
100
AcDbEntity
  8
0
100
AcDbLine
 10
-44.32886810033791
 20
-11.10950296425103
 30
0.0
 11
-44.11514742380077
 21
-11.02338137654724
 31
0.0
  0
LINE
  5
119
330
1F
100
AcDbEntity
  8
0
100
AcDbLine
 10
-44.11514742380077
 20
-11.02338137654724
 30
0.0
 11
-43.9071767093776
 21
-10.92934335124643
 31
0.0
  0
LINE
  5
11A
330
1F
100
AcDbEntity
  8
0
100
AcDbLine
 10
-43.9071767093776
 20
-10.92934335124643
 30
0.0
 11
-43.70512121586328
 21
-10.82740351438523
 31
0.0
  0
LINE
  5
11B
330
1F
100
AcDbEntity
  8
0
100
AcDbLine
 10
-43.70512121586328
 20
-10.82740351438523
 30
0.0
 11
-43.50915484466177
 21
-10.71758697474175
 31
0.0
  0
LINE
  5
11C
330
1F
100
AcDbEntity
  8
0
100
AcDbLine
 10
-43.50915484466177
 20
-10.71758697474175
 30
0.0
 11
-43.31742931712365
 21
-10.59867239858337
 31
0.0
  0
LINE
  5
11D
330
1F
100
AcDbEntity
  8
0
100
AcDbLine
 10
-43.31742931712365
 20
-10.59867239858337
 30
0.0
 11
-43.13059447238946
 21
-10.46813012004082
 31
0.0
  0
LINE
  5
11E
330
1F
100
AcDbEntity
  8
0
100
AcDbLine
 10
-43.13059447238946
 20
-10.46813012004082
 30
0.0
 11
-42.95166344917975
 21
-10.32696763188468
 31
0.0
  0
LINE
  5
11F
330
1F
100
AcDbEntity
  8
0
100
AcDbLine
 10
-42.95166344917975
 20
-10.32696763188468
 30
0.0
 11
-42.78143328123844
 21
-10.17580298880543
 31
0.0
  0
LINE
  5
120
330
1F
100
AcDbEntity
  8
0
100
AcDbLine
 10
-42.78143328123844
 20
-10.17580298880543
 30
0.0
 11
-42.62007089870448
 21
-10.01487718910096
 31
0.0
  0
LINE
  5
121
330
1F
100
AcDbEntity
  8
0
100
AcDbLine
 10
-42.62007089870448
 20
-10.01487718910096
 30
0.0
 11
-42.46769804863781
 21
-9.84445761886571
 31
0.0
  0
LINE
  5
122
330
1F
100
AcDbEntity
  8
0
100
AcDbLine
 10
-42.46769804863781
 20
-9.84445761886571
 30
0.0
 11
-42.32438597057712
 21
-9.664824576532972
 31
0.0
  0
LINE
  5
123
330
1F
100
AcDbEntity
  8
0
100
AcDbLine
 10
-42.32438597057712
 20
-9.664824576532972
 30
0.0
 11
-42.19015441961097
 21
-9.476257755220958
 31
0.0
  0
LINE
  5
124
330
1F
100
AcDbEntity
  8
0
100
AcDbLine
 10
-42.19015441961097
 20
-9.476257755220958
 30
0.0
 11
-42.06497464885933
 21
-9.279024161646685
 31
0.0
  0
LINE
  5
125
330
1F
100
AcDbEntity
  8
0
100
AcDbLine
 10
-42.06497464885933
 20
-9.279024161646685
 30
0.0
 11
-41.94739841119372
 21
-9.070931370906205
 31
0.0
  0
LINE
  5
126
330
1F
100
AcDbEntity
  8
0
100
AcDbLine
 10
-41.94739841119372
 20
-9.070931370906205
 30
0.0
 11
-41.83861934231894
 21
-8.847982715842905
 31
0.0
  0
LINE
  5
127
330
1F
100
AcDbEntity
  8
0
100
AcDbLine
 10
-41.83861934231894
 20
-8.847982715842905
 30
0.0
 11
-41.74274597561868
 21
-8.611429332060622
 31
0.0
  0
LINE
  5
128
330
1F
100
AcDbEntity
  8
0
100
AcDbLine
 10
-41.74274597561868
 20
-8.611429332060622
 30
0.0
 11
-41.6608085180907
 21
-8.364444702014437
 31
0.0
  0
LINE
  5
129
330
1F
100
AcDbEntity
  8
0
100
AcDbLine
 10
-41.6608085180907
 20
-8.364444702014437
 30
0.0
 11
-41.59243789227995
 21
-8.107311755156099
 31
0.0
  0
LINE
  5
12A
330
1F
100
AcDbEntity
  8
0
100
AcDbLine
 10
-41.59243789227995
 20
-8.107311755156099
 30
0.0
 11
-41.53725089321725
 21
-7.840200587227902
 31
0.0
  0
LINE
  5
12B
330
1F
100
AcDbEntity
  8
0
100
AcDbLine
 10
-41.53725089321725
 20
-7.840200587227902
 30
0.0
 11
-41.49487595607804
 21
-7.563188015766939
 31
0.0
  0
LINE
  5
12C
330
1F
100
AcDbEntity
  8
0
100
AcDbLine
 10
-41.49487595607804
 20
-7.563188015766939
 30
0.0
 11
-41.46496916737626
 21
-7.276279277647598
 31
0.0
  0
LINE
  5
12D
330
1F
100
AcDbEntity
  8
0
100
AcDbLine
 10
-41.46496916737626
 20
-7.276279277647598
 30
0.0
 11
-41.447222323677
 21
-6.979428415334589
 31
0.0
  0
LINE
  5
12E
330
1F
100
AcDbEntity
  8
0
100
AcDbLine
 10
-41.447222323677
 20
-6.979428415334589
 30
0.0
 11
-41.44129768977584
 21
-6.669013656882777
 31
0.0
  0
LINE
  5
12F
330
1F
100
AcDbEntity
  8
0
100
AcDbLine
 10
-41.44129768977584
 20
-6.669013656882777
 30
0.0
 11
-41.4603692466816
 21
-6.081611165401858
 31
0.0
  0
LINE
  5
130
330
1F
100
AcDbEntity
  8
0
100
AcDbLine
 10
-41.4603692466816
 20
-6.081611165401858
 30
0.0
 11
-41.51853814930257
 21
-5.523588117382716
 31
0.0
  0
LINE
  5
131
330
1F
100
AcDbEntity
  8
0
100
AcDbLine
 10
-41.51853814930257
 20
-5.523588117382716
 30
0.0
 11
-41.61680214786815
 21
-4.997720385487783
 31
0.0
  0
LINE
  5
132
330
1F
100
AcDbEntity
  8
0
100
AcDbLine
 10
-41.61680214786815
 20
-4.997720385487783
 30
0.0
 11
-41.7564281922547
 21
-4.504337467694095
 31
0.0
  0
LINE
  5
133
330
1F
100
AcDbEntity
  8
0
100
AcDbLine
 10
-41.7564281922547
 20
-4.504337467694095
 30
0.0
 11
-41.93870631979228
 21
-4.044361011249316
 31
0.0
  0
LINE
  5
134
330
1F
100
AcDbEntity
  8
0
100
AcDbLine
 10
-41.93870631979228
 20
-4.044361011249316
 30
0.0
 11
-42.16465928205145
 21
-3.619438026114947
 31
0.0
  0
LINE
  5
135
330
1F
100
AcDbEntity
  8
0
100
AcDbLine
 10
-42.16465928205145
 20
-3.619438026114947
 30
0.0
 11
-42.43465237001033
 21
-3.23188862020945
 31
0.0
  0
LINE
  5
136
330
1F
100
AcDbEntity
  8
0
100
AcDbLine
 10
-42.43465237001033
 20
-3.23188862020945
 30
0.0
 11
-42.74805278592618
 21
-2.884369767252033
 31
0.0
  0
LINE
  5
137
330
1F
100
AcDbEntity
  8
0
100
AcDbLine
 10
-42.74805278592618
 20
-2.884369767252033
 30
0.0
 11
-43.0996753952283
 21
-2.582293986719462
 31
0.0
  0
LINE
  5
138
330
1F
100
AcDbEntity
  8
0
100
AcDbLine
 10
-43.0996753952283
 20
-2.582293986719462
 30
0.0
 11
-43.4763677507574
 21
-2.322953240747527
 31
0.0
  0
LINE
  5
139
330
1F
100
AcDbEntity
  8
0
100
AcDbLine
 10
-43.4763677507574
 20
-2.322953240747527
 30
0.0
 11
-43.87348327307153
 21
-2.097251097201496
 31
0.0
  0
LINE
  5
13A
330
1F
100
AcDbEntity
  8
0
100
AcDbLine
 10
-43.87348327307153
 20
-2.097251097201496
 30
0.0
 11
-44.29402660681472
 21
-1.902605288315753
 31
0.0
  0
LINE
  5
13B
330
1F
100
AcDbEntity
  8
0
100
AcDbLine
 10
-44.29402660681472
 20
-1.902605288315753
 30
0.0
 11
-44.73716079566235
 21
-1.738912489845737
 31
0.0
  0
LINE
  5
13C
330
1F
100
AcDbEntity
  8
0
100
AcDbLine
 10
-44.73716079566235
 20
-1.738912489845737
 30
0.0
 11
-45.20220116462656
 21
-1.605895541709895
 31
0.0
  0
LINE
  5
13D
330
1F
100
AcDbEntity
  8
0
100
AcDbLine
 10
-45.20220116462656
 20
-1.605895541709895
 30
0.0
 11
-45.68863999879304
 21
-1.503170183006293
 31
0.0
  0
LINE
  5
13E
330
1F
100
AcDbEntity
  8
0
100
AcDbLine
 10
-45.68863999879304
 20
-1.503170183006293
 30
0.0
 11
-46.19614159500363
 21
-1.4303068355956
 31
0.0
  0
LINE
  5
13F
330
1F
100
AcDbEntity
  8
0
100
AcDbLine
 10
-46.19614159500363
 20
-1.4303068355956
 30
0.0
 11
-46.72451827732282
 21
-1.386878304934555
 31
0.0
  0
LINE
  5
140
330
1F
100
AcDbEntity
  8
0
100
AcDbLine
 10
-46.72451827732282
 20
-1.386878304934555
 30
0.0
 11
-47.26742263493753
 21
-1.372655336256664
 31
0.0
  0
LINE
  5
141
330
1F
100
AcDbEntity
  8
0
100
AcDbLine
 10
-47.26742263493753
 20
-1.372655336256664
 30
0.0
 11
-55.84666372626389
 21
-1.372655336256664
 31
0.0
  0
LINE
  5
142
330
1F
100
AcDbEntity
  8
0
100
AcDbLine
 10
-55.84666372626389
 20
-1.372655336256664
 30
0.0
 11
-55.84666372626389
 21
-11.59755198481601
 31
0.0
  0
LINE
  5
143
330
1F
100
AcDbEntity
  8
0
100
AcDbLine
 10
-55.84666372626389
 20
-11.59755198481601
 30
0.0
 11
-47.41438844170174
 21
-11.59755198481596
 31
0.0
  0
LINE
  5
144
330
1F
100
AcDbEntity
  8
0
100
AcDbLine
 10
-47.41438844170174
 20
-11.59755198481596
 30
0.0
 11
-47.16604845133709
 21
-11.5948984493315
 31
0.0
  0
LINE
  5
145
330
1F
100
AcDbEntity
  8
0
100
AcDbLine
 10
-47.16604845133709
 20
-11.5948984493315
 30
0.0
 11
-46.91730323467641
 21
-11.58681459425888
 31
0.0
  0
LINE
  5
146
330
1F
100
AcDbEntity
  8
0
100
AcDbLine
 10
-46.91730323467641
 20
-11.58681459425888
 30
0.0
 11
-46.67075690692644
 21
-11.57327256217888
 31
0.0
  0
LINE
  5
147
330
1F
100
AcDbEntity
  8
0
100
AcDbLine
 10
-46.67075690692644
 20
-11.57327256217888
 30
0.0
 11
-46.4263860217251
 21
-11.55421695252464
 31
0.0
  0
LINE
  5
148
330
1F
100
AcDbEntity
  8
0
100
AcDbLine
 10
-46.4263860217251
 20
-11.55421695252464
 30
0.0
 11
-46.18416995904627
 21
-11.52959324277832
 31
0.0
  0
LINE
  5
149
330
1F
100
AcDbEntity
  8
0
100
AcDbLine
 10
-62.00637155452034
 20
-15.41243147178449
 30
0.0
 11
-61.91821337474657
 21
-15.55081209508035
 31
0.0
  0
LINE
  5
14A
330
1F
100
AcDbEntity
  8
0
100
AcDbLine
 10
-61.91821337474657
 20
-15.55081209508035
 30
0.0
 11
-61.81832999745738
 21
-15.68098264668866
 31
0.0
  0
LINE
  5
14B
330
1F
100
AcDbEntity
  8
0
100
AcDbLine
 10
-61.81832999745738
 20
-15.68098264668866
 30
0.0
 11
-61.7074815954649
 21
-15.80195245011304
 31
0.0
  0
LINE
  5
14C
330
1F
100
AcDbEntity
  8
0
100
AcDbLine
 10
-61.7074815954649
 20
-15.80195245011304
 30
0.0
 11
-61.58651179204115
 21
-15.91280085210494
 31
0.0
  0
LINE
  5
14D
330
1F
100
AcDbEntity
  8
0
100
AcDbLine
 10
-61.58651179204115
 20
-15.91280085210494
 30
0.0
 11
-61.4563412404321
 21
-16.01268422939469
 31
0.0
  0
LINE
  5
14E
330
1F
100
AcDbEntity
  8
0
100
AcDbLine
 10
-61.4563412404321
 20
-16.01268422939469
 30
0.0
 11
-61.31796061713687
 21
-16.1008424091681
 31
0.0
  0
LINE
  5
14F
330
1F
100
AcDbEntity
  8
0
100
AcDbLine
 10
-61.31796061713687
 20
-16.1008424091681
 30
0.0
 11
-61.17242308225323
 21
-16.17660445444702
 31
0.0
  0
LINE
  5
150
330
1F
100
AcDbEntity
  8
0
100
AcDbLine
 10
-61.17242308225323
 20
-16.17660445444702
 30
0.0
 11
-61.02083626430058
 21
-16.23939377032002
 31
0.0
  0
LINE
  5
151
330
1F
100
AcDbEntity
  8
0
100
AcDbLine
 10
-61.02083626430058
 20
-16.23939377032002
 30
0.0
 11
-60.8643538304946
 21
-16.28873249217988
 31
0.0
  0
LINE
  5
152
330
1F
100
AcDbEntity
  8
0
100
AcDbLine
 10
-60.8643538304946
 20
-16.28873249217988
 30
0.0
 11
-60.70416670664222
 21
-16.32424512256203
 31
0.0
  0
LINE
  5
153
330
1F
100
AcDbEntity
  8
0
100
AcDbLine
 10
-60.70416670664222
 20
-16.32424512256203
 30
0.0
 11
-60.54149401348011
 21
-16.34566138890609
 31
0.0
  0
LINE
  5
154
330
1F
100
AcDbEntity
  8
0
100
AcDbLine
 10
-60.54149401348011
 20
-16.34566138890609
 30
0.0
 11
-60.3666637496166
 21
-16.35329464307534
 31
0.0
  0
LINE
  5
155
330
1F
100
AcDbEntity
  8
0
100
AcDbLine
 10
-60.3666637496166
 20
-16.35329464307534
 30
0.0
 11
-46.42959761222092
 21
-16.35329464307534
 31
0.0
  0
LINE
  5
156
330
1F
100
AcDbEntity
  8
0
100
AcDbLine
 10
-46.42959761222092
 20
-16.35329464307534
 30
0.0
 11
-45.93733796877026
 21
-16.3464977969598
 31
0.0
  0
LINE
  5
157
330
1F
100
AcDbEntity
  8
0
100
AcDbLine
 10
-45.93733796877026
 20
-16.3464977969598
 30
0.0
 11
-45.45188478261353
 21
-16.32623347634659
 31
0.0
  0
LINE
  5
158
330
1F
100
AcDbEntity
  8
0
100
AcDbLine
 10
-45.45188478261353
 20
-16.32623347634659
 30
0.0
 11
-44.96969706369393
 21
-16.29242668279201
 31
0.0
  0
LINE
  5
159
330
1F
100
AcDbEntity
  8
0
100
AcDbLine
 10
-44.96969706369393
 20
-16.29242668279201
 30
0.0
 11
-44.49065380807069
 21
-16.24504630668395
 31
0.0
  0
LINE
  5
15A
330
1F
100
AcDbEntity
  8
0
100
AcDbLine
 10
-44.49065380807069
 20
-16.24504630668395
 30
0.0
 11
-44.01463202636782
 21
-16.18405753708365
 31
0.0
  0
LINE
  5
15B
330
1F
100
AcDbEntity
  8
0
100
AcDbLine
 10
-44.01463202636782
 20
-16.18405753708365
 30
0.0
 11
-43.54150732425408
 21
-16.10942160559372
 31
0.0
  0
LINE
  5
15C
330
1F
100
AcDbEntity
  8
0
100
AcDbLine
 10
-43.54150732425408
 20
-16.10942160559372
 30
0.0
 11
-43.07115453863105
 21
-16.02109562228226
 31
0.0
  0
LINE
  5
15D
330
1F
100
AcDbEntity
  8
0
100
AcDbLine
 10
-43.07115453863105
 20
-16.02109562228226
 30
0.0
 11
-42.60344840887847
 21
-15.91903251348141
 31
0.0
  0
LINE
  5
15E
330
1F
100
AcDbEntity
  8
0
100
AcDbLine
 10
-42.60344840887847
 20
-15.91903251348141
 30
0.0
 11
-42.1385288030848
 21
-15.80324694946495
 31
0.0
  0
LINE
  5
15F
330
1F
100
AcDbEntity
  8
0
100
AcDbLine
 10
-42.1385288030848
 20
-15.80324694946495
 30
0.0
 11
-41.68396177571435
 21
-15.67532052291993
 31
0.0
  0
LINE
  5
160
330
1F
100
AcDbEntity
  8
0
100
AcDbLine
 10
-41.68396177571435
 20
-15.67532052291993
 30
0.0
 11
-41.24238479597811
 21
-15.53325331344486
 31
0.0
  0
LINE
  5
161
330
1F
100
AcDbEntity
  8
0
100
AcDbLine
 10
-41.24238479597811
 20
-15.53325331344486
 30
0.0
 11
-40.81239793900455
 21
-15.37671382478982
 31
0.0
  0
LINE
  5
162
330
1F
100
AcDbEntity
  8
0
100
AcDbLine
 10
-40.81239793900455
 20
-15.37671382478982
 30
0.0
 11
-40.3939658608194
 21
-15.20574909980204
 31
0.0
  0
LINE
  5
163
330
1F
100
AcDbEntity
  8
0
100
AcDbLine
 10
-40.3939658608194
 20
-15.20574909980204
 30
0.0
 11
-39.98704601420583
 21
-15.0203968614637
 31
0.0
  0
LINE
  5
164
330
1F
100
AcDbEntity
  8
0
100
AcDbLine
 10
-39.98704601420583
 20
-15.0203968614637
 30
0.0
 11
-39.59159002826334
 21
-14.82068414956583
 31
0.0
  0
LINE
  5
165
330
1F
100
AcDbEntity
  8
0
100
AcDbLine
 10
-39.59159002826334
 20
-14.82068414956583
 30
0.0
 11
-39.20754546572051
 21
-14.60662622715552
 31
0.0
  0
LINE
  5
166
330
1F
100
AcDbEntity
  8
0
100
AcDbLine
 10
-39.20754546572051
 20
-14.60662622715552
 30
0.0
 11
-38.83485790160098
 21
-14.37822585512534
 31
0.0
  0
LINE
  5
167
330
1F
100
AcDbEntity
  8
0
100
AcDbLine
 10
-38.83485790160098
 20
-14.37822585512534
 30
0.0
 11
-38.47487614617214
 21
-14.13641539465458
 31
0.0
  0
LINE
  5
168
330
1F
100
AcDbEntity
  8
0
100
AcDbLine
 10
-38.47487614617214
 20
-14.13641539465458
 30
0.0
 11
-38.13199263104276
 21
-13.88102740549239
 31
0.0
  0
LINE
  5
169
330
1F
100
AcDbEntity
  8
0
100
AcDbLine
 10
-38.13199263104276
 20
-13.88102740549239
 30
0.0
 11
-37.8055353909063
 21
-13.6104762059071
 31
0.0
  0
LINE
  5
16A
330
1F
100
AcDbEntity
  8
0
100
AcDbLine
 10
-37.8055353909063
 20
-13.6104762059071
 30
0.0
 11
-37.49493538918716
 21
-13.32432062736598
 31
0.0
  0
LINE
  5
16B
330
1F
100
AcDbEntity
  8
0
100
AcDbLine
 10
-37.49493538918716
 20
-13.32432062736598
 30
0.0
 11
-37.20010431248294
 21
-13.02243830565212
 31
0.0
  0
LINE
  5
16C
330
1F
100
AcDbEntity
  8
0
100
AcDbLine
 10
-37.20010431248294
 20
-13.02243830565212
 30
0.0
 11
-36.92097310406125
 21
-12.70468054126919
 31
0.0
  0
LINE
  5
16D
330
1F
100
AcDbEntity
  8
0
100
AcDbLine
 10
-36.92097310406125
 20
-12.70468054126919
 30
0.0
 11
-36.65749796908433
 21
-12.37087797889996
 31
0.0
  0
LINE
  5
16E
330
1F
100
AcDbEntity
  8
0
100
AcDbLine
 10
-36.65749796908433
 20
-12.37087797889996
 30
0.0
 11
-36.40966469837803
 21
-12.02084757859455
 31
0.0
  0
LINE
  5
16F
330
1F
100
AcDbEntity
  8
0
100
AcDbLine
 10
-36.40966469837803
 20
-12.02084757859455
 30
0.0
 11
-36.17749097312925
 21
-11.65440022067615
 31
0.0
  0
LINE
  5
170
330
1F
100
AcDbEntity
  8
0
100
AcDbLine
 10
-36.17749097312925
 20
-11.65440022067615
 30
0.0
 11
-35.96196819925252
 21
-11.27301452556267
 31
0.0
  0
LINE
  5
171
330
1F
100
AcDbEntity
  8
0
100
AcDbLine
 10
-35.96196819925252
 20
-11.27301452556267
 30
0.0
 11
-35.76713158693565
 21
-10.87728829239625
 31
0.0
  0
LINE
  5
172
330
1F
100
AcDbEntity
  8
0
100
AcDbLine
 10
-35.76713158693565
 20
-10.87728829239625
 30
0.0
 11
-35.59542592352948
 21
-10.46630702047129
 31
0.0
  0
LINE
  5
173
330
1F
100
AcDbEntity
  8
0
100
AcDbLine
 10
-35.59542592352948
 20
-10.46630702047129
 30
0.0
 11
-35.44619199578754
 21
-10.03837533477183
 31
0.0
  0
LINE
  5
174
330
1F
100
AcDbEntity
  8
0
100
AcDbLine
 10
-35.44619199578754
 20
-10.03837533477183
 30
0.0
 11
-35.31949850254858
 21
-9.593185445308473
 31
0.0
  0
LINE
  5
175
330
1F
100
AcDbEntity
  8
0
100
AcDbLine
 10
-35.31949850254858
 20
-9.593185445308473
 30
0.0
 11
-35.21546300085949
 21
-9.130475266479277
 31
0.0
  0
LINE
  5
176
330
1F
100
AcDbEntity
  8
0
100
AcDbLine
 10
-35.21546300085949
 20
-9.130475266479277
 30
0.0
 11
-35.13423763144567
 21
-8.65003464641481
 31
0.0
  0
LINE
  5
177
330
1F
100
AcDbEntity
  8
0
100
AcDbLine
 10
-35.13423763144567
 20
-8.65003464641481
 30
0.0
 11
-35.07599508027173
 21
-8.15170645935345
 31
0.0
  0
LINE
  5
178
330
1F
100
AcDbEntity
  8
0
100
AcDbLine
 10
-35.07599508027173
 20
-8.15170645935345
 30
0.0
 11
-35.04091620433321
 21
-7.635383663807595
 31
0.0
  0
LINE
  5
179
330
1F
100
AcDbEntity
  8
0
100
AcDbLine
 10
-35.04091620433321
 20
-7.635383663807595
 30
0.0
 11
-35.02921411981695
 21
-7.102552069225989
 31
0.0
  0
LINE
  5
17A
330
1F
100
AcDbEntity
  8
0
100
AcDbLine
 10
-35.02921411981695
 20
-7.102552069225989
 30
0.0
 11
-35.04746349868655
 21
-6.439238907232298
 31
0.0
  0
LINE
  5
17B
330
1F
100
AcDbEntity
  8
0
100
AcDbLine
 10
-35.04746349868655
 20
-6.439238907232298
 30
0.0
 11
-35.10189680158
 21
-5.801354673341955
 31
0.0
  0
LINE
  5
17C
330
1F
100
AcDbEntity
  8
0
100
AcDbLine
 10
-35.10189680158
 20
-5.801354673341955
 30
0.0
 11
-35.19225789879091
 21
-5.187537278805895
 31
0.0
  0
LINE
  5
17D
330
1F
100
AcDbEntity
  8
0
100
AcDbLine
 10
-35.19225789879091
 20
-5.187537278805895
 30
0.0
 11
-35.31828255457248
 21
-4.597500245890033
 31
0.0
  0
LINE
  5
17E
330
1F
100
AcDbEntity
  8
0
100
AcDbLine
 10
-35.31828255457248
 20
-4.597500245890033
 30
0.0
 11
-35.47975821301118
 21
-4.030862510845634
 31
0.0
  0
LINE
  5
17F
330
1F
100
AcDbEntity
  8
0
100
AcDbLine
 10
-35.47975821301118
 20
-4.030862510845634
 30
0.0
 11
-35.67655325878697
 21
-3.487158753128269
 31
0.0
  0
LINE
  5
180
330
1F
100
AcDbEntity
  8
0
100
AcDbLine
 10
-35.67655325878697
 20
-3.487158753128269
 30
0.0
 11
-35.90864288045683
 21
-2.965862821123016
 31
0.0
  0
LINE
  5
181
330
1F
100
AcDbEntity
  8
0
100
AcDbLine
 10
-35.90864288045683
 20
-2.965862821123016
 30
0.0
 11
-36.17612569796993
 21
-2.466423060827949
 31
0.0
  0
LINE
  5
182
330
1F
100
AcDbEntity
  8
0
100
AcDbLine
 10
-36.17612569796993
 20
-2.466423060827949
 30
0.0
 11
-36.47841701955465
 21
-1.98958149846177
 31
0.0
  0
LINE
  5
183
330
1F
100
AcDbEntity
  8
0
100
AcDbLine
 10
-36.47841701955465
 20
-1.98958149846177
 30
0.0
 11
-36.81496325751242
 21
-1.541374969965711
 31
0.0
  0
LINE
  5
184
330
1F
100
AcDbEntity
  8
0
100
AcDbLine
 10
-36.81496325751242
 20
-1.541374969965711
 30
0.0
 11
-37.18687953529453
 21
-1.125256034939391
 31
0.0
  0
LINE
  5
185
330
1F
100
AcDbEntity
  8
0
100
AcDbLine
 10
-37.18687953529453
 20
-1.125256034939391
 30
0.0
 11
-37.59561661275537
 21
-0.7394976960237812
 31
0.0
  0
LINE
  5
186
330
1F
100
AcDbEntity
  8
0
100
AcDbLine
 10
-37.59561661275537
 20
-0.7394976960237812
 30
0.0
 11
-38.04193501490663
 21
-0.3836490035231964
 31
0.0
  0
LINE
  5
187
330
1F
100
AcDbEntity
  8
0
100
AcDbLine
 10
-38.04193501490663
 20
-0.3836490035231964
 30
0.0
 11
-38.52662767896835
 21
-0.0574862771921207
 31
0.0
  0
LINE
  5
188
330
1F
100
AcDbEntity
  8
0
100
AcDbLine
 10
-38.52662767896835
 20
-0.0574862771921207
 30
0.0
 11
-39.05043855936725
 21
0.2389968779511889
 31
0.0
  0
LINE
  5
189
330
1F
100
AcDbEntity
  8
0
100
AcDbLine
 10
-39.05043855936725
 20
0.2389968779511889
 30
0.0
 11
-39.61400241117786
 21
0.5056289967303315
 31
0.0
  0
LINE
  5
18A
330
1F
100
AcDbEntity
  8
0
100
AcDbLine
 10
-39.61400241117786
 20
0.5056289967303315
 30
0.0
 11
-40.21781272769509
 21
0.7421148326214873
 31
0.0
  0
LINE
  5
18B
330
1F
100
AcDbEntity
  8
0
100
AcDbLine
 10
-40.21781272769509
 20
0.7421148326214873
 30
0.0
 11
-42.03690657191298
 21
1.323564867497862
 31
0.0
  0
LINE
  5
18C
330
1F
100
AcDbEntity
  8
0
100
AcDbLine
 10
-42.03690657191298
 20
1.323564867497862
 30
0.0
 11
-40.47187360993227
 21
2.117452894855822
 31
0.0
  0
LINE
  5
18D
330
1F
100
AcDbEntity
  8
0
100
AcDbLine
 10
-40.47187360993227
 20
2.117452894855822
 30
0.0
 11
-40.03144285327054
 21
2.368269881389263
 31
0.0
  0
LINE
  5
18E
330
1F
100
AcDbEntity
  8
0
100
AcDbLine
 10
-40.03144285327054
 20
2.368269881389263
 30
0.0
 11
-39.61886047105339
 21
2.632182598628183
 31
0.0
  0
LINE
  5
18F
330
1F
100
AcDbEntity
  8
0
100
AcDbLine
 10
-39.61886047105339
 20
2.632182598628183
 30
0.0
 11
-39.23400631722252
 21
2.909062299494704
 31
0.0
  0
LINE
  5
190
330
1F
100
AcDbEntity
  8
0
100
AcDbLine
 10
-39.23400631722252
 20
2.909062299494704
 30
0.0
 11
-38.87670091801099
 21
3.198814717970619
 31
0.0
  0
LINE
  5
191
330
1F
100
AcDbEntity
  8
0
100
AcDbLine
 10
-38.87670091801099
 20
3.198814717970619
 30
0.0
 11
-38.54670730229122
 21
3.501399208559767
 31
0.0
  0
LINE
  5
192
330
1F
100
AcDbEntity
  8
0
100
AcDbLine
 10
-38.54670730229122
 20
3.501399208559767
 30
0.0
 11
-38.24373983838154
 21
3.816848415173169
 31
0.0
  0
LINE
  5
193
330
1F
100
AcDbEntity
  8
0
100
AcDbLine
 10
-38.24373983838154
 20
3.816848415173169
 30
0.0
 11
-37.96748116388466
 21
4.145285396269131
 31
0.0
  0
LINE
  5
194
330
1F
100
AcDbEntity
  8
0
100
AcDbLine
 10
-37.96748116388466
 20
4.145285396269131
 30
0.0
 11
-37.71775710732332
 21
4.486729011562086
 31
0.0
  0
LINE
  5
195
330
1F
100
AcDbEntity
  8
0
100
AcDbLine
 10
-37.71775710732332
 20
4.486729011562086
 30
0.0
 11
-37.49385908828642
 21
4.84288850176997
 31
0.0
  0
LINE
  5
196
330
1F
100
AcDbEntity
  8
0
100
AcDbLine
 10
-37.49385908828642
 20
4.84288850176997
 30
0.0
 11
-37.29687307765253
 21
5.217229108673251
 31
0.0
  0
LINE
  5
197
330
1F
100
AcDbEntity
  8
0
100
AcDbLine
 10
-37.29687307765253
 20
5.217229108673251
 30
0.0
 11
-37.12565370022996
 21
5.612010848845026
 31
0.0
  0
LINE
  5
198
330
1F
100
AcDbEntity
  8
0
100
AcDbLine
 10
-37.12565370022996
 20
5.612010848845026
 30
0.0
 11
-36.98018348916822
 21
6.027916919741685
 31
0.0
  0
LINE
  5
199
330
1F
100
AcDbEntity
  8
0
100
AcDbLine
 10
-36.98018348916822
 20
6.027916919741685
 30
0.0
 11
-36.86057936809522
 21
6.465549299001673
 31
0.0
  0
LINE
  5
19A
330
1F
100
AcDbEntity
  8
0
100
AcDbLine
 10
-36.86057936809522
 20
6.465549299001673
 30
0.0
 11
-36.76705629251376
 21
6.925400346621027
 31
0.0
  0
LINE
  5
19B
330
1F
100
AcDbEntity
  8
0
100
AcDbLine
 10
-36.76705629251376
 20
6.925400346621027
 30
0.0
 11
-36.69988772016021
 21
7.407843023536834
 31
0.0
  0
LINE
  5
19C
330
1F
100
AcDbEntity
  8
0
100
AcDbLine
 10
-36.69988772016021
 20
7.407843023536834
 30
0.0
 11
-36.65937001055507
 21
7.913136294343526
 31
0.0
  0
LINE
  5
19D
330
1F
100
AcDbEntity
  8
0
100
AcDbLine
 10
-36.65937001055507
 20
7.913136294343526
 30
0.0
 11
-36.6457567527121
 21
8.442919313002049
 31
0.0
  0
LINE
  5
19E
330
1F
100
AcDbEntity
  8
0
100
AcDbLine
 10
-36.6457567527121
 20
8.442919313002049
 30
0.0
 11
-36.65502745562878
 21
8.935737834640259
 31
0.0
  0
LINE
  5
19F
330
1F
100
AcDbEntity
  8
0
100
AcDbLine
 10
-36.65502745562878
 20
8.935737834640259
 30
0.0
 11
-36.68280175848287
 21
9.410494534675953
 31
0.0
  0
LINE
  5
1A0
330
1F
100
AcDbEntity
  8
0
100
AcDbLine
 10
-36.68280175848287
 20
9.410494534675953
 30
0.0
 11
-36.72882990101227
 21
9.8652758417779
 31
0.0
  0
LINE
  5
1A1
330
1F
100
AcDbEntity
  8
0
100
AcDbLine
 10
-36.72882990101227
 20
9.8652758417779
 30
0.0
 11
-36.79287633861095
 21
10.30007455277514
 31
0.0
  0
LINE
  5
1A2
330
1F
100
AcDbEntity
  8
0
100
AcDbLine
 10
-36.79287633861095
 20
10.30007455277514
 30
0.0
 11
-36.8746875843341
 21
10.71492084438563
 31
0.0
  0
LINE
  5
1A3
330
1F
100
AcDbEntity
  8
0
100
AcDbLine
 10
-36.8746875843341
 20
10.71492084438563
 30
0.0
 11
-36.9739985114536
 21
11.10989290804313
 31
0.0
  0
LINE
  5
1A4
330
1F
100
AcDbEntity
  8
0
100
AcDbLine
 10
-36.9739985114536
 20
11.10989290804313
 30
0.0
 11
-37.09054254401622
 21
11.48512739219545
 31
0.0
  0
LINE
  5
1A5
330
1F
100
AcDbEntity
  8
0
100
AcDbLine
 10
-37.09054254401622
 20
11.48512739219545
 30
0.0
 11
-37.22406618495405
 21
11.84082802911833
 31
0.0
  0
LINE
  5
1A6
330
1F
100
AcDbEntity
  8
0
100
AcDbLine
 10
-37.22406618495405
 20
11.84082802911833
 30
0.0
 11
-37.37486899134711
 21
12.17843741474013
 31
0.0
  0
LINE
  5
1A7
330
1F
100
AcDbEntity
  8
0
100
AcDbLine
 10
-37.37486899134711
 20
12.17843741474013
 30
0.0
 11
-37.54221574759138
 21
12.50086142862372
 31
0.0
  0
LINE
  5
1A8
330
1F
100
AcDbEntity
  8
0
100
AcDbLine
 10
-37.54221574759138
 20
12.50086142862372
 30
0.0
 11
-37.72438590899709
 21
12.80873721116626
 31
0.0
  0
LINE
  5
1A9
330
1F
100
AcDbEntity
  8
0
100
AcDbLine
 10
-37.72438590899709
 20
12.80873721116626
 30
0.0
 11
-37.92076406740722
 21
13.10126207713596
 31
0.0
  0
LINE
  5
1AA
330
1F
100
AcDbEntity
  8
0
100
AcDbLine
 10
-37.92076406740722
 20
13.10126207713596
 30
0.0
 11
-38.13133270179276
 21
13.37869898875562
 31
0.0
  0
LINE
  5
1AB
330
1F
100
AcDbEntity
  8
0
100
AcDbLine
 10
-38.13133270179276
 20
13.37869898875562
 30
0.0
 11
-38.35612482726869
 21
13.64130663727074
 31
0.0
  0
LINE
  5
1AC
330
1F
100
AcDbEntity
  8
0
100
AcDbLine
 10
-38.35612482726869
 20
13.64130663727074
 30
0.0
 11
-38.59522136848343
 21
13.88932603302333
 31
0.0
  0
LINE
  5
1AD
330
1F
100
AcDbEntity
  8
0
100
AcDbLine
 10
-38.59522136848343
 20
13.88932603302333
 30
0.0
 11
-38.8487444817094
 21
14.12296789131459
 31
0.0
  0
LINE
  5
1AE
330
1F
100
AcDbEntity
  8
0
100
AcDbLine
 10
-38.8487444817094
 20
14.12296789131459
 30
0.0
 11
-39.11684741631551
 21
14.34240229826367
 31
0.0
  0
LINE
  5
1AF
330
1F
100
AcDbEntity
  8
0
100
AcDbLine
 10
-39.11684741631551
 20
14.34240229826367
 30
0.0
 11
-39.39995375400526
 21
14.54793453977417
 31
0.0
  0
LINE
  5
1B0
330
1F
100
AcDbEntity
  8
0
100
AcDbLine
 10
-39.39995375400526
 20
14.54793453977417
 30
0.0
 11
-39.70049571123306
 21
14.74157197084192
 31
0.0
  0
LINE
  5
1B1
330
1F
100
AcDbEntity
  8
0
100
AcDbLine
 10
-39.70049571123306
 20
14.74157197084192
 30
0.0
 11
-40.01615024628671
 21
14.92406514576123
 31
0.0
  0
LINE
  5
1B2
330
1F
100
AcDbEntity
  8
0
100
AcDbLine
 10
-40.01615024628671
 20
14.92406514576123
 30
0.0
 11
-40.34574730428881
 21
15.09453610784768
 31
0.0
  0
LINE
  5
1B3
330
1F
100
AcDbEntity
  8
0
100
AcDbLine
 10
-40.34574730428881
 20
15.09453610784768
 30
0.0
 11
-40.68943202034818
 21
15.25294083957593
 31
0.0
  0
LINE
  5
1B4
330
1F
100
AcDbEntity
  8
0
100
AcDbLine
 10
-40.68943202034818
 20
15.25294083957593
 30
0.0
 11
-41.04733107302032
 21
15.39921630300616
 31
0.0
  0
LINE
  5
1B5
330
1F
100
AcDbEntity
  8
0
100
AcDbLine
 10
-41.04733107302032
 20
15.39921630300616
 30
0.0
 11
-41.41955113470054
 21
15.53328507060181
 31
0.0
  0
LINE
  5
1B6
330
1F
100
AcDbEntity
  8
0
100
AcDbLine
 10
-41.41955113470054
 20
15.53328507060181
 30
0.0
 11
-41.8061785681385
 21
15.65505981508996
 31
0.0
  0
LINE
  5
1B7
330
1F
100
AcDbEntity
  8
0
100
AcDbLine
 10
-41.8061785681385
 20
15.65505981508996
 30
0.0
 11
-42.20728012709307
 21
15.76444738287855
 31
0.0
  0
LINE
  5
1B8
330
1F
100
AcDbEntity
  8
0
100
AcDbLine
 10
-42.20728012709307
 20
15.76444738287855
 30
0.0
 11
-42.62355515542301
 21
15.86150401144577
 31
0.0
  0
LINE
  5
1B9
330
1F
100
AcDbEntity
  8
0
100
AcDbLine
 10
-42.62355515542301
 20
15.86150401144577
 30
0.0
 11
-43.05463582151582
 21
15.94720472263631
 31
0.0
  0
LINE
  5
1BA
330
1F
100
AcDbEntity
  8
0
100
AcDbLine
 10
-43.05463582151582
 20
15.94720472263631
 30
0.0
 11
-43.49803029162667
 21
16.02331816256842
 31
0.0
  0
LINE
  5
1BB
330
1F
100
AcDbEntity
  8
0
100
AcDbLine
 10
-43.49803029162667
 20
16.02331816256842
 30
0.0
 11
-43.95231479276774
 21
16.08949733302315
 31
0.0
  0
LINE
  5
1BC
330
1F
100
AcDbEntity
  8
0
100
AcDbLine
 10
-43.95231479276774
 20
16.08949733302315
 30
0.0
 11
-44.41744945473936
 21
16.14567271888432
 31
0.0
  0
LINE
  5
1BD
330
1F
100
AcDbEntity
  8
0
100
AcDbLine
 10
-44.41744945473936
 20
16.14567271888432
 30
0.0
 11
-44.89339183119136
 21
16.19177669392754
 31
0.0
  0
LINE
  5
1BE
330
1F
100
AcDbEntity
  8
0
100
AcDbLine
 10
-44.89339183119136
 20
16.19177669392754
 30
0.0
 11
-45.38009733232196
 21
16.22774359541506
 31
0.0
  0
LINE
  5
1BF
330
1F
100
AcDbEntity
  8
0
100
AcDbLine
 10
-45.38009733232196
 20
16.22774359541506
 30
0.0
 11
-45.87751961570171
 21
16.25350974769809
 31
0.0
  0
LINE
  5
1C0
330
1F
100
AcDbEntity
  8
0
100
AcDbLine
 10
-45.87751961570171
 20
16.25350974769809
 30
0.0
 11
-46.38304679651121
 21
16.26893520450624
 31
0.0
  0
LINE
  5
1C1
330
1F
100
AcDbEntity
  8
0
100
AcDbLine
 10
-46.38304679651121
 20
16.26893520450624
 30
0.0
 11
-60.55162978469033
 21
16.26509768282896
 31
0.0
  0
LINE
  5
1C2
330
1F
100
AcDbEntity
  8
0
100
AcDbLine
 10
-60.55162978469033
 20
16.26509768282896
 30
0.0
 11
-60.70354780630404
 21
16.24509290212697
 31
0.0
  0
LINE
  5
1C3
330
1F
100
AcDbEntity
  8
0
100
AcDbLine
 10
-60.70354780630404
 20
16.24509290212697
 30
0.0
 11
-60.86376221488874
 21
16.20956679904624
 31
0.0
  0
LINE
  5
1C4
330
1F
100
AcDbEntity
  8
0
100
AcDbLine
 10
-60.86376221488874
 20
16.20956679904624
 30
0.0
 11
-61.02026987867659
 21
16.16020981479996
 31
0.0
  0
LINE
  5
1C5
330
1F
100
AcDbEntity
  8
0
100
AcDbLine
 10
-61.02026987867659
 20
16.16020981479996
 30
0.0
 11
-61.17187925048962
 21
16.09739772124404
 31
0.0
  0
LINE
  5
1C6
330
1F
100
AcDbEntity
  8
0
100
AcDbLine
 10
-61.17187925048962
 20
16.09739772124404
 30
0.0
 11
-61.31743607554578
 21
16.02160872865328
 31
0.0
  0
LINE
  5
1C7
330
1F
100
AcDbEntity
  8
0
100
AcDbLine
 10
-61.31743607554578
 20
16.02160872865328
 30
0.0
 11
-61.45583217920306
 21
15.93341984493992
 31
0.0
  0
LINE
  5
1C8
330
1F
100
AcDbEntity
  8
0
100
AcDbLine
 10
-61.45583217920306
 20
15.93341984493992
 30
0.0
 11
-61.58601390387928
 21
15.833502482691
 31
0.0
  0
LINE
  5
1C9
330
1F
100
AcDbEntity
  8
0
100
AcDbLine
 10
-61.58601390387928
 20
15.833502482691
 30
0.0
 11
-61.70699013090847
 21
15.72261734747424
 31
0.0
  0
LINE
  5
1CA
330
1F
100
AcDbEntity
  8
0
100
AcDbLine
 10
-61.70699013090847
 20
15.72261734747424
 30
0.0
 11
-61.81783982627569
 21
15.60160864631934
 31
0.0
  0
LINE
  5
1CB
330
1F
100
AcDbEntity
  8
0
100
AcDbLine
 10
-61.81783982627569
 20
15.60160864631934
 30
0.0
 11
-61.91771905276729
 21
15.47139766047778
 31
0.0
  0
LINE
  5
1CC
330
1F
100
AcDbEntity
  8
0
100
AcDbLine
 10
-61.91771905276729
 20
15.47139766047778
 30
0.0
 11
-62.00586739515677
 21
15.33297573139043
 31
0.0
  0
LINE
  5
1CD
330
1F
100
AcDbEntity
  8
0
100
AcDbLine
 10
-62.00586739515677
 20
15.33297573139043
 30
0.0
 11
-62.08161374951154
 21
15.18739671325849
 31
0.0
  0
LINE
  5
1CE
330
1F
100
AcDbEntity
  8
0
100
AcDbLine
 10
-62.08161374951154
 20
15.18739671325849
 30
0.0
 11
-62.14438143253937
 21
15.03576894968706
 31
0.0
  0
LINE
  5
1CF
330
1F
100
AcDbEntity
  8
0
100
AcDbLine
 10
-62.14438143253937
 20
15.03576894968706
 30
0.0
 11
-62.19369257207835
 21
14.87924683548085
 31
0.0
  0
LINE
  5
1D0
330
1F
100
AcDbEntity
  8
0
100
AcDbLine
 10
-62.19369257207835
 20
14.87924683548085
 30
0.0
 11
-62.22917174530422
 21
14.71902202783378
 31
0.0
  0
LINE
  5
1D1
330
1F
100
AcDbEntity
  8
0
100
AcDbLine
 10
-62.22917174530422
 20
14.71902202783378
 30
0.0
 11
-62.25054883695388
 21
14.55631437383177
 31
0.0
  0
LINE
  5
1D2
330
1F
100
AcDbEntity
  8
0
100
AcDbLine
 10
-62.25054883695388
 20
14.55631437383177
 30
0.0
 11
-62.25813446672399
 21
14.38145047965987
 31
0.0
  0
LINE
  5
1D3
330
1F
100
AcDbEntity
  8
0
100
AcDbLine
 10
-62.25813446672399
 20
14.38145047965987
 30
0.0
 11
-62.24977185424266
 21
-14.6467408126908
 31
0.0
  0
LINE
  5
1D4
330
1F
100
AcDbEntity
  8
0
100
AcDbLine
 10
-62.24977185424266
 20
-14.6467408126908
 30
0.0
 11
-62.22977426791416
 21
-14.79863756129009
 31
0.0
  0
LINE
  5
1D5
330
1F
100
AcDbEntity
  8
0
100
AcDbLine
 10
-62.22977426791416
 20
-14.79863756129009
 30
0.0
 11
-62.19426163753202
 21
-14.9588246851422
 31
0.0
  0
LINE
  5
1D6
330
1F
100
AcDbEntity
  8
0
100
AcDbLine
 10
-62.19426163753202
 20
-14.9588246851422
 30
0.0
 11
-62.14492291567197
 21
-15.11530711894874
 31
0.0
  0
LINE
  5
1D7
330
1F
100
AcDbEntity
  8
0
100
AcDbLine
 10
-62.14492291567197
 20
-15.11530711894874
 30
0.0
 11
-62.08213359979901
 21
-15.26689393690142
 31
0.0
  0
LINE
  5
1D8
330
1F
100
AcDbEntity
  8
0
100
AcDbLine
 10
-62.08213359979901
 20
-15.26689393690142
 30
0.0
 11
-62.00637155452034
 21
-15.41243147178449
 31
0.0
  0
LINE
  5
1D9
330
1F
100
AcDbEntity
  8
0
100
AcDbLine
 10
9.272139012649383
 20
-9.046686470123204
 30
0.0
 11
9.12035337334219
 21
-8.768331659596019
 31
0.0
  0
LINE
  5
1DA
330
1F
100
AcDbEntity
  8
0
100
AcDbLine
 10
9.12035337334219
 20
-8.768331659596019
 30
0.0
 11
8.9577896128439
 21
-8.430860936000647
 31
0.0
  0
LINE
  5
1DB
330
1F
100
AcDbEntity
  8
0
100
AcDbLine
 10
8.9577896128439
 20
-8.430860936000647
 30
0.0
 11
8.790416611368338
 21
-7.566743936278401
 31
0.0
  0
LINE
  5
1DC
330
1F
100
AcDbEntity
  8
0
100
AcDbLine
 10
8.790416611368338
 20
-7.566743936278401
 30
0.0
 11
8.690715734697816
 21
-7.282379436175326
 31
0.0
  0
LINE
  5
1DD
330
1F
100
AcDbEntity
  8
0
100
AcDbLine
 10
8.690715734697816
 20
-7.282379436175326
 30
0.0
 11
8.631508470629726
 21
-7.160702579819095
 31
0.0
  0
LINE
  5
1DE
330
1F
100
AcDbEntity
  8
0
100
AcDbLine
 10
8.631508470629726
 20
-7.160702579819095
 30
0.0
 11
8.558222078794724
 21
-7.03561252967048
 31
0.0
  0
LINE
  5
1DF
330
1F
100
AcDbEntity
  8
0
100
AcDbLine
 10
8.558222078794724
 20
-7.03561252967048
 30
0.0
 11
8.475518669273832
 21
-6.916538762919262
 31
0.0
  0
LINE
  5
1E0
330
1F
100
AcDbEntity
  8
0
100
AcDbLine
 10
8.475518669273832
 20
-6.916538762919262
 30
0.0
 11
8.383889604584134
 21
-6.804188727856729
 31
0.0
  0
LINE
  5
1E1
330
1F
100
AcDbEntity
  8
0
100
AcDbLine
 10
8.383889604584134
 20
-6.804188727856729
 30
0.0
 11
8.283879276884873
 21
-6.699229925328588
 31
0.0
  0
LINE
  5
1E2
330
1F
100
AcDbEntity
  8
0
100
AcDbLine
 10
8.283879276884873
 20
-6.699229925328588
 30
0.0
 11
8.17608187360569
 21
-6.602285942943497
 31
0.0
  0
LINE
  5
1E3
330
1F
100
AcDbEntity
  8
0
100
AcDbLine
 10
8.17608187360569
 20
-6.602285942943497
 30
0.0
 11
8.061137847220072
 21
-6.513932750172187
 31
0.0
  0
LINE
  5
1E4
330
1F
100
AcDbEntity
  8
0
100
AcDbLine
 10
8.061137847220072
 20
-6.513932750172187
 30
0.0
 11
7.939730110154103
 21
-6.434695276366227
 31
0.0
  0
LINE
  5
1E5
330
1F
100
AcDbEntity
  8
0
100
AcDbLine
 10
7.939730110154103
 20
-6.434695276366227
 30
0.0
 11
7.812579977423582
 21
-6.365044292013973
 31
0.0
  0
LINE
  5
1E6
330
1F
100
AcDbEntity
  8
0
100
AcDbLine
 10
7.812579977423582
 20
-6.365044292013973
 30
0.0
 11
7.680442881114346
 21
-6.305393611770937
 31
0.0
  0
LINE
  5
1E7
330
1F
100
AcDbEntity
  8
0
100
AcDbLine
 10
7.680442881114346
 20
-6.305393611770937
 30
0.0
 11
7.544103882161924
 21
-6.256097635878636
 31
0.0
  0
LINE
  5
1E8
330
1F
100
AcDbEntity
  8
0
100
AcDbLine
 10
7.544103882161924
 20
-6.256097635878636
 30
0.0
 11
7.404373006101435
 21
-6.217449244580814
 31
0.0
  0
LINE
  5
1E9
330
1F
100
AcDbEntity
  8
0
100
AcDbLine
 10
7.404373006101435
 20
-6.217449244580814
 30
0.0
 11
7.262080430493712
 21
-6.189678058045384
 31
0.0
  0
LINE
  5
1EA
330
1F
100
AcDbEntity
  8
0
100
AcDbLine
 10
7.262080430493712
 20
-6.189678058045384
 30
0.0
 11
7.118071552625869
 21
-6.172949072131514
 31
0.0
  0
LINE
  5
1EB
330
1F
100
AcDbEntity
  8
0
100
AcDbLine
 10
7.118071552625869
 20
-6.172949072131514
 30
0.0
 11
6.963563439669699
 21
-6.166989935144314
 31
0.0
  0
LINE
  5
1EC
330
1F
100
AcDbEntity
  8
0
100
AcDbLine
 10
6.963563439669699
 20
-6.166989935144314
 30
0.0
 11
4.361948662645521
 21
-6.166989935144314
 31
0.0
  0
LINE
  5
1ED
330
1F
100
AcDbEntity
  8
0
100
AcDbLine
 10
4.361948662645521
 20
-6.166989935144314
 30
0.0
 11
4.178571043215651
 21
-6.175389538488329
 31
0.0
  0
LINE
  5
1EE
330
1F
100
AcDbEntity
  8
0
100
AcDbLine
 10
4.178571043215651
 20
-6.175389538488329
 30
0.0
 11
4.008078562015108
 21
-6.19894964814937
 31
0.0
  0
LINE
  5
1EF
330
1F
100
AcDbEntity
  8
0
100
AcDbLine
 10
4.008078562015108
 20
-6.19894964814937
 30
0.0
 11
3.840453821908714
 21
-6.237997201434133
 31
0.0
  0
LINE
  5
1F0
330
1F
100
AcDbEntity
  8
0
100
AcDbLine
 10
3.840453821908714
 20
-6.237997201434133
 30
0.0
 11
3.677100647235199
 21
-6.292205182738313
 31
0.0
  0
LINE
  5
1F1
330
1F
100
AcDbEntity
  8
0
100
AcDbLine
 10
3.677100647235199
 20
-6.292205182738313
 30
0.0
 11
3.519387088807997
 21
-6.361119610845583
 31
0.0
  0
LINE
  5
1F2
330
1F
100
AcDbEntity
  8
0
100
AcDbLine
 10
3.519387088807997
 20
-6.361119610845583
 30
0.0
 11
3.368633966761222
 21
-6.444163340930448
 31
0.0
  0
LINE
  5
1F3
330
1F
100
AcDbEntity
  8
0
100
AcDbLine
 10
3.368633966761222
 20
-6.444163340930448
 30
0.0
 11
3.226103808939308
 21
-6.540640898032816
 31
0.0
  0
LINE
  5
1F4
330
1F
100
AcDbEntity
  8
0
100
AcDbLine
 10
3.226103808939308
 20
-6.540640898032816
 30
0.0
 11
3.092990277472703
 21
-6.64974430152515
 31
0.0
  0
LINE
  5
1F5
330
1F
100
AcDbEntity
  8
0
100
AcDbLine
 10
3.092990277472703
 20
-6.64974430152515
 30
0.0
 11
2.970408172092028
 21
-6.770559831791735
 31
0.0
  0
LINE
  5
1F6
330
1F
100
AcDbEntity
  8
0
100
AcDbLine
 10
2.970408172092028
 20
-6.770559831791735
 30
0.0
 11
2.859384093899499
 21
-6.902075682450605
 31
0.0
  0
LINE
  5
1F7
330
1F
100
AcDbEntity
  8
0
100
AcDbLine
 10
2.859384093899499
 20
-6.902075682450605
 30
0.0
 11
2.760847847784186
 21
-7.04319043403564
 31
0.0
  0
LINE
  5
1F8
330
1F
100
AcDbEntity
  8
0
100
AcDbLine
 10
2.760847847784186
 20
-7.04319043403564
 30
0.0
 11
2.675624655491865
 21
-7.192722278164179
 31
0.0
  0
LINE
  5
1F9
330
1F
100
AcDbEntity
  8
0
100
AcDbLine
 10
2.675624655491865
 20
-7.192722278164179
 30
0.0
 11
2.604428244550022
 21
-7.349418914957204
 31
0.0
  0
LINE
  5
1FA
330
1F
100
AcDbEntity
  8
0
100
AcDbLine
 10
2.604428244550022
 20
-7.349418914957204
 30
0.0
 11
2.547854870943718
 21
-7.511968040798616
 31
0.0
  0
LINE
  5
1FB
330
1F
100
AcDbEntity
  8
0
100
AcDbLine
 10
2.547854870943718
 20
-7.511968040798616
 30
0.0
 11
2.506378325586078
 21
-7.679008338626291
 31
0.0
  0
LINE
  5
1FC
330
1F
100
AcDbEntity
  8
0
100
AcDbLine
 10
2.506378325586078
 20
-7.679008338626291
 30
0.0
 11
2.480345966413529
 21
-7.849140878692053
 31
0.0
  0
LINE
  5
1FD
330
1F
100
AcDbEntity
  8
0
100
AcDbLine
 10
2.480345966413529
 20
-7.849140878692053
 30
0.0
 11
2.46997580933102
 21
-8.020940834324263
 31
0.0
  0
LINE
  5
1FE
330
1F
100
AcDbEntity
  8
0
100
AcDbLine
 10
2.46997580933102
 20
-8.020940834324263
 30
0.0
 11
2.47571276588361
 21
-8.204421056619548
 31
0.0
  0
LINE
  5
1FF
330
1F
100
AcDbEntity
  8
0
100
AcDbLine
 10
2.47571276588361
 20
-8.204421056619548
 30
0.0
 11
2.59055000705016
 21
-8.744720343971334
 31
0.0
  0
LINE
  5
200
330
1F
100
AcDbEntity
  8
0
100
AcDbLine
 10
2.59055000705016
 20
-8.744720343971334
 30
0.0
 11
2.738415005181548
 21
-9.292795176477583
 31
0.0
  0
LINE
  5
201
330
1F
100
AcDbEntity
  8
0
100
AcDbLine
 10
2.738415005181548
 20
-9.292795176477583
 30
0.0
 11
2.914462906716733
 21
-9.819484018704891
 31
0.0
  0
LINE
  5
202
330
1F
100
AcDbEntity
  8
0
100
AcDbLine
 10
2.914462906716733
 20
-9.819484018704891
 30
0.0
 11
3.118643900368397
 21
-10.32517425393163
 31
0.0
  0
LINE
  5
203
330
1F
100
AcDbEntity
  8
0
100
AcDbLine
 10
3.118643900368397
 20
-10.32517425393163
 30
0.0
 11
3.351529769919065
 21
-10.81145194809886
 31
0.0
  0
LINE
  5
204
330
1F
100
AcDbEntity
  8
0
100
AcDbLine
 10
3.351529769919065
 20
-10.81145194809886
 30
0.0
 11
3.611384432616109
 21
-11.28079050884504
 31
0.0
  0
LINE
  5
205
330
1F
100
AcDbEntity
  8
0
100
AcDbLine
 10
3.611384432616109
 20
-11.28079050884504
 30
0.0
 11
3.891411034786697
 21
-11.73318969056163
 31
0.0
  0
LINE
  5
206
330
1F
100
AcDbEntity
  8
0
100
AcDbLine
 10
3.891411034786697
 20
-11.73318969056163
 30
0.0
 11
4.19020584851239
 21
-12.16622724877812
 31
0.0
  0
LINE
  5
207
330
1F
100
AcDbEntity
  8
0
100
AcDbLine
 10
4.19020584851239
 20
-12.16622724877812
 30
0.0
 11
4.507812040510162
 21
-12.5800457046637
 31
0.0
  0
LINE
  5
208
330
1F
100
AcDbEntity
  8
0
100
AcDbLine
 10
4.507812040510162
 20
-12.5800457046637
 30
0.0
 11
4.844303886362546
 21
-12.9747865297031
 31
0.0
  0
LINE
  5
209
330
1F
100
AcDbEntity
  8
0
100
AcDbLine
 10
4.844303886362546
 20
-12.9747865297031
 30
0.0
 11
5.199785891215181
 21
-13.35058283668739
 31
0.0
  0
LINE
  5
20A
330
1F
100
AcDbEntity
  8
0
100
AcDbLine
 10
5.199785891215181
 20
-13.35058283668739
 30
0.0
 11
5.574389900348367
 21
-13.70755221136565
 31
0.0
  0
LINE
  5
20B
330
1F
100
AcDbEntity
  8
0
100
AcDbLine
 10
5.574389900348367
 20
-13.70755221136565
 30
0.0
 11
5.968270351226579
 21
-14.0457903531447
 31
0.0
  0
LINE
  5
20C
330
1F
100
AcDbEntity
  8
0
100
AcDbLine
 10
5.968270351226579
 20
-14.0457903531447
 30
0.0
 11
6.381854034766987
 21
-14.36556403226403
 31
0.0
  0
LINE
  5
20D
330
1F
100
AcDbEntity
  8
0
100
AcDbLine
 10
6.381854034766987
 20
-14.36556403226403
 30
0.0
 11
6.815506955005734
 21
-14.66783406730166
 31
0.0
  0
LINE
  5
20E
330
1F
100
AcDbEntity
  8
0
100
AcDbLine
 10
6.815506955005734
 20
-14.66783406730166
 30
0.0
 11
7.265050777389786
 21
-14.95255594161246
 31
0.0
  0
LINE
  5
20F
330
1F
100
AcDbEntity
  8
0
100
AcDbLine
 10
7.265050777389786
 20
-14.95255594161246
 30
0.0
 11
7.729492560519715
 21
-15.21902770451891
 31
0.0
  0
LINE
  5
210
330
1F
100
AcDbEntity
  8
0
100
AcDbLine
 10
7.729492560519715
 20
-15.21902770451891
 30
0.0
 11
8.208863746106914
 21
-15.46724569976419
 31
0.0
  0
LINE
  5
211
330
1F
100
AcDbEntity
  8
0
100
AcDbLine
 10
8.208863746106914
 20
-15.46724569976419
 30
0.0
 11
8.703192681201598
 21
-15.69719094034116
 31
0.0
  0
LINE
  5
212
330
1F
100
AcDbEntity
  8
0
100
AcDbLine
 10
8.703192681201598
 20
-15.69719094034116
 30
0.0
 11
9.212502036764178
 21
-15.90883020816415
 31
0.0
  0
LINE
  5
213
330
1F
100
AcDbEntity
  8
0
100
AcDbLine
 10
9.212502036764178
 20
-15.90883020816415
 30
0.0
 11
9.7368066964455
 21
-16.10211761398678
 31
0.0
  0
LINE
  5
214
330
1F
100
AcDbEntity
  8
0
100
AcDbLine
 10
9.7368066964455
 20
-16.10211761398678
 30
0.0
 11
10.27611217786237
 21
-16.27699647101562
 31
0.0
  0
LINE
  5
215
330
1F
100
AcDbEntity
  8
0
100
AcDbLine
 10
10.27611217786237
 20
-16.27699647101562
 30
0.0
 11
10.83128575979222
 21
-16.43364742807321
 31
0.0
  0
LINE
  5
216
330
1F
100
AcDbEntity
  8
0
100
AcDbLine
 10
10.83128575979222
 20
-16.43364742807321
 30
0.0
 11
11.39966052913599
 21
-16.57346890404984
 31
0.0
  0
LINE
  5
217
330
1F
100
AcDbEntity
  8
0
100
AcDbLine
 10
11.39966052913599
 20
-16.57346890404984
 30
0.0
 11
11.97318242259458
 21
-16.69717853882354
 31
0.0
  0
LINE
  5
218
330
1F
100
AcDbEntity
  8
0
100
AcDbLine
 10
11.97318242259458
 20
-16.69717853882354
 30
0.0
 11
12.55065190425611
 21
-16.80446063542818
 31
0.0
  0
LINE
  5
219
330
1F
100
AcDbEntity
  8
0
100
AcDbLine
 10
12.55065190425611
 20
-16.80446063542818
 30
0.0
 11
13.13210329552003
 21
-16.8952999241442
 31
0.0
  0
LINE
  5
21A
330
1F
100
AcDbEntity
  8
0
100
AcDbLine
 10
13.13210329552003
 20
-16.8952999241442
 30
0.0
 11
13.71757088248485
 21
-16.96967810267886
 31
0.0
  0
LINE
  5
21B
330
1F
100
AcDbEntity
  8
0
100
AcDbLine
 10
13.71757088248485
 20
-16.96967810267886
 30
0.0
 11
14.30708849298838
 21
-17.02757387247657
 31
0.0
  0
LINE
  5
21C
330
1F
100
AcDbEntity
  8
0
100
AcDbLine
 10
14.30708849298838
 20
-17.02757387247657
 30
0.0
 11
14.90068909163166
 21
-17.06896303392828
 31
0.0
  0
LINE
  5
21D
330
1F
100
AcDbEntity
  8
0
100
AcDbLine
 10
14.90068909163166
 20
-17.06896303392828
 30
0.0
 11
15.49840440347325
 21
-17.09381863582318
 31
0.0
  0
LINE
  5
21E
330
1F
100
AcDbEntity
  8
0
100
AcDbLine
 10
15.49840440347325
 20
-17.09381863582318
 30
0.0
 11
16.10041398835506
 21
-17.10211323114036
 31
0.0
  0
LINE
  5
21F
330
1F
100
AcDbEntity
  8
0
100
AcDbLine
 10
16.10041398835506
 20
-17.10211323114036
 30
0.0
 11
16.83927819108168
 21
-17.09243278558187
 31
0.0
  0
LINE
  5
220
330
1F
100
AcDbEntity
  8
0
100
AcDbLine
 10
16.83927819108168
 20
-17.09243278558187
 30
0.0
 11
17.55788477693181
 21
-17.06341031757318
 31
0.0
  0
LINE
  5
221
330
1F
100
AcDbEntity
  8
0
100
AcDbLine
 10
17.55788477693181
 20
-17.06341031757318
 30
0.0
 11
18.25587206286713
 21
-17.01509137054574
 31
0.0
  0
LINE
  5
222
330
1F
100
AcDbEntity
  8
0
100
AcDbLine
 10
18.25587206286713
 20
-17.01509137054574
 30
0.0
 11
18.93313810401967
 21
-16.94752566329055
 31
0.0
  0
LINE
  5
223
330
1F
100
AcDbEntity
  8
0
100
AcDbLine
 10
18.93313810401967
 20
-16.94752566329055
 30
0.0
 11
19.58958750253129
 21
-16.86077058026188
 31
0.0
  0
LINE
  5
224
330
1F
100
AcDbEntity
  8
0
100
AcDbLine
 10
19.58958750253129
 20
-16.86077058026188
 30
0.0
 11
20.22513358500543
 21
-16.75489101557208
 31
0.0
  0
LINE
  5
225
330
1F
100
AcDbEntity
  8
0
100
AcDbLine
 10
20.22513358500543
 20
-16.75489101557208
 30
0.0
 11
20.83970089618347
 21
-16.62995879375722
 31
0.0
  0
LINE
  5
226
330
1F
100
AcDbEntity
  8
0
100
AcDbLine
 10
20.83970089618347
 20
-16.62995879375722
 30
0.0
 11
21.43322795591999
 21
-16.48605153301796
 31
0.0
  0
LINE
  5
227
330
1F
100
AcDbEntity
  8
0
100
AcDbLine
 10
21.43322795591999
 20
-16.48605153301796
 30
0.0
 11
22.00628390882702
 21
-16.32307626603055
 31
0.0
  0
LINE
  5
228
330
1F
100
AcDbEntity
  8
0
100
AcDbLine
 10
22.00628390882702
 20
-16.32307626603055
 30
0.0
 11
22.55796248354941
 21
-16.14290988012912
 31
0.0
  0
LINE
  5
229
330
1F
100
AcDbEntity
  8
0
100
AcDbLine
 10
22.55796248354941
 20
-16.14290988012912
 30
0.0
 11
23.08912400201156
 21
-15.9477865492358
 31
0.0
  0
LINE
  5
22A
330
1F
100
AcDbEntity
  8
0
100
AcDbLine
 10
23.08912400201156
 20
-15.9477865492358
 30
0.0
 11
23.59885269654575
 21
-15.73805634373711
 31
0.0
  0
LINE
  5
22B
330
1F
100
AcDbEntity
  8
0
100
AcDbLine
 10
23.59885269654575
 20
-15.73805634373711
 30
0.0
 11
24.08721613319693
 21
-15.51375317168017
 31
0.0
  0
LINE
  5
22C
330
1F
100
AcDbEntity
  8
0
100
AcDbLine
 10
24.08721613319693
 20
-15.51375317168017
 30
0.0
 11
24.55430399715691
 21
-15.27490540459238
 31
0.0
  0
LINE
  5
22D
330
1F
100
AcDbEntity
  8
0
100
AcDbLine
 10
24.55430399715691
 20
-15.27490540459238
 30
0.0
 11
25.00022941774251
 21
-15.02153107515666
 31
0.0
  0
LINE
  5
22E
330
1F
100
AcDbEntity
  8
0
100
AcDbLine
 10
25.00022941774251
 20
-15.02153107515666
 30
0.0
 11
25.42512915712748
 21
-14.75363240102943
 31
0.0
  0
LINE
  5
22F
330
1F
100
AcDbEntity
  8
0
100
AcDbLine
 10
25.42512915712748
 20
-14.75363240102943
 30
0.0
 11
25.82916229660268
 21
-14.4711899458729
 31
0.0
  0
LINE
  5
230
330
1F
100
AcDbEntity
  8
0
100
AcDbLine
 10
25.82916229660268
 20
-14.4711899458729
 30
0.0
 11
26.21328088219359
 21
-14.17355734917774
 31
0.0
  0
LINE
  5
231
330
1F
100
AcDbEntity
  8
0
100
AcDbLine
 10
26.21328088219359
 20
-14.17355734917774
 30
0.0
 11
26.57692450706086
 21
-13.8636366230938
 31
0.0
  0
LINE
  5
232
330
1F
100
AcDbEntity
  8
0
100
AcDbLine
 10
26.57692450706086
 20
-13.8636366230938
 30
0.0
 11
26.91913691351262
 21
-13.54172730678327
 31
0.0
  0
LINE
  5
233
330
1F
100
AcDbEntity
  8
0
100
AcDbLine
 10
26.91913691351262
 20
-13.54172730678327
 30
0.0
 11
27.24028156283266
 21
-13.20763292837412
 31
0.0
  0
LINE
  5
234
330
1F
100
AcDbEntity
  8
0
100
AcDbLine
 10
27.24028156283266
 20
-13.20763292837412
 30
0.0
 11
27.54054093007677
 21
-12.86127947171797
 31
0.0
  0
LINE
  5
235
330
1F
100
AcDbEntity
  8
0
100
AcDbLine
 10
27.54054093007677
 20
-12.86127947171797
 30
0.0
 11
27.82009238272054
 21
-12.50255841389708
 31
0.0
  0
LINE
  5
236
330
1F
100
AcDbEntity
  8
0
100
AcDbLine
 10
27.82009238272054
 20
-12.50255841389708
 30
0.0
 11
28.0791000421129
 21
-12.13132854557311
 31
0.0
  0
LINE
  5
237
330
1F
100
AcDbEntity
  8
0
100
AcDbLine
 10
28.0791000421129
 20
-12.13132854557311
 30
0.0
 11
28.31770699581228
 21
-11.74742017717505
 31
0.0
  0
LINE
  5
238
330
1F
100
AcDbEntity
  8
0
100
AcDbLine
 10
28.31770699581228
 20
-11.74742017717505
 30
0.0
 11
28.53602865846049
 21
-11.35064149345656
 31
0.0
  0
LINE
  5
239
330
1F
100
AcDbEntity
  8
0
100
AcDbLine
 10
28.53602865846049
 20
-11.35064149345656
 30
0.0
 11
28.73441160484813
 21
-10.94024112470944
 31
0.0
  0
LINE
  5
23A
330
1F
100
AcDbEntity
  8
0
100
AcDbLine
 10
28.73441160484813
 20
-10.94024112470944
 30
0.0
 11
28.91261019208136
 21
-10.51939744703266
 31
0.0
  0
LINE
  5
23B
330
1F
100
AcDbEntity
  8
0
100
AcDbLine
 10
28.91261019208136
 20
-10.51939744703266
 30
0.0
 11
29.07008269930616
 21
-10.09053609566222
 31
0.0
  0
LINE
  5
23C
330
1F
100
AcDbEntity
  8
0
100
AcDbLine
 10
29.07008269930616
 20
-10.09053609566222
 30
0.0
 11
29.20671372064397
 21
-9.653814861750632
 31
0.0
  0
LINE
  5
23D
330
1F
100
AcDbEntity
  8
0
100
AcDbLine
 10
29.20671372064397
 20
-9.653814861750632
 30
0.0
 11
29.32249795895733
 21
-9.209068742829274
 31
0.0
  0
LINE
  5
23E
330
1F
100
AcDbEntity
  8
0
100
AcDbLine
 10
29.32249795895733
 20
-9.209068742829274
 30
0.0
 11
29.41740550229203
 21
-8.75613170447392
 31
0.0
  0
LINE
  5
23F
330
1F
100
AcDbEntity
  8
0
100
AcDbLine
 10
29.41740550229203
 20
-8.75613170447392
 30
0.0
 11
29.49138230440598
 21
-8.294842356005558
 31
0.0
  0
LINE
  5
240
330
1F
100
AcDbEntity
  8
0
100
AcDbLine
 10
29.49138230440598
 20
-8.294842356005558
 30
0.0
 11
29.54435196062643
 21
-7.825049086757234
 31
0.0
  0
LINE
  5
241
330
1F
100
AcDbEntity
  8
0
100
AcDbLine
 10
29.54435196062643
 20
-7.825049086757234
 30
0.0
 11
29.57621853891917
 21
-7.346614314822959
 31
0.0
  0
LINE
  5
242
330
1F
100
AcDbEntity
  8
0
100
AcDbLine
 10
29.57621853891917
 20
-7.346614314822959
 30
0.0
 11
29.58685666908909
 21
-6.860033913620684
 31
0.0
  0
LINE
  5
243
330
1F
100
AcDbEntity
  8
0
100
AcDbLine
 10
29.58685666908909
 20
-6.860033913620684
 30
0.0
 11
29.57265208151149
 21
-6.268426245372328
 31
0.0
  0
LINE
  5
244
330
1F
100
AcDbEntity
  8
0
100
AcDbLine
 10
29.57265208151149
 20
-6.268426245372328
 30
0.0
 11
29.53027840018999
 21
-5.704043124414878
 31
0.0
  0
LINE
  5
245
330
1F
100
AcDbEntity
  8
0
100
AcDbLine
 10
29.53027840018999
 20
-5.704043124414878
 30
0.0
 11
29.46004934187344
 21
-5.166563707498709
 31
0.0
  0
LINE
  5
246
330
1F
100
AcDbEntity
  8
0
100
AcDbLine
 10
29.46004934187344
 20
-5.166563707498709
 30
0.0
 11
29.36231207137397
 21
-4.655888500006316
 31
0.0
  0
LINE
  5
247
330
1F
100
AcDbEntity
  8
0
100
AcDbLine
 10
29.36231207137397
 20
-4.655888500006316
 30
0.0
 11
29.23742073770441
 21
-4.171814905092948
 31
0.0
  0
LINE
  5
248
330
1F
100
AcDbEntity
  8
0
100
AcDbLine
 10
29.23742073770441
 20
-4.171814905092948
 30
0.0
 11
29.0857070906907
 21
-3.714019263911322
 31
0.0
  0
LINE
  5
249
330
1F
100
AcDbEntity
  8
0
100
AcDbLine
 10
29.0857070906907
 20
-3.714019263911322
 30
0.0
 11
28.90744161393195
 21
-3.28204884203622
 31
0.0
  0
LINE
  5
24A
330
1F
100
AcDbEntity
  8
0
100
AcDbLine
 10
28.90744161393195
 20
-3.28204884203622
 30
0.0
 11
28.70278916007686
 21
-2.875330138837365
 31
0.0
  0
LINE
  5
24B
330
1F
100
AcDbEntity
  8
0
100
AcDbLine
 10
28.70278916007686
 20
-2.875330138837365
 30
0.0
 11
28.46961147850913
 21
-2.48963293257548
 31
0.0
  0
LINE
  5
24C
330
1F
100
AcDbEntity
  8
0
100
AcDbLine
 10
28.46961147850913
 20
-2.48963293257548
 30
0.0
 11
28.21124377454977
 21
-2.117326439205371
 31
0.0
  0
LINE
  5
24D
330
1F
100
AcDbEntity
  8
0
100
AcDbLine
 10
28.21124377454977
 20
-2.117326439205371
 30
0.0
 11
27.93986681556277
 21
-1.758082368324758
 31
0.0
  0
LINE
  5
24E
330
1F
100
AcDbEntity
  8
0
100
AcDbLine
 10
27.93986681556277
 20
-1.758082368324758
 30
0.0
 11
27.65887662353407
 21
-1.416755666439693
 31
0.0
  0
LINE
  5
24F
330
1F
100
AcDbEntity
  8
0
100
AcDbLine
 10
27.65887662353407
 20
-1.416755666439693
 30
0.0
 11
27.36820422328076
 21
-1.09322087968145
 31
0.0
  0
LINE
  5
250
330
1F
100
AcDbEntity
  8
0
100
AcDbLine
 10
27.36820422328076
 20
-1.09322087968145
 30
0.0
 11
27.06775943821641
 21
-0.7873420796461822
 31
0.0
  0
LINE
  5
251
330
1F
100
AcDbEntity
  8
0
100
AcDbLine
 10
27.06775943821641
 20
-0.7873420796461822
 30
0.0
 11
26.75742823013554
 21
-0.4989766222574261
 31
0.0
  0
LINE
  5
252
330
1F
100
AcDbEntity
  8
0
100
AcDbLine
 10
26.75742823013554
 20
-0.4989766222574261
 30
0.0
 11
26.4370710293012
 21
-0.2279798584766581
 31
0.0
  0
LINE
  5
253
330
1F
100
AcDbEntity
  8
0
100
AcDbLine
 10
26.4370710293012
 20
-0.2279798584766581
 30
0.0
 11
26.10652237110589
 21
0.0257894596807251
 31
0.0
  0
LINE
  5
254
330
1F
100
AcDbEntity
  8
0
100
AcDbLine
 10
26.10652237110589
 20
0.0257894596807251
 30
0.0
 11
25.76387808536137
 21
0.2636533012564232
 31
0.0
  0
LINE
  5
255
330
1F
100
AcDbEntity
  8
0
100
AcDbLine
 10
25.76387808536137
 20
0.2636533012564232
 30
0.0
 11
25.41193136851448
 21
0.4877176883899622
 31
0.0
  0
LINE
  5
256
330
1F
100
AcDbEntity
  8
0
100
AcDbLine
 10
25.41193136851448
 20
0.4877176883899622
 30
0.0
 11
25.0577846586327
 21
0.6988676931903768
 31
0.0
  0
LINE
  5
257
330
1F
100
AcDbEntity
  8
0
100
AcDbLine
 10
25.0577846586327
 20
0.6988676931903768
 30
0.0
 11
24.703853379472
 21
0.8956094638705252
 31
0.0
  0
LINE
  5
258
330
1F
100
AcDbEntity
  8
0
100
AcDbLine
 10
24.703853379472
 20
0.8956094638705252
 30
0.0
 11
24.35009658155596
 21
1.0780126425867
 31
0.0
  0
LINE
  5
259
330
1F
100
AcDbEntity
  8
0
100
AcDbLine
 10
24.35009658155596
 20
1.0780126425867
 30
0.0
 11
23.99646612425369
 21
1.246149918964929
 31
0.0
  0
LINE
  5
25A
330
1F
100
AcDbEntity
  8
0
100
AcDbLine
 10
23.99646612425369
 20
1.246149918964929
 30
0.0
 11
23.64290582396957
 21
1.400096216859556
 31
0.0
  0
LINE
  5
25B
330
1F
100
AcDbEntity
  8
0
100
AcDbLine
 10
23.64290582396957
 20
1.400096216859556
 30
0.0
 11
23.28935073601521
 21
1.539927668029725
 31
0.0
  0
LINE
  5
25C
330
1F
100
AcDbEntity
  8
0
100
AcDbLine
 10
23.28935073601521
 20
1.539927668029725
 30
0.0
 11
22.93572663212467
 21
1.665720386242204
 31
0.0
  0
LINE
  5
25D
330
1F
100
AcDbEntity
  8
0
100
AcDbLine
 10
22.93572663212467
 20
1.665720386242204
 30
0.0
 11
22.578211039507
 21
1.778730872196471
 31
0.0
  0
LINE
  5
25E
330
1F
100
AcDbEntity
  8
0
100
AcDbLine
 10
22.578211039507
 20
1.778730872196471
 30
0.0
 11
22.22239231977611
 21
1.88319728795369
 31
0.0
  0
LINE
  5
25F
330
1F
100
AcDbEntity
  8
0
100
AcDbLine
 10
22.22239231977611
 20
1.88319728795369
 30
0.0
 11
21.88142599856705
 21
1.981155849010122
 31
0.0
  0
LINE
  5
260
330
1F
100
AcDbEntity
  8
0
100
AcDbLine
 10
21.88142599856705
 20
1.981155849010122
 30
0.0
 11
21.55903415813221
 21
2.071491444310574
 31
0.0
  0
LINE
  5
261
330
1F
100
AcDbEntity
  8
0
100
AcDbLine
 10
21.55903415813221
 20
2.071491444310574
 30
0.0
 11
21.25525285312292
 21
2.154174276592217
 31
0.0
  0
LINE
  5
262
330
1F
100
AcDbEntity
  8
0
100
AcDbLine
 10
21.25525285312292
 20
2.154174276592217
 30
0.0
 11
20.97013847329014
 21
2.229173135867616
 31
0.0
  0
LINE
  5
263
330
1F
100
AcDbEntity
  8
0
100
AcDbLine
 10
20.97013847329014
 20
2.229173135867616
 30
0.0
 11
20.70377489579792
 21
2.296455530937129
 31
0.0
  0
LINE
  5
264
330
1F
100
AcDbEntity
  8
0
100
AcDbLine
 10
20.70377489579792
 20
2.296455530937129
 30
0.0
 11
20.45628383000566
 21
2.355988189402362
 31
0.0
  0
LINE
  5
265
330
1F
100
AcDbEntity
  8
0
100
AcDbLine
 10
20.45628383000566
 20
2.355988189402362
 30
0.0
 11
20.22784011220038
 21
2.407738324700882
 31
0.0
  0
LINE
  5
266
330
1F
100
AcDbEntity
  8
0
100
AcDbLine
 10
20.22784011220038
 20
2.407738324700882
 30
0.0
 11
20.00402642474049
 21
2.454758103063464
 31
0.0
  0
LINE
  5
267
330
1F
100
AcDbEntity
  8
0
100
AcDbLine
 10
20.00402642474049
 20
2.454758103063464
 30
0.0
 11
19.30726728032542
 21
2.631365800584854
 31
0.0
  0
LINE
  5
268
330
1F
100
AcDbEntity
  8
0
100
AcDbLine
 10
19.30726728032542
 20
2.631365800584854
 30
0.0
 11
18.65010331517438
 21
2.798710142337506
 31
0.0
  0
LINE
  5
269
330
1F
100
AcDbEntity
  8
0
100
AcDbLine
 10
18.65010331517438
 20
2.798710142337506
 30
0.0
 11
18.02277371070128
 21
2.959219812042105
 31
0.0
  0
LINE
  5
26A
330
1F
100
AcDbEntity
  8
0
100
AcDbLine
 10
18.02277371070128
 20
2.959219812042105
 30
0.0
 11
17.42523539028313
 21
3.112860350898258
 31
0.0
  0
LINE
  5
26B
330
1F
100
AcDbEntity
  8
0
100
AcDbLine
 10
17.42523539028313
 20
3.112860350898258
 30
0.0
 11
16.85744468447731
 21
3.259597470969015
 31
0.0
  0
LINE
  5
26C
330
1F
100
AcDbEntity
  8
0
100
AcDbLine
 10
16.85744468447731
 20
3.259597470969015
 30
0.0
 11
16.31935716448711
 21
3.399397104157002
 31
0.0
  0
LINE
  5
26D
330
1F
100
AcDbEntity
  8
0
100
AcDbLine
 10
16.31935716448711
 20
3.399397104157002
 30
0.0
 11
15.81092741683591
 21
3.532225468864234
 31
0.0
  0
LINE
  5
26E
330
1F
100
AcDbEntity
  8
0
100
AcDbLine
 10
15.81092741683591
 20
3.532225468864234
 30
0.0
 11
15.33210873199696
 21
3.658049162656083
 31
0.0
  0
LINE
  5
26F
330
1F
100
AcDbEntity
  8
0
100
AcDbLine
 10
15.33210873199696
 20
3.658049162656083
 30
0.0
 11
14.88156510746275
 21
3.777175732169523
 31
0.0
  0
LINE
  5
270
330
1F
100
AcDbEntity
  8
0
100
AcDbLine
 10
14.88156510746275
 20
3.777175732169523
 30
0.0
 11
14.45339455015967
 21
3.893580814548635
 31
0.0
  0
LINE
  5
271
330
1F
100
AcDbEntity
  8
0
100
AcDbLine
 10
14.45339455015967
 20
3.893580814548635
 30
0.0
 11
14.04423773019651
 21
4.010709282191979
 31
0.0
  0
LINE
  5
272
330
1F
100
AcDbEntity
  8
0
100
AcDbLine
 10
14.04423773019651
 20
4.010709282191979
 30
0.0
 11
13.6553304390893
 21
4.128230663259452
 31
0.0
  0
LINE
  5
273
330
1F
100
AcDbEntity
  8
0
100
AcDbLine
 10
13.6553304390893
 20
4.128230663259452
 30
0.0
 11
13.2866185063432
 21
4.246174812941998
 31
0.0
  0
LINE
  5
274
330
1F
100
AcDbEntity
  8
0
100
AcDbLine
 10
13.2866185063432
 20
4.246174812941998
 30
0.0
 11
12.93802904568529
 21
4.364589933302726
 31
0.0
  0
LINE
  5
275
330
1F
100
AcDbEntity
  8
0
100
AcDbLine
 10
12.93802904568529
 20
4.364589933302726
 30
0.0
 11
12.60946621935058
 21
4.483548930292801
 31
0.0
  0
LINE
  5
276
330
1F
100
AcDbEntity
  8
0
100
AcDbLine
 10
12.60946621935058
 20
4.483548930292801
 30
0.0
 11
12.30080609584424
 21
4.603158370601034
 31
0.0
  0
LINE
  5
277
330
1F
100
AcDbEntity
  8
0
100
AcDbLine
 10
12.30080609584424
 20
4.603158370601034
 30
0.0
 11
12.01189058231889
 21
4.723571240789183
 31
0.0
  0
LINE
  5
278
330
1F
100
AcDbEntity
  8
0
100
AcDbLine
 10
12.01189058231889
 20
4.723571240789183
 30
0.0
 11
11.74227617631326
 21
4.845115517661211
 31
0.0
  0
LINE
  5
279
330
1F
100
AcDbEntity
  8
0
100
AcDbLine
 10
11.74227617631326
 20
4.845115517661211
 30
0.0
 11
11.48973800920585
 21
4.969427403085319
 31
0.0
  0
LINE
  5
27A
330
1F
100
AcDbEntity
  8
0
100
AcDbLine
 10
11.48973800920585
 20
4.969427403085319
 30
0.0
 11
11.25272667791667
 21
5.098057779312159
 31
0.0
  0
LINE
  5
27B
330
1F
100
AcDbEntity
  8
0
100
AcDbLine
 10
11.25272667791667
 20
5.098057779312159
 30
0.0
 11
11.03152148822135
 21
5.231291914484581
 31
0.0
  0
LINE
  5
27C
330
1F
100
AcDbEntity
  8
0
100
AcDbLine
 10
11.03152148822135
 20
5.231291914484581
 30
0.0
 11
10.82609681101975
 21
5.369696922677945
 31
0.0
  0
LINE
  5
27D
330
1F
100
AcDbEntity
  8
0
100
AcDbLine
 10
10.82609681101975
 20
5.369696922677945
 30
0.0
 11
10.63651097283242
 21
5.513966023817099
 31
0.0
  0
LINE
  5
27E
330
1F
100
AcDbEntity
  8
0
100
AcDbLine
 10
10.63651097283242
 20
5.513966023817099
 30
0.0
 11
10.46297243251678
 21
5.664918871801909
 31
0.0
  0
LINE
  5
27F
330
1F
100
AcDbEntity
  8
0
100
AcDbLine
 10
10.46297243251678
 20
5.664918871801909
 30
0.0
 11
10.3059320408627
 21
5.823470410216277
 31
0.0
  0
LINE
  5
280
330
1F
100
AcDbEntity
  8
0
100
AcDbLine
 10
10.3059320408627
 20
5.823470410216277
 30
0.0
 11
10.16619467216711
 21
5.990542098559779
 31
0.0
  0
LINE
  5
281
330
1F
100
AcDbEntity
  8
0
100
AcDbLine
 10
10.16619467216711
 20
5.990542098559779
 30
0.0
 11
10.047299142305
 21
6.163571513402488
 31
0.0
  0
LINE
  5
282
330
1F
100
AcDbEntity
  8
0
100
AcDbLine
 10
10.047299142305
 20
6.163571513402488
 30
0.0
 11
9.947758668907422
 21
6.340236323817803
 31
0.0
  0
LINE
  5
283
330
1F
100
AcDbEntity
  8
0
100
AcDbLine
 10
9.947758668907422
 20
6.340236323817803
 30
0.0
 11
9.862190909620665
 21
6.524381237293807
 31
0.0
  0
LINE
  5
284
330
1F
100
AcDbEntity
  8
0
100
AcDbLine
 10
9.862190909620665
 20
6.524381237293807
 30
0.0
 11
9.789437456568107
 21
6.716867232013076
 31
0.0
  0
LINE
  5
285
330
1F
100
AcDbEntity
  8
0
100
AcDbLine
 10
9.789437456568107
 20
6.716867232013076
 30
0.0
 11
9.729084335511207
 21
6.9172040284412
 31
0.0
  0
LINE
  5
286
330
1F
100
AcDbEntity
  8
0
100
AcDbLine
 10
9.729084335511207
 20
6.9172040284412
 30
0.0
 11
9.680666059928713
 21
7.125066991996735
 31
0.0
  0
LINE
  5
287
330
1F
100
AcDbEntity
  8
0
100
AcDbLine
 10
9.680666059928713
 20
7.125066991996735
 30
0.0
 11
9.64371297786945
 21
7.340274975152284
 31
0.0
  0
LINE
  5
288
330
1F
100
AcDbEntity
  8
0
100
AcDbLine
 10
9.64371297786945
 20
7.340274975152284
 30
0.0
 11
9.617782708179433
 21
7.562759853810804
 31
0.0
  0
LINE
  5
289
330
1F
100
AcDbEntity
  8
0
100
AcDbLine
 10
9.617782708179433
 20
7.562759853810804
 30
0.0
 11
9.602477396516166
 21
7.792535417851045
 31
0.0
  0
LINE
  5
28A
330
1F
100
AcDbEntity
  8
0
100
AcDbLine
 10
9.602477396516166
 20
7.792535417851045
 30
0.0
 11
9.597426545327803
 21
8.030792871661715
 31
0.0
  0
LINE
  5
28B
330
1F
100
AcDbEntity
  8
0
100
AcDbLine
 10
9.597426545327803
 20
8.030792871661715
 30
0.0
 11
9.60387582112979
 21
8.291347019148713
 31
0.0
  0
LINE
  5
28C
330
1F
100
AcDbEntity
  8
0
100
AcDbLine
 10
9.60387582112979
 20
8.291347019148713
 30
0.0
 11
9.623454309557584
 21
8.545075743534934
 31
0.0
  0
LINE
  5
28D
330
1F
100
AcDbEntity
  8
0
100
AcDbLine
 10
9.623454309557584
 20
8.545075743534934
 30
0.0
 11
9.656401890074475
 21
8.791263619456856
 31
0.0
  0
LINE
  5
28E
330
1F
100
AcDbEntity
  8
0
100
AcDbLine
 10
9.656401890074475
 20
8.791263619456856
 30
0.0
 11
9.702987674439298
 21
9.029783080555621
 31
0.0
  0
LINE
  5
28F
330
1F
100
AcDbEntity
  8
0
100
AcDbLine
 10
9.702987674439298
 20
9.029783080555621
 30
0.0
 11
9.763472810059584
 21
9.26040959162074
 31
0.0
  0
LINE
  5
290
330
1F
100
AcDbEntity
  8
0
100
AcDbLine
 10
9.763472810059584
 20
9.26040959162074
 30
0.0
 11
9.838082187706016
 21
9.48281166749916
 31
0.0
  0
LINE
  5
291
330
1F
100
AcDbEntity
  8
0
100
AcDbLine
 10
9.838082187706016
 20
9.48281166749916
 30
0.0
 11
9.926970431938816
 21
9.696551486360379
 31
0.0
  0
LINE
  5
292
330
1F
100
AcDbEntity
  8
0
100
AcDbLine
 10
9.926970431938816
 20
9.696551486360379
 30
0.0
 11
10.03018670313261
 21
9.901100200262823
 31
0.0
  0
LINE
  5
293
330
1F
100
AcDbEntity
  8
0
100
AcDbLine
 10
10.03018670313261
 20
9.901100200262823
 30
0.0
 11
10.14596220945129
 21
10.09307900706568
 31
0.0
  0
LINE
  5
294
330
1F
100
AcDbEntity
  8
0
100
AcDbLine
 10
10.14596220945129
 20
10.09307900706568
 30
0.0
 11
10.2684592352209
 21
10.26971198099352
 31
0.0
  0
LINE
  5
295
330
1F
100
AcDbEntity
  8
0
100
AcDbLine
 10
10.2684592352209
 20
10.26971198099352
 30
0.0
 11
10.39603420215679
 21
10.43645240644926
 31
0.0
  0
LINE
  5
296
330
1F
100
AcDbEntity
  8
0
100
AcDbLine
 10
10.39603420215679
 20
10.43645240644926
 30
0.0
 11
10.53108771348797
 21
10.59676171311519
 31
0.0
  0
LINE
  5
297
330
1F
100
AcDbEntity
  8
0
100
AcDbLine
 10
10.53108771348797
 20
10.59676171311519
 30
0.0
 11
10.67351894810769
 21
10.75053463009523
 31
0.0
  0
LINE
  5
298
330
1F
100
AcDbEntity
  8
0
100
AcDbLine
 10
10.67351894810769
 20
10.75053463009523
 30
0.0
 11
10.82321093902668
 21
10.89768218326375
 31
0.0
  0
LINE
  5
299
330
1F
100
AcDbEntity
  8
0
100
AcDbLine
 10
10.82321093902668
 20
10.89768218326375
 30
0.0
 11
10.98003485751035
 21
11.03813503624933
 31
0.0
  0
LINE
  5
29A
330
1F
100
AcDbEntity
  8
0
100
AcDbLine
 10
10.98003485751035
 20
11.03813503624933
 30
0.0
 11
11.1438548249037
 21
11.17184564985764
 31
0.0
  0
LINE
  5
29B
330
1F
100
AcDbEntity
  8
0
100
AcDbLine
 10
11.1438548249037
 20
11.17184564985764
 30
0.0
 11
11.31453285710658
 21
11.29878916113543
 31
0.0
  0
LINE
  5
29C
330
1F
100
AcDbEntity
  8
0
100
AcDbLine
 10
11.31453285710658
 20
11.29878916113543
 30
0.0
 11
11.49154303024356
 21
11.4186984703372
 31
0.0
  0
LINE
  5
29D
330
1F
100
AcDbEntity
  8
0
100
AcDbLine
 10
11.49154303024356
 20
11.4186984703372
 30
0.0
 11
11.67221102259928
 21
11.53054103148652
 31
0.0
  0
LINE
  5
29E
330
1F
100
AcDbEntity
  8
0
100
AcDbLine
 10
11.67221102259928
 20
11.53054103148652
 30
0.0
 11
11.85755924209013
 21
11.6347799607112
 31
0.0
  0
LINE
  5
29F
330
1F
100
AcDbEntity
  8
0
100
AcDbLine
 10
11.85755924209013
 20
11.6347799607112
 30
0.0
 11
12.0473395084574
 21
11.73127917011432
 31
0.0
  0
LINE
  5
2A0
330
1F
100
AcDbEntity
  8
0
100
AcDbLine
 10
12.0473395084574
 20
11.73127917011432
 30
0.0
 11
12.24147320527079
 21
11.82002635479101
 31
0.0
  0
LINE
  5
2A1
330
1F
100
AcDbEntity
  8
0
100
AcDbLine
 10
12.24147320527079
 20
11.82002635479101
 30
0.0
 11
12.43988043007151
 21
11.90102571346976
 31
0.0
  0
LINE
  5
2A2
330
1F
100
AcDbEntity
  8
0
100
AcDbLine
 10
12.43988043007151
 20
11.90102571346976
 30
0.0
 11
12.64248350999326
 21
11.97429783884346
 31
0.0
  0
LINE
  5
2A3
330
1F
100
AcDbEntity
  8
0
100
AcDbLine
 10
12.64248350999326
 20
11.97429783884346
 30
0.0
 11
12.84921021278572
 21
12.03987885065607
 31
0.0
  0
LINE
  5
2A4
330
1F
100
AcDbEntity
  8
0
100
AcDbLine
 10
12.84921021278572
 20
12.03987885065607
 30
0.0
 11
13.05999647026512
 21
12.09781889532549
 31
0.0
  0
LINE
  5
2A5
330
1F
100
AcDbEntity
  8
0
100
AcDbLine
 10
13.05999647026512
 20
12.09781889532549
 30
0.0
 11
13.27455416967833
 21
12.14812523680552
 31
0.0
  0
LINE
  5
2A6
330
1F
100
AcDbEntity
  8
0
100
AcDbLine
 10
13.27455416967833
 20
12.14812523680552
 30
0.0
 11
13.48602779770425
 21
12.18976456354569
 31
0.0
  0
LINE
  5
2A7
330
1F
100
AcDbEntity
  8
0
100
AcDbLine
 10
13.48602779770425
 20
12.18976456354569
 30
0.0
 11
13.69445372660713
 21
12.22608728060959
 31
0.0
  0
LINE
  5
2A8
330
1F
100
AcDbEntity
  8
0
100
AcDbLine
 10
13.69445372660713
 20
12.22608728060959
 30
0.0
 11
13.90324823488831
 21
12.25773230237042
 31
0.0
  0
LINE
  5
2A9
330
1F
100
AcDbEntity
  8
0
100
AcDbLine
 10
13.90324823488831
 20
12.25773230237042
 30
0.0
 11
14.11232977646269
 21
12.28464944766914
 31
0.0
  0
LINE
  5
2AA
330
1F
100
AcDbEntity
  8
0
100
AcDbLine
 10
14.11232977646269
 20
12.28464944766914
 30
0.0
 11
14.3216161803235
 21
12.3067880776213
 31
0.0
  0
LINE
  5
2AB
330
1F
100
AcDbEntity
  8
0
100
AcDbLine
 10
14.3216161803235
 20
12.3067880776213
 30
0.0
 11
14.53102457694985
 21
12.32409712523306
 31
0.0
  0
LINE
  5
2AC
330
1F
100
AcDbEntity
  8
0
100
AcDbLine
 10
14.53102457694985
 20
12.32409712523306
 30
0.0
 11
14.7404713228325
 21
12.33652513301403
 31
0.0
  0
LINE
  5
2AD
330
1F
100
AcDbEntity
  8
0
100
AcDbLine
 10
14.7404713228325
 20
12.33652513301403
 30
0.0
 11
14.94987192389446
 21
12.34402029935084
 31
0.0
  0
LINE
  5
2AE
330
1F
100
AcDbEntity
  8
0
100
AcDbLine
 10
14.94987192389446
 20
12.34402029935084
 30
0.0
 11
15.15856690055688
 21
12.34652364838372
 31
0.0
  0
LINE
  5
2AF
330
1F
100
AcDbEntity
  8
0
100
AcDbLine
 10
15.15856690055688
 20
12.34652364838372
 30
0.0
 11
15.46857678564947
 21
12.34348814756979
 31
0.0
  0
LINE
  5
2B0
330
1F
100
AcDbEntity
  8
0
100
AcDbLine
 10
15.46857678564947
 20
12.34348814756979
 30
0.0
 11
15.77293761207657
 21
12.33438978220343
 31
0.0
  0
LINE
  5
2B1
330
1F
100
AcDbEntity
  8
0
100
AcDbLine
 10
15.77293761207657
 20
12.33438978220343
 30
0.0
 11
16.07231844656805
 21
12.3192108412811
 31
0.0
  0
LINE
  5
2B2
330
1F
100
AcDbEntity
  8
0
100
AcDbLine
 10
16.07231844656805
 20
12.3192108412811
 30
0.0
 11
16.3667933847101
 21
12.2979389036341
 31
0.0
  0
LINE
  5
2B3
330
1F
100
AcDbEntity
  8
0
100
AcDbLine
 10
16.3667933847101
 20
12.2979389036341
 30
0.0
 11
16.65643368407141
 21
12.27056127550702
 31
0.0
  0
LINE
  5
2B4
330
1F
100
AcDbEntity
  8
0
100
AcDbLine
 10
16.65643368407141
 20
12.27056127550702
 30
0.0
 11
16.94130753497572
 21
12.23706527545538
 31
0.0
  0
LINE
  5
2B5
330
1F
100
AcDbEntity
  8
0
100
AcDbLine
 10
16.94130753497572
 20
12.23706527545538
 30
0.0
 11
17.22147986321351
 21
12.19743856592745
 31
0.0
  0
LINE
  5
2B6
330
1F
100
AcDbEntity
  8
0
100
AcDbLine
 10
17.22147986321351
 20
12.19743856592745
 30
0.0
 11
17.49701217708283
 21
12.1516695290427
 31
0.0
  0
LINE
  5
2B7
330
1F
100
AcDbEntity
  8
0
100
AcDbLine
 10
17.49701217708283
 20
12.1516695290427
 30
0.0
 11
17.76898758309187
 21
12.09955124068278
 31
0.0
  0
LINE
  5
2B8
330
1F
100
AcDbEntity
  8
0
100
AcDbLine
 10
17.76898758309187
 20
12.09955124068278
 30
0.0
 11
18.0368571171024
 21
12.03997987875587
 31
0.0
  0
LINE
  5
2B9
330
1F
100
AcDbEntity
  8
0
100
AcDbLine
 10
18.0368571171024
 20
12.03997987875587
 30
0.0
 11
18.30051064590919
 21
11.97090122937182
 31
0.0
  0
LINE
  5
2BA
330
1F
100
AcDbEntity
  8
0
100
AcDbLine
 10
18.30051064590919
 20
11.97090122937182
 30
0.0
 11
18.55818471579358
 21
11.89271895404636
 31
0.0
  0
LINE
  5
2BB
330
1F
100
AcDbEntity
  8
0
100
AcDbLine
 10
18.55818471579358
 20
11.89271895404636
 30
0.0
 11
18.80980277367771
 21
11.80546715743778
 31
0.0
  0
LINE
  5
2BC
330
1F
100
AcDbEntity
  8
0
100
AcDbLine
 10
18.80980277367771
 20
11.80546715743778
 30
0.0
 11
19.05528074642113
 21
11.70918897077498
 31
0.0
  0
LINE
  5
2BD
330
1F
100
AcDbEntity
  8
0
100
AcDbLine
 10
19.05528074642113
 20
11.70918897077498
 30
0.0
 11
19.29452837458622
 21
11.6039379538423
 31
0.0
  0
LINE
  5
2BE
330
1F
100
AcDbEntity
  8
0
100
AcDbLine
 10
19.29452837458622
 20
11.6039379538423
 30
0.0
 11
19.5274509266537
 21
11.48977924182165
 31
0.0
  0
LINE
  5
2BF
330
1F
100
AcDbEntity
  8
0
100
AcDbLine
 10
19.5274509266537
 20
11.48977924182165
 30
0.0
 11
19.75395124022249
 21
11.36679033906045
 31
0.0
  0
LINE
  5
2C0
330
1F
100
AcDbEntity
  8
0
100
AcDbLine
 10
19.75395124022249
 20
11.36679033906045
 30
0.0
 11
19.97751501148719
 21
11.2329159012631
 31
0.0
  0
LINE
  5
2C1
330
1F
100
AcDbEntity
  8
0
100
AcDbLine
 10
19.97751501148719
 20
11.2329159012631
 30
0.0
 11
20.19439157477715
 21
11.08499487734759
 31
0.0
  0
LINE
  5
2C2
330
1F
100
AcDbEntity
  8
0
100
AcDbLine
 10
20.19439157477715
 20
11.08499487734759
 30
0.0
 11
20.40153168191184
 21
10.92572965908722
 31
0.0
  0
LINE
  5
2C3
330
1F
100
AcDbEntity
  8
0
100
AcDbLine
 10
20.40153168191184
 20
10.92572965908722
 30
0.0
 11
20.59926159206545
 21
10.75480295003004
 31
0.0
  0
LINE
  5
2C4
330
1F
100
AcDbEntity
  8
0
100
AcDbLine
 10
20.59926159206545
 20
10.75480295003004
 30
0.0
 11
20.78732415492891
 21
10.57235333711305
 31
0.0
  0
LINE
  5
2C5
330
1F
100
AcDbEntity
  8
0
100
AcDbLine
 10
20.78732415492891
 20
10.57235333711305
 30
0.0
 11
20.96549684967568
 21
10.37855269856181
 31
0.0
  0
LINE
  5
2C6
330
1F
100
AcDbEntity
  8
0
100
AcDbLine
 10
20.96549684967568
 20
10.37855269856181
 30
0.0
 11
21.13359961971105
 21
10.17359529221042
 31
0.0
  0
LINE
  5
2C7
330
1F
100
AcDbEntity
  8
0
100
AcDbLine
 10
21.13359961971105
 20
10.17359529221042
 30
0.0
 11
21.29149910731375
 21
9.957685546523441
 31
0.0
  0
LINE
  5
2C8
330
1F
100
AcDbEntity
  8
0
100
AcDbLine
 10
21.29149910731375
 20
9.957685546523441
 30
0.0
 11
21.43910910462835
 21
9.731025949221625
 31
0.0
  0
LINE
  5
2C9
330
1F
100
AcDbEntity
  8
0
100
AcDbLine
 10
21.43910910462835
 20
9.731025949221625
 30
0.0
 11
21.60401725390303
 21
9.446061731475197
 31
0.0
  0
LINE
  5
2CA
330
1F
100
AcDbEntity
  8
0
100
AcDbLine
 10
21.60401725390303
 20
9.446061731475197
 30
0.0
 11
21.83783042345019
 21
8.548086490739836
 31
0.0
  0
LINE
  5
2CB
330
1F
100
AcDbEntity
  8
0
100
AcDbLine
 10
21.83783042345019
 20
8.548086490739836
 30
0.0
 11
21.94822575374662
 21
8.282969048094612
 31
0.0
  0
LINE
  5
2CC
330
1F
100
AcDbEntity
  8
0
100
AcDbLine
 10
21.94822575374662
 20
8.282969048094612
 30
0.0
 11
22.01063498005967
 21
8.170031542963693
 31
0.0
  0
LINE
  5
2CD
330
1F
100
AcDbEntity
  8
0
100
AcDbLine
 10
22.01063498005967
 20
8.170031542963693
 30
0.0
 11
22.08620474451435
 21
8.054271638303586
 31
0.0
  0
LINE
  5
2CE
330
1F
100
AcDbEntity
  8
0
100
AcDbLine
 10
22.08620474451435
 20
8.054271638303586
 30
0.0
 11
22.17007275897284
 21
7.94437486411481
 31
0.0
  0
LINE
  5
2CF
330
1F
100
AcDbEntity
  8
0
100
AcDbLine
 10
22.17007275897284
 20
7.94437486411481
 30
0.0
 11
22.26178597347886
 21
7.840934876143808
 31
0.0
  0
LINE
  5
2D0
330
1F
100
AcDbEntity
  8
0
100
AcDbLine
 10
22.26178597347886
 20
7.840934876143808
 30
0.0
 11
22.36084895877758
 21
7.744510450968829
 31
0.0
  0
LINE
  5
2D1
330
1F
100
AcDbEntity
  8
0
100
AcDbLine
 10
22.36084895877758
 20
7.744510450968829
 30
0.0
 11
22.4667265825945
 21
7.655622467521521
 31
0.0
  0
LINE
  5
2D2
330
1F
100
AcDbEntity
  8
0
100
AcDbLine
 10
22.4667265825945
 20
7.655622467521521
 30
0.0
 11
22.57884690039004
 21
7.574751093328667
 31
0.0
  0
LINE
  5
2D3
330
1F
100
AcDbEntity
  8
0
100
AcDbLine
 10
22.57884690039004
 20
7.574751093328667
 30
0.0
 11
22.69660424496763
 21
7.502333190677589
 31
0.0
  0
LINE
  5
2D4
330
1F
100
AcDbEntity
  8
0
100
AcDbLine
 10
22.69660424496763
 20
7.502333190677589
 30
0.0
 11
22.81936249825272
 21
7.438759956711501
 31
0.0
  0
LINE
  5
2D5
330
1F
100
AcDbEntity
  8
0
100
AcDbLine
 10
22.81936249825272
 20
7.438759956711501
 30
0.0
 11
22.94645852756237
 21
7.384374810207447
 31
0.0
  0
LINE
  5
2D6
330
1F
100
AcDbEntity
  8
0
100
AcDbLine
 10
22.94645852756237
 20
7.384374810207447
 30
0.0
 11
23.07720576780893
 21
7.339471536447949
 31
0.0
  0
LINE
  5
2D7
330
1F
100
AcDbEntity
  8
0
100
AcDbLine
 10
23.07720576780893
 20
7.339471536447949
 30
0.0
 11
23.21089793028478
 21
7.304292700210058
 31
0.0
  0
LINE
  5
2D8
330
1F
100
AcDbEntity
  8
0
100
AcDbLine
 10
23.21089793028478
 20
7.304292700210058
 30
0.0
 11
23.34681281798866
 21
7.279028335446233
 31
0.0
  0
LINE
  5
2D9
330
1F
100
AcDbEntity
  8
0
100
AcDbLine
 10
23.34681281798866
 20
7.279028335446233
 30
0.0
 11
23.48421622689159
 21
7.263814918731663
 31
0.0
  0
LINE
  5
2DA
330
1F
100
AcDbEntity
  8
0
100
AcDbLine
 10
23.48421622689159
 20
7.263814918731663
 30
0.0
 11
23.63155625210735
 21
7.258396668444743
 31
0.0
  0
LINE
  5
2DB
330
1F
100
AcDbEntity
  8
0
100
AcDbLine
 10
23.63155625210735
 20
7.258396668444743
 30
0.0
 11
26.3266399167008
 21
7.258396668444743
 31
0.0
  0
LINE
  5
2DC
330
1F
100
AcDbEntity
  8
0
100
AcDbLine
 10
26.3266399167008
 20
7.258396668444743
 30
0.0
 11
26.51144841642616
 21
7.266928169055075
 31
0.0
  0
LINE
  5
2DD
330
1F
100
AcDbEntity
  8
0
100
AcDbLine
 10
26.51144841642616
 20
7.266928169055075
 30
0.0
 11
26.68324813361599
 21
7.290857142774086
 31
0.0
  0
LINE
  5
2DE
330
1F
100
AcDbEntity
  8
0
100
AcDbLine
 10
26.68324813361599
 20
7.290857142774086
 30
0.0
 11
26.85211254168702
 21
7.330512537068476
 31
0.0
  0
LINE
  5
2DF
330
1F
100
AcDbEntity
  8
0
100
AcDbLine
 10
26.85211254168702
 20
7.330512537068476
 30
0.0
 11
27.01660522364038
 21
7.385557029922872
 31
0.0
  0
LINE
  5
2E0
330
1F
100
AcDbEntity
  8
0
100
AcDbLine
 10
27.01660522364038
 20
7.385557029922872
 30
0.0
 11
27.17532694983899
 21
7.455522394514993
 31
0.0
  0
LINE
  5
2E1
330
1F
100
AcDbEntity
  8
0
100
AcDbLine
 10
27.17532694983899
 20
7.455522394514993
 30
0.0
 11
27.32692758031918
 21
7.539813482108295
 31
0.0
  0
LINE
  5
2E2
330
1F
100
AcDbEntity
  8
0
100
AcDbLine
 10
27.32692758031918
 20
7.539813482108295
 30
0.0
 11
27.47011754953617
 21
7.637713284587724
 31
0.0
  0
LINE
  5
2E3
330
1F
100
AcDbEntity
  8
0
100
AcDbLine
 10
27.47011754953617
 20
7.637713284587724
 30
0.0
 11
27.60367883583444
 21
7.748389033567871
 31
0.0
  0
LINE
  5
2E4
330
1F
100
AcDbEntity
  8
0
100
AcDbLine
 10
27.60367883583444
 20
7.748389033567871
 30
0.0
 11
27.72647532234769
 21
7.870899284198905
 31
0.0
  0
LINE
  5
2E5
330
1F
100
AcDbEntity
  8
0
100
AcDbLine
 10
27.72647532234769
 20
7.870899284198905
 30
0.0
 11
27.83746246119047
 21
8.00420192341333
 31
0.0
  0
LINE
  5
2E6
330
1F
100
AcDbEntity
  8
0
100
AcDbLine
 10
27.83746246119047
 20
8.00420192341333
 30
0.0
 11
27.93569615872623
 21
8.147163034482324
 31
0.0
  0
LINE
  5
2E7
330
1F
100
AcDbEntity
  8
0
100
AcDbLine
 10
27.93569615872623
 20
8.147163034482324
 30
0.0
 11
28.02034080634807
 21
8.298566542496221
 31
0.0
  0
LINE
  5
2E8
330
1F
100
AcDbEntity
  8
0
100
AcDbLine
 10
28.02034080634807
 20
8.298566542496221
 30
0.0
 11
28.09067638843991
 21
8.457124558696792
 31
0.0
  0
LINE
  5
2E9
330
1F
100
AcDbEntity
  8
0
100
AcDbLine
 10
28.09067638843991
 20
8.457124558696792
 30
0.0
 11
28.1461046070729
 21
8.621488335695435
 31
0.0
  0
LINE
  5
2EA
330
1F
100
AcDbEntity
  8
0
100
AcDbLine
 10
28.1461046070729
 20
8.621488335695435
 30
0.0
 11
28.18615397132434
 21
8.790259740360684
 31
0.0
  0
LINE
  5
2EB
330
1F
100
AcDbEntity
  8
0
100
AcDbLine
 10
28.18615397132434
 20
8.790259740360684
 30
0.0
 11
28.21048380793946
 21
8.962003146814103
 31
0.0
  0
LINE
  5
2EC
330
1F
100
AcDbEntity
  8
0
100
AcDbLine
 10
28.21048380793946
 20
8.962003146814103
 30
0.0
 11
28.22085559382631
 21
9.175841475817306
 31
0.0
  0
LINE
  5
2ED
330
1F
100
AcDbEntity
  8
0
100
AcDbLine
 10
28.22085559382631
 20
9.175841475817306
 30
0.0
 11
28.21597338199375
 21
9.26256867214198
 31
0.0
  0
LINE
  5
2EE
330
1F
100
AcDbEntity
  8
0
100
AcDbLine
 10
28.21597338199375
 20
9.26256867214198
 30
0.0
 11
28.12116560595617
 21
9.599534821352657
 31
0.0
  0
LINE
  5
2EF
330
1F
100
AcDbEntity
  8
0
100
AcDbLine
 10
28.12116560595617
 20
9.599534821352657
 30
0.0
 11
27.9752859057232
 21
10.11611451834171
 31
0.0
  0
LINE
  5
2F0
330
1F
100
AcDbEntity
  8
0
100
AcDbLine
 10
27.9752859057232
 20
10.11611451834171
 30
0.0
 11
27.80811082300171
 21
10.59712866010675
 31
0.0
  0
LINE
  5
2F1
330
1F
100
AcDbEntity
  8
0
100
AcDbLine
 10
27.80811082300171
 20
10.59712866010675
 30
0.0
 11
27.61603385616672
 21
11.0562414444293
 31
0.0
  0
LINE
  5
2F2
330
1F
100
AcDbEntity
  8
0
100
AcDbLine
 10
27.61603385616672
 20
11.0562414444293
 30
0.0
 11
27.39853104990883
 21
11.49507140853109
 31
0.0
  0
LINE
  5
2F3
330
1F
100
AcDbEntity
  8
0
100
AcDbLine
 10
27.39853104990883
 20
11.49507140853109
 30
0.0
 11
27.15630002018733
 21
11.91800131205878
 31
0.0
  0
LINE
  5
2F4
330
1F
100
AcDbEntity
  8
0
100
AcDbLine
 10
27.15630002018733
 20
11.91800131205878
 30
0.0
 11
26.89502270528744
 21
12.32543122657203
 31
0.0
  0
LINE
  5
2F5
330
1F
100
AcDbEntity
  8
0
100
AcDbLine
 10
26.89502270528744
 20
12.32543122657203
 30
0.0
 11
26.61601485750247
 21
12.71513676241821
 31
0.0
  0
LINE
  5
2F6
330
1F
100
AcDbEntity
  8
0
100
AcDbLine
 10
26.61601485750247
 20
12.71513676241821
 30
0.0
 11
26.31916984163282
 21
13.08731834820602
 31
0.0
  0
LINE
  5
2F7
330
1F
100
AcDbEntity
  8
0
100
AcDbLine
 10
26.31916984163282
 20
13.08731834820602
 30
0.0
 11
26.00434652133616
 21
13.4421699982995
 31
0.0
  0
LINE
  5
2F8
330
1F
100
AcDbEntity
  8
0
100
AcDbLine
 10
26.00434652133616
 20
13.4421699982995
 30
0.0
 11
25.67137190449121
 21
13.77987080394857
 31
0.0
  0
LINE
  5
2F9
330
1F
100
AcDbEntity
  8
0
100
AcDbLine
 10
25.67137190449121
 20
13.77987080394857
 30
0.0
 11
25.32004610391177
 21
14.10057717153504
 31
0.0
  0
LINE
  5
2FA
330
1F
100
AcDbEntity
  8
0
100
AcDbLine
 10
25.32004610391177
 20
14.10057717153504
 30
0.0
 11
24.95014919785626
 21
14.40441658408944
 31
0.0
  0
LINE
  5
2FB
330
1F
100
AcDbEntity
  8
0
100
AcDbLine
 10
24.95014919785626
 20
14.40441658408944
 30
0.0
 11
24.56045869290149
 21
14.6922150726474
 31
0.0
  0
LINE
  5
2FC
330
1F
100
AcDbEntity
  8
0
100
AcDbLine
 10
24.56045869290149
 20
14.6922150726474
 30
0.0
 11
24.1549123105597
 21
14.96399953502119
 31
0.0
  0
LINE
  5
2FD
330
1F
100
AcDbEntity
  8
0
100
AcDbLine
 10
24.1549123105597
 20
14.96399953502119
 30
0.0
 11
23.73568345137744
 21
15.21897767814955
 31
0.0
  0
LINE
  5
2FE
330
1F
100
AcDbEntity
  8
0
100
AcDbLine
 10
23.73568345137744
 20
15.21897767814955
 30
0.0
 11
23.30307578609644
 21
15.45694087947883
 31
0.0
  0
LINE
  5
2FF
330
1F
100
AcDbEntity
  8
0
100
AcDbLine
 10
23.30307578609644
 20
15.45694087947883
 30
0.0
 11
22.85710552657048
 21
15.67785920090403
 31
0.0
  0
LINE
  5
300
330
1F
100
AcDbEntity
  8
0
100
AcDbLine
 10
22.85710552657048
 20
15.67785920090403
 30
0.0
 11
22.3977921711104
 21
15.88168883190018
 31
0.0
  0
LINE
  5
301
330
1F
100
AcDbEntity
  8
0
100
AcDbLine
 10
22.3977921711104
 20
15.88168883190018
 30
0.0
 11
21.92516071819139
 21
16.06837316065125
 31
0.0
  0
LINE
  5
302
330
1F
100
AcDbEntity
  8
0
100
AcDbLine
 10
21.92516071819139
 20
16.06837316065125
 30
0.0
 11
21.43924346512862
 21
16.23784421786193
 31
0.0
  0
LINE
  5
303
330
1F
100
AcDbEntity
  8
0
100
AcDbLine
 10
21.43924346512862
 20
16.23784421786193
 30
0.0
 11
20.94008134658546
 21
16.3900243699931
 31
0.0
  0
LINE
  5
304
330
1F
100
AcDbEntity
  8
0
100
AcDbLine
 10
20.94008134658546
 20
16.3900243699931
 30
0.0
 11
20.42637092415737
 21
16.52518435338579
 31
0.0
  0
LINE
  5
305
330
1F
100
AcDbEntity
  8
0
100
AcDbLine
 10
20.42637092415737
 20
16.52518435338579
 30
0.0
 11
19.89948870359234
 21
16.645931520048
 31
0.0
  0
LINE
  5
306
330
1F
100
AcDbEntity
  8
0
100
AcDbLine
 10
19.89948870359234
 20
16.645931520048
 30
0.0
 11
19.36640427348553
 21
16.7527266508598
 31
0.0
  0
LINE
  5
307
330
1F
100
AcDbEntity
  8
0
100
AcDbLine
 10
19.36640427348553
 20
16.7527266508598
 30
0.0
 11
18.82808650682359
 21
16.84532502459589
 31
0.0
  0
LINE
  5
308
330
1F
100
AcDbEntity
  8
0
100
AcDbLine
 10
18.82808650682359
 20
16.84532502459589
 30
0.0
 11
18.28446313825526
 21
16.92371792321442
 31
0.0
  0
LINE
  5
309
330
1F
100
AcDbEntity
  8
0
100
AcDbLine
 10
18.28446313825526
 20
16.92371792321442
 30
0.0
 11
17.73546329098983
 21
16.98789396542343
 31
0.0
  0
LINE
  5
30A
330
1F
100
AcDbEntity
  8
0
100
AcDbLine
 10
17.73546329098983
 20
16.98789396542343
 30
0.0
 11
17.18101779211666
 21
17.03783932115811
 31
0.0
  0
LINE
  5
30B
330
1F
100
AcDbEntity
  8
0
100
AcDbLine
 10
17.18101779211666
 20
17.03783932115811
 30
0.0
 11
16.62105943835749
 21
17.07353796133157
 31
0.0
  0
LINE
  5
30C
330
1F
100
AcDbEntity
  8
0
100
AcDbLine
 10
16.62105943835749
 20
17.07353796133157
 30
0.0
 11
16.0555232085409
 21
17.09497193332866
 31
0.0
  0
LINE
  5
30D
330
1F
100
AcDbEntity
  8
0
100
AcDbLine
 10
16.0555232085409
 20
17.09497193332866
 30
0.0
 11
15.48501919501397
 21
17.10211323114032
 31
0.0
  0
LINE
  5
30E
330
1F
100
AcDbEntity
  8
0
100
AcDbLine
 10
15.48501919501397
 20
17.10211323114032
 30
0.0
 11
14.99824924317605
 21
17.09476538415045
 31
0.0
  0
LINE
  5
30F
330
1F
100
AcDbEntity
  8
0
100
AcDbLine
 10
14.99824924317605
 20
17.09476538415045
 30
0.0
 11
14.51176550670383
 21
17.07275819095235
 31
0.0
  0
LINE
  5
310
330
1F
100
AcDbEntity
  8
0
100
AcDbLine
 10
14.51176550670383
 20
17.07275819095235
 30
0.0
 11
14.02496807055362
 21
17.03609057985993
 31
0.0
  0
LINE
  5
311
330
1F
100
AcDbEntity
  8
0
100
AcDbLine
 10
14.02496807055362
 20
17.03609057985993
 30
0.0
 11
13.53790815765077
 21
16.98476872638683
 31
0.0
  0
LINE
  5
312
330
1F
100
AcDbEntity
  8
0
100
AcDbLine
 10
13.53790815765077
 20
16.98476872638683
 30
0.0
 11
13.05063855372734
 21
16.91879643535455
 31
0.0
  0
LINE
  5
313
330
1F
100
AcDbEntity
  8
0
100
AcDbLine
 10
13.05063855372734
 20
16.91879643535455
 30
0.0
 11
12.56321386841304
 21
16.83817536695384
 31
0.0
  0
LINE
  5
314
330
1F
100
AcDbEntity
  8
0
100
AcDbLine
 10
12.56321386841304
 20
16.83817536695384
 30
0.0
 11
12.07569075334701
 21
16.7429052894043
 31
0.0
  0
LINE
  5
315
330
1F
100
AcDbEntity
  8
0
100
AcDbLine
 10
12.07569075334701
 20
16.7429052894043
 30
0.0
 11
11.58812807450979
 21
16.63298435035026
 31
0.0
  0
LINE
  5
316
330
1F
100
AcDbEntity
  8
0
100
AcDbLine
 10
11.58812807450979
 20
16.63298435035026
 30
0.0
 11
11.10174110695656
 21
16.50870424331524
 31
0.0
  0
LINE
  5
317
330
1F
100
AcDbEntity
  8
0
100
AcDbLine
 10
11.10174110695656
 20
16.50870424331524
 30
0.0
 11
10.62164573920367
 21
16.3690964306489
 31
0.0
  0
LINE
  5
318
330
1F
100
AcDbEntity
  8
0
100
AcDbLine
 10
10.62164573920367
 20
16.3690964306489
 30
0.0
 11
10.15426529140518
 21
16.2142599497508
 31
0.0
  0
LINE
  5
319
330
1F
100
AcDbEntity
  8
0
100
AcDbLine
 10
10.15426529140518
 20
16.2142599497508
 30
0.0
 11
9.698819874167718
 21
16.04400523975129
 31
0.0
  0
LINE
  5
31A
330
1F
100
AcDbEntity
  8
0
100
AcDbLine
 10
9.698819874167718
 20
16.04400523975129
 30
0.0
 11
9.255272849959576
 21
15.85835290679798
 31
0.0
  0
LINE
  5
31B
330
1F
100
AcDbEntity
  8
0
100
AcDbLine
 10
9.255272849959576
 20
15.85835290679798
 30
0.0
 11
8.82358082574649
 21
15.65731383242341
 31
0.0
  0
LINE
  5
31C
330
1F
100
AcDbEntity
  8
0
100
AcDbLine
 10
8.82358082574649
 20
15.65731383242341
 30
0.0
 11
8.403695160792036
 21
15.44088790353847
 31
0.0
  0
LINE
  5
31D
330
1F
100
AcDbEntity
  8
0
100
AcDbLine
 10
8.403695160792036
 20
15.44088790353847
 30
0.0
 11
7.995563834443399
 21
15.20906304675248
 31
0.0
  0
LINE
  5
31E
330
1F
100
AcDbEntity
  8
0
100
AcDbLine
 10
7.995563834443399
 20
15.20906304675248
 30
0.0
 11
7.599133605615623
 21
14.96181466012933
 31
0.0
  0
LINE
  5
31F
330
1F
100
AcDbEntity
  8
0
100
AcDbLine
 10
7.599133605615623
 20
14.96181466012933
 30
0.0
 11
7.214685689903041
 21
14.69933309275638
 31
0.0
  0
LINE
  5
320
330
1F
100
AcDbEntity
  8
0
100
AcDbLine
 10
7.214685689903041
 20
14.69933309275638
 30
0.0
 11
6.843518364066871
 21
14.42168188634132
 31
0.0
  0
LINE
  5
321
330
1F
100
AcDbEntity
  8
0
100
AcDbLine
 10
6.843518364066871
 20
14.42168188634132
 30
0.0
 11
6.489284504035343
 21
14.12996961135293
 31
0.0
  0
LINE
  5
322
330
1F
100
AcDbEntity
  8
0
100
AcDbLine
 10
6.489284504035343
 20
14.12996961135293
 30
0.0
 11
6.151310789049056
 21
13.82371937485004
 31
0.0
  0
LINE
  5
323
330
1F
100
AcDbEntity
  8
0
100
AcDbLine
 10
6.151310789049056
 20
13.82371937485004
 30
0.0
 11
5.829458830660832
 21
13.50282677656101
 31
0.0
  0
LINE
  5
324
330
1F
100
AcDbEntity
  8
0
100
AcDbLine
 10
5.829458830660832
 20
13.50282677656101
 30
0.0
 11
5.523601492981456
 21
13.1671662821198
 31
0.0
  0
LINE
  5
325
330
1F
100
AcDbEntity
  8
0
100
AcDbLine
 10
5.523601492981456
 20
13.1671662821198
 30
0.0
 11
5.233627557299479
 21
12.81659446125056
 31
0.0
  0
LINE
  5
326
330
1F
100
AcDbEntity
  8
0
100
AcDbLine
 10
5.233627557299479
 20
12.81659446125056
 30
0.0
 11
4.959445518799633
 21
12.45095428300628
 31
0.0
  0
LINE
  5
327
330
1F
100
AcDbEntity
  8
0
100
AcDbLine
 10
4.959445518799633
 20
12.45095428300628
 30
0.0
 11
4.700986217062803
 21
12.07008012545663
 31
0.0
  0
LINE
  5
328
330
1F
100
AcDbEntity
  8
0
100
AcDbLine
 10
4.700986217062803
 20
12.07008012545663
 30
0.0
 11
4.459848332110514
 21
11.67648679995147
 31
0.0
  0
LINE
  5
329
330
1F
100
AcDbEntity
  8
0
100
AcDbLine
 10
4.459848332110514
 20
11.67648679995147
 30
0.0
 11
4.243037807247332
 21
11.27137634855258
 31
0.0
  0
LINE
  5
32A
330
1F
100
AcDbEntity
  8
0
100
AcDbLine
 10
4.243037807247332
 20
11.27137634855258
 30
0.0
 11
4.05207498639667
 21
10.85151569563308
 31
0.0
  0
LINE
  5
32B
330
1F
100
AcDbEntity
  8
0
100
AcDbLine
 10
4.05207498639667
 20
10.85151569563308
 30
0.0
 11
3.886129226574957
 21
10.41499808798413
 31
0.0
  0
LINE
  5
32C
330
1F
100
AcDbEntity
  8
0
100
AcDbLine
 10
3.886129226574957
 20
10.41499808798413
 30
0.0
 11
3.745239884147503
 21
9.961410528420576
 31
0.0
  0
LINE
  5
32D
330
1F
100
AcDbEntity
  8
0
100
AcDbLine
 10
3.745239884147503
 20
9.961410528420576
 30
0.0
 11
3.629515924483982
 21
9.490374328712141
 31
0.0
  0
LINE
  5
32E
330
1F
100
AcDbEntity
  8
0
100
AcDbLine
 10
3.629515924483982
 20
9.490374328712141
 30
0.0
 11
3.539122445092301
 21
9.001559983244013
 31
0.0
  0
LINE
  5
32F
330
1F
100
AcDbEntity
  8
0
100
AcDbLine
 10
3.539122445092301
 20
9.001559983244013
 30
0.0
 11
3.474264639036544
 21
8.494695496248761
 31
0.0
  0
LINE
  5
330
330
1F
100
AcDbEntity
  8
0
100
AcDbLine
 10
3.474264639036544
 20
8.494695496248761
 30
0.0
 11
3.435171646505845
 21
7.969568514671613
 31
0.0
  0
LINE
  5
331
330
1F
100
AcDbEntity
  8
0
100
AcDbLine
 10
3.435171646505845
 20
7.969568514671613
 30
0.0
 11
3.422069850230683
 21
7.425513105656663
 31
0.0
  0
LINE
  5
332
330
1F
100
AcDbEntity
  8
0
100
AcDbLine
 10
3.422069850230683
 20
7.425513105656663
 30
0.0
 11
3.432353368209722
 21
6.943957650138465
 31
0.0
  0
LINE
  5
333
330
1F
100
AcDbEntity
  8
0
100
AcDbLine
 10
3.432353368209722
 20
6.943957650138465
 30
0.0
 11
3.463095142104912
 21
6.479685412269278
 31
0.0
  0
LINE
  5
334
330
1F
100
AcDbEntity
  8
0
100
AcDbLine
 10
3.463095142104912
 20
6.479685412269278
 30
0.0
 11
3.514042806308781
 21
6.033514265387295
 31
0.0
  0
LINE
  5
335
330
1F
100
AcDbEntity
  8
0
100
AcDbLine
 10
3.514042806308781
 20
6.033514265387295
 30
0.0
 11
3.584952249716424
 21
5.605372385855678
 31
0.0
  0
LINE
  5
336
330
1F
100
AcDbEntity
  8
0
100
AcDbLine
 10
3.584952249716424
 20
5.605372385855678
 30
0.0
 11
3.675578221191111
 21
5.19513681036865
 31
0.0
  0
LINE
  5
337
330
1F
100
AcDbEntity
  8
0
100
AcDbLine
 10
3.675578221191111
 20
5.19513681036865
 30
0.0
 11
3.785686370287414
 21
4.802626742822905
 31
0.0
  0
LINE
  5
338
330
1F
100
AcDbEntity
  8
0
100
AcDbLine
 10
3.785686370287414
 20
4.802626742822905
 30
0.0
 11
3.915068350190492
 21
4.427600217867181
 31
0.0
  0
LINE
  5
339
330
1F
100
AcDbEntity
  8
0
100
AcDbLine
 10
3.915068350190492
 20
4.427600217867181
 30
0.0
 11
4.063558942525698
 21
4.069755857080966
 31
0.0
  0
LINE
  5
33A
330
1F
100
AcDbEntity
  8
0
100
AcDbLine
 10
4.063558942525698
 20
4.069755857080966
 30
0.0
 11
4.231828520159636
 21
3.727162805123822
 31
0.0
  0
LINE
  5
33B
330
1F
100
AcDbEntity
  8
0
100
AcDbLine
 10
4.231828520159636
 20
3.727162805123822
 30
0.0
 11
4.419591194100894
 21
3.394953515560907
 31
0.0
  0
LINE
  5
33C
330
1F
100
AcDbEntity
  8
0
100
AcDbLine
 10
4.419591194100894
 20
3.394953515560907
 30
0.0
 11
4.621110756091548
 21
3.073127542978199
 31
0.0
  0
LINE
  5
33D
330
1F
100
AcDbEntity
  8
0
100
AcDbLine
 10
4.621110756091548
 20
3.073127542978199
 30
0.0
 11
4.834703565225912
 21
2.764582754072651
 31
0.0
  0
LINE
  5
33E
330
1F
100
AcDbEntity
  8
0
100
AcDbLine
 10
4.834703565225912
 20
2.764582754072651
 30
0.0
 11
5.060443501333055
 21
2.469145104602679
 31
0.0
  0
LINE
  5
33F
330
1F
100
AcDbEntity
  8
0
100
AcDbLine
 10
5.060443501333055
 20
2.469145104602679
 30
0.0
 11
5.298430014672003
 21
2.186640131479783
 31
0.0
  0
LINE
  5
340
330
1F
100
AcDbEntity
  8
0
100
AcDbLine
 10
5.298430014672003
 20
2.186640131479783
 30
0.0
 11
5.548787746575139
 21
1.916898711920044
 31
0.0
  0
LINE
  5
341
330
1F
100
AcDbEntity
  8
0
100
AcDbLine
 10
5.548787746575139
 20
1.916898711920044
 30
0.0
 11
5.811664614007582
 21
1.659762841127707
 31
0.0
  0
LINE
  5
342
330
1F
100
AcDbEntity
  8
0
100
AcDbLine
 10
5.811664614007582
 20
1.659762841127707
 30
0.0
 11
6.08722842301534
 21
1.41509093454574
 31
0.0
  0
LINE
  5
343
330
1F
100
AcDbEntity
  8
0
100
AcDbLine
 10
6.08722842301534
 20
1.41509093454574
 30
0.0
 11
6.376979462649918
 21
1.1817012007407
 31
0.0
  0
LINE
  5
344
330
1F
100
AcDbEntity
  8
0
100
AcDbLine
 10
6.376979462649918
 20
1.1817012007407
 30
0.0
 11
6.680512535466612
 21
0.956970309260005
 31
0.0
  0
LINE
  5
345
330
1F
100
AcDbEntity
  8
0
100
AcDbLine
 10
6.680512535466612
 20
0.956970309260005
 30
0.0
 11
6.994619909036674
 21
0.7404021266647142
 31
0.0
  0
LINE
  5
346
330
1F
100
AcDbEntity
  8
0
100
AcDbLine
 10
6.994619909036674
 20
0.7404021266647142
 30
0.0
 11
7.317903992038453
 21
0.533060631912846
 31
0.0
  0
LINE
  5
347
330
1F
100
AcDbEntity
  8
0
100
AcDbLine
 10
7.317903992038453
 20
0.533060631912846
 30
0.0
 11
7.650326019112548
 21
0.3350075227940717
 31
0.0
  0
LINE
  5
348
330
1F
100
AcDbEntity
  8
0
100
AcDbLine
 10
7.650326019112548
 20
0.3350075227940717
 30
0.0
 11
7.991846000840138
 21
0.1463085918407259
 31
0.0
  0
LINE
  5
349
330
1F
100
AcDbEntity
  8
0
100
AcDbLine
 10
7.991846000840138
 20
0.1463085918407259
 30
0.0
 11
8.342422283132603
 21
-0.0329665503026938
 31
0.0
  0
LINE
  5
34A
330
1F
100
AcDbEntity
  8
0
100
AcDbLine
 10
8.342422283132603
 20
-0.0329665503026938
 30
0.0
 11
8.702011175395477
 21
-0.2027448031858899
 31
0.0
  0
LINE
  5
34B
330
1F
100
AcDbEntity
  8
0
100
AcDbLine
 10
8.702011175395477
 20
-0.2027448031858899
 30
0.0
 11
9.070566651020354
 21
-0.3629499419562165
 31
0.0
  0
LINE
  5
34C
330
1F
100
AcDbEntity
  8
0
100
AcDbLine
 10
9.070566651020354
 20
-0.3629499419562165
 30
0.0
 11
9.450091874269381
 21
-0.5143213354924604
 31
0.0
  0
LINE
  5
34D
330
1F
100
AcDbEntity
  8
0
100
AcDbLine
 10
9.450091874269381
 20
-0.5143213354924604
 30
0.0
 11
9.840640937714408
 21
-0.6605964815338339
 31
0.0
  0
LINE
  5
34E
330
1F
100
AcDbEntity
  8
0
100
AcDbLine
 10
9.840640937714408
 20
-0.6605964815338339
 30
0.0
 11
10.23518250596777
 21
-0.8023311246207423
 31
0.0
  0
LINE
  5
34F
330
1F
100
AcDbEntity
  8
0
100
AcDbLine
 10
10.23518250596777
 20
-0.8023311246207423
 30
0.0
 11
10.63196356090119
 21
-0.9388537671747148
 31
0.0
  0
LINE
  5
350
330
1F
100
AcDbEntity
  8
0
100
AcDbLine
 10
10.63196356090119
 20
-0.9388537671747148
 30
0.0
 11
11.03102956779054
 21
-1.070166246888001
 31
0.0
  0
LINE
  5
351
330
1F
100
AcDbEntity
  8
0
100
AcDbLine
 10
11.03102956779054
 20
-1.070166246888001
 30
0.0
 11
11.4324260594784
 21
-1.196270163882948
 31
0.0
  0
LINE
  5
352
330
1F
100
AcDbEntity
  8
0
100
AcDbLine
 10
11.4324260594784
 20
-1.196270163882948
 30
0.0
 11
11.83619861556882
 21
-1.317166875454859
 31
0.0
  0
LINE
  5
353
330
1F
100
AcDbEntity
  8
0
100
AcDbLine
 10
11.83619861556882
 20
-1.317166875454859
 30
0.0
 11
12.24239284137845
 21
-1.432857492468799
 31
0.0
  0
LINE
  5
354
330
1F
100
AcDbEntity
  8
0
100
AcDbLine
 10
12.24239284137845
 20
-1.432857492468799
 30
0.0
 11
12.65105434691795
 21
-1.543342877448965
 31
0.0
  0
LINE
  5
355
330
1F
100
AcDbEntity
  8
0
100
AcDbLine
 10
12.65105434691795
 20
-1.543342877448965
 30
0.0
 11
13.07120910266516
 21
-1.650923060319948
 31
0.0
  0
LINE
  5
356
330
1F
100
AcDbEntity
  8
0
100
AcDbLine
 10
13.07120910266516
 20
-1.650923060319948
 30
0.0
 11
13.48254725250423
 21
-1.766718387579838
 31
0.0
  0
LINE
  5
357
330
1F
100
AcDbEntity
  8
0
100
AcDbLine
 10
13.48254725250423
 20
-1.766718387579838
 30
0.0
 11
13.8858686204657
 21
-1.878048126958771
 31
0.0
  0
LINE
  5
358
330
1F
100
AcDbEntity
  8
0
100
AcDbLine
 10
13.8858686204657
 20
-1.878048126958771
 30
0.0
 11
14.28812772208109
 21
-1.986917157874397
 31
0.0
  0
LINE
  5
359
330
1F
100
AcDbEntity
  8
0
100
AcDbLine
 10
14.28812772208109
 20
-1.986917157874397
 30
0.0
 11
14.68932613335097
 21
-2.093373036601531
 31
0.0
  0
LINE
  5
35A
330
1F
100
AcDbEntity
  8
0
100
AcDbLine
 10
14.68932613335097
 20
-2.093373036601531
 30
0.0
 11
15.08946542126702
 21
-2.197463308480468
 31
0.0
  0
LINE
  5
35B
330
1F
100
AcDbEntity
  8
0
100
AcDbLine
 10
15.08946542126702
 20
-2.197463308480468
 30
0.0
 11
15.48854714366715
 21
-2.299235508650531
 31
0.0
  0
LINE
  5
35C
330
1F
100
AcDbEntity
  8
0
100
AcDbLine
 10
15.48854714366715
 20
-2.299235508650531
 30
0.0
 11
15.88657284884796
 21
-2.39873716272673
 31
0.0
  0
LINE
  5
35D
330
1F
100
AcDbEntity
  8
0
100
AcDbLine
 10
15.88657284884796
 20
-2.39873716272673
 30
0.0
 11
16.28354407546064
 21
-2.496015787554661
 31
0.0
  0
LINE
  5
35E
330
1F
100
AcDbEntity
  8
0
100
AcDbLine
 10
16.28354407546064
 20
-2.496015787554661
 30
0.0
 11
16.68179845024942
 21
-2.591680043524417
 31
0.0
  0
LINE
  5
35F
330
1F
100
AcDbEntity
  8
0
100
AcDbLine
 10
16.68179845024942
 20
-2.591680043524417
 30
0.0
 11
17.0779015429856
 21
-2.688973116303396
 31
0.0
  0
LINE
  5
360
330
1F
100
AcDbEntity
  8
0
100
AcDbLine
 10
17.0779015429856
 20
-2.688973116303396
 30
0.0
 11
17.46736277211166
 21
-2.790376920164141
 31
0.0
  0
LINE
  5
361
330
1F
100
AcDbEntity
  8
0
100
AcDbLine
 10
17.46736277211166
 20
-2.790376920164141
 30
0.0
 11
17.84808354415294
 21
-2.895394946373576
 31
0.0
  0
LINE
  5
362
330
1F
100
AcDbEntity
  8
0
100
AcDbLine
 10
17.84808354415294
 20
-2.895394946373576
 30
0.0
 11
18.21995841387099
 21
-3.004022111312161
 31
0.0
  0
LINE
  5
363
330
1F
100
AcDbEntity
  8
0
100
AcDbLine
 10
18.21995841387099
 20
-3.004022111312161
 30
0.0
 11
18.58288284903352
 21
-3.116255692128094
 31
0.0
  0
LINE
  5
364
330
1F
100
AcDbEntity
  8
0
100
AcDbLine
 10
18.58288284903352
 20
-3.116255692128094
 30
0.0
 11
18.93675320661472
 21
-3.232095643233527
 31
0.0
  0
LINE
  5
365
330
1F
100
AcDbEntity
  8
0
100
AcDbLine
 10
18.93675320661472
 20
-3.232095643233527
 30
0.0
 11
19.28146667875074
 21
-3.351544953710001
 31
0.0
  0
LINE
  5
366
330
1F
100
AcDbEntity
  8
0
100
AcDbLine
 10
19.28146667875074
 20
-3.351544953710001
 30
0.0
 11
19.61692119814304
 21
-3.474610049014751
 31
0.0
  0
LINE
  5
367
330
1F
100
AcDbEntity
  8
0
100
AcDbLine
 10
19.61692119814304
 20
-3.474610049014751
 30
0.0
 11
19.94516156121896
 21
-3.602135090040035
 31
0.0
  0
LINE
  5
368
330
1F
100
AcDbEntity
  8
0
100
AcDbLine
 10
19.94516156121896
 20
-3.602135090040035
 30
0.0
 11
20.26708606537928
 21
-3.738125459129777
 31
0.0
  0
LINE
  5
369
330
1F
100
AcDbEntity
  8
0
100
AcDbLine
 10
20.26708606537928
 20
-3.738125459129777
 30
0.0
 11
20.5773844397121
 21
-3.882129771387511
 31
0.0
  0
LINE
  5
36A
330
1F
100
AcDbEntity
  8
0
100
AcDbLine
 10
20.5773844397121
 20
-3.882129771387511
 30
0.0
 11
20.87516452046095
 21
-4.034025228589695
 31
0.0
  0
LINE
  5
36B
330
1F
100
AcDbEntity
  8
0
100
AcDbLine
 10
20.87516452046095
 20
-4.034025228589695
 30
0.0
 11
21.16030324971831
 21
-4.194030656747852
 31
0.0
  0
LINE
  5
36C
330
1F
100
AcDbEntity
  8
0
100
AcDbLine
 10
21.16030324971831
 20
-4.194030656747852
 30
0.0
 11
21.43264970194063
 21
-4.362368088956816
 31
0.0
  0
LINE
  5
36D
330
1F
100
AcDbEntity
  8
0
100
AcDbLine
 10
21.43264970194063
 20
-4.362368088956816
 30
0.0
 11
21.69202002656203
 21
-4.539256993916023
 31
0.0
  0
LINE
  5
36E
330
1F
100
AcDbEntity
  8
0
100
AcDbLine
 10
21.69202002656203
 20
-4.539256993916023
 30
0.0
 11
21.93819310821896
 21
-4.724906435972166
 31
0.0
  0
LINE
  5
36F
330
1F
100
AcDbEntity
  8
0
100
AcDbLine
 10
21.93819310821896
 20
-4.724906435972166
 30
0.0
 11
22.17090779531634
 21
-4.919505162388042
 31
0.0
  0
LINE
  5
370
330
1F
100
AcDbEntity
  8
0
100
AcDbLine
 10
22.17090779531634
 20
-4.919505162388042
 30
0.0
 11
22.39218563395613
 21
-5.125371100268342
 31
0.0
  0
LINE
  5
371
330
1F
100
AcDbEntity
  8
0
100
AcDbLine
 10
22.39218563395613
 20
-5.125371100268342
 30
0.0
 11
22.6027768153086
 21
-5.349883325083896
 31
0.0
  0
LINE
  5
372
330
1F
100
AcDbEntity
  8
0
100
AcDbLine
 10
22.6027768153086
 20
-5.349883325083896
 30
0.0
 11
22.79312905655615
 21
-5.594749259419403
 31
0.0
  0
LINE
  5
373
330
1F
100
AcDbEntity
  8
0
100
AcDbLine
 10
22.79312905655615
 20
-5.594749259419403
 30
0.0
 11
22.95869761270894
 21
-5.855452132406128
 31
0.0
  0
LINE
  5
374
330
1F
100
AcDbEntity
  8
0
100
AcDbLine
 10
22.95869761270894
 20
-5.855452132406128
 30
0.0
 11
23.09871477782375
 21
-6.130975463893112
 31
0.0
  0
LINE
  5
375
330
1F
100
AcDbEntity
  8
0
100
AcDbLine
 10
23.09871477782375
 20
-6.130975463893112
 30
0.0
 11
23.21273927540459
 21
-6.420135204171276
 31
0.0
  0
LINE
  5
376
330
1F
100
AcDbEntity
  8
0
100
AcDbLine
 10
23.21273927540459
 20
-6.420135204171276
 30
0.0
 11
23.30069567232289
 21
-6.721742157412793
 31
0.0
  0
LINE
  5
377
330
1F
100
AcDbEntity
  8
0
100
AcDbLine
 10
23.30069567232289
 20
-6.721742157412793
 30
0.0
 11
23.36283710614352
 21
-7.034750847648544
 31
0.0
  0
LINE
  5
378
330
1F
100
AcDbEntity
  8
0
100
AcDbLine
 10
23.36283710614352
 20
-7.034750847648544
 30
0.0
 11
23.39965385648494
 21
-7.358357458638389
 31
0.0
  0
LINE
  5
379
330
1F
100
AcDbEntity
  8
0
100
AcDbLine
 10
23.39965385648494
 20
-7.358357458638389
 30
0.0
 11
23.41171068632982
 21
-7.690578864465684
 31
0.0
  0
LINE
  5
37A
330
1F
100
AcDbEntity
  8
0
100
AcDbLine
 10
23.41171068632982
 20
-7.690578864465684
 30
0.0
 11
23.4027487698764
 21
-7.999975661656293
 31
0.0
  0
LINE
  5
37B
330
1F
100
AcDbEntity
  8
0
100
AcDbLine
 10
23.4027487698764
 20
-7.999975661656293
 30
0.0
 11
23.37566702044313
 21
-8.29830260782285
 31
0.0
  0
LINE
  5
37C
330
1F
100
AcDbEntity
  8
0
100
AcDbLine
 10
23.37566702044313
 20
-8.29830260782285
 30
0.0
 11
23.32986521517845
 21
-8.587548091864539
 31
0.0
  0
LINE
  5
37D
330
1F
100
AcDbEntity
  8
0
100
AcDbLine
 10
23.32986521517845
 20
-8.587548091864539
 30
0.0
 11
23.26481683416165
 21
-8.867399612677595
 31
0.0
  0
LINE
  5
37E
330
1F
100
AcDbEntity
  8
0
100
AcDbLine
 10
23.26481683416165
 20
-8.867399612677595
 30
0.0
 11
23.18006166314836
 21
-9.13736411355265
 31
0.0
  0
LINE
  5
37F
330
1F
100
AcDbEntity
  8
0
100
AcDbLine
 10
23.18006166314836
 20
-9.13736411355265
 30
0.0
 11
23.0752707960143
 21
-9.396775894920692
 31
0.0
  0
LINE
  5
380
330
1F
100
AcDbEntity
  8
0
100
AcDbLine
 10
23.0752707960143
 20
-9.396775894920692
 30
0.0
 11
22.95030931967837
 21
-9.644838004390035
 31
0.0
  0
LINE
  5
381
330
1F
100
AcDbEntity
  8
0
100
AcDbLine
 10
22.95030931967837
 20
-9.644838004390035
 30
0.0
 11
22.80527883293707
 21
-9.880697265880846
 31
0.0
  0
LINE
  5
382
330
1F
100
AcDbEntity
  8
0
100
AcDbLine
 10
22.80527883293707
 20
-9.880697265880846
 30
0.0
 11
22.64453332603944
 21
-10.09811705787252
 31
0.0
  0
LINE
  5
383
330
1F
100
AcDbEntity
  8
0
100
AcDbLine
 10
22.64453332603944
 20
-10.09811705787252
 30
0.0
 11
22.47797790292428
 21
-10.29812909341569
 31
0.0
  0
LINE
  5
384
330
1F
100
AcDbEntity
  8
0
100
AcDbLine
 10
22.47797790292428
 20
-10.29812909341569
 30
0.0
 11
22.30260734744576
 21
-10.48759092280713
 31
0.0
  0
LINE
  5
385
330
1F
100
AcDbEntity
  8
0
100
AcDbLine
 10
22.30260734744576
 20
-10.48759092280713
 30
0.0
 11
22.11778424450381
 21
-10.66739096599881
 31
0.0
  0
LINE
  5
386
330
1F
100
AcDbEntity
  8
0
100
AcDbLine
 10
22.11778424450381
 20
-10.66739096599881
 30
0.0
 11
21.92376859893087
 21
-10.83737923235204
 31
0.0
  0
LINE
  5
387
330
1F
100
AcDbEntity
  8
0
100
AcDbLine
 10
21.92376859893087
 20
-10.83737923235204
 30
0.0
 11
21.72083140331247
 21
-10.99742883049838
 31
0.0
  0
LINE
  5
388
330
1F
100
AcDbEntity
  8
0
100
AcDbLine
 10
21.72083140331247
 20
-10.99742883049838
 30
0.0
 11
21.50924933096556
 21
-11.14743757578169
 31
0.0
  0
LINE
  5
389
330
1F
100
AcDbEntity
  8
0
100
AcDbLine
 10
21.50924933096556
 20
-11.14743757578169
 30
0.0
 11
21.2892994645002
 21
-11.28732823874878
 31
0.0
  0
LINE
  5
38A
330
1F
100
AcDbEntity
  8
0
100
AcDbLine
 10
21.2892994645002
 20
-11.28732823874878
 30
0.0
 11
21.06125443648727
 21
-11.41704753941882
 31
0.0
  0
LINE
  5
38B
330
1F
100
AcDbEntity
  8
0
100
AcDbLine
 10
21.06125443648727
 20
-11.41704753941882
 30
0.0
 11
20.82625192740869
 21
-11.53612142852338
 31
0.0
  0
LINE
  5
38C
330
1F
100
AcDbEntity
  8
0
100
AcDbLine
 10
20.82625192740869
 20
-11.53612142852338
 30
0.0
 11
20.58714845143696
 21
-11.64459618617199
 31
0.0
  0
LINE
  5
38D
330
1F
100
AcDbEntity
  8
0
100
AcDbLine
 10
20.58714845143696
 20
-11.64459618617199
 30
0.0
 11
20.34678592679777
 21
-11.7442026399284
 31
0.0
  0
LINE
  5
38E
330
1F
100
AcDbEntity
  8
0
100
AcDbLine
 10
20.34678592679777
 20
-11.7442026399284
 30
0.0
 11
20.10286529915909
 21
-11.83591325201676
 31
0.0
  0
LINE
  5
38F
330
1F
100
AcDbEntity
  8
0
100
AcDbLine
 10
20.10286529915909
 20
-11.83591325201676
 30
0.0
 11
19.85543183569103
 21
-11.919642344515
 31
0.0
  0
LINE
  5
390
330
1F
100
AcDbEntity
  8
0
100
AcDbLine
 10
19.85543183569103
 20
-11.919642344515
 30
0.0
 11
19.60453326976039
 21
-11.9953086809718
 31
0.0
  0
LINE
  5
391
330
1F
100
AcDbEntity
  8
0
100
AcDbLine
 10
19.60453326976039
 20
-11.9953086809718
 30
0.0
 11
19.35021906933819
 21
-12.06283580238706
 31
0.0
  0
LINE
  5
392
330
1F
100
AcDbEntity
  8
0
100
AcDbLine
 10
19.35021906933819
 20
-12.06283580238706
 30
0.0
 11
19.092539657985
 21
-12.12215224146271
 31
0.0
  0
LINE
  5
393
330
1F
100
AcDbEntity
  8
0
100
AcDbLine
 10
19.092539657985
 20
-12.12215224146271
 30
0.0
 11
18.83154561655635
 21
-12.17319160765535
 31
0.0
  0
LINE
  5
394
330
1F
100
AcDbEntity
  8
0
100
AcDbLine
 10
18.83154561655635
 20
-12.17319160765535
 30
0.0
 11
18.57008480347156
 21
-12.21544043466075
 31
0.0
  0
LINE
  5
395
330
1F
100
AcDbEntity
  8
0
100
AcDbLine
 10
18.57008480347156
 20
-12.21544043466075
 30
0.0
 11
18.31163454157044
 21
-12.2515710720854
 31
0.0
  0
LINE
  5
396
330
1F
100
AcDbEntity
  8
0
100
AcDbLine
 10
18.31163454157044
 20
-12.2515710720854
 30
0.0
 11
18.0583520846478
 21
-12.28318310002253
 31
0.0
  0
LINE
  5
397
330
1F
100
AcDbEntity
  8
0
100
AcDbLine
 10
18.0583520846478
 20
-12.28318310002253
 30
0.0
 11
17.80850649402384
 21
-12.31053381474531
 31
0.0
  0
LINE
  5
398
330
1F
100
AcDbEntity
  8
0
100
AcDbLine
 10
17.80850649402384
 20
-12.31053381474531
 30
0.0
 11
17.56209145134996
 21
-12.33363880076376
 31
0.0
  0
LINE
  5
399
330
1F
100
AcDbEntity
  8
0
100
AcDbLine
 10
17.56209145134996
 20
-12.33363880076376
 30
0.0
 11
17.31910081491049
 21
-12.35251297978636
 31
0.0
  0
LINE
  5
39A
330
1F
100
AcDbEntity
  8
0
100
AcDbLine
 10
17.31910081491049
 20
-12.35251297978636
 30
0.0
 11
17.07952868168339
 21
-12.36717058135931
 31
0.0
  0
LINE
  5
39B
330
1F
100
AcDbEntity
  8
0
100
AcDbLine
 10
17.07952868168339
 20
-12.36717058135931
 30
0.0
 11
16.84336945764805
 21
-12.3776251161676
 31
0.0
  0
LINE
  5
39C
330
1F
100
AcDbEntity
  8
0
100
AcDbLine
 10
16.84336945764805
 20
-12.3776251161676
 30
0.0
 11
16.61061793680428
 21
-12.38388935303788
 31
0.0
  0
LINE
  5
39D
330
1F
100
AcDbEntity
  8
0
100
AcDbLine
 10
16.61061793680428
 20
-12.38388935303788
 30
0.0
 11
16.3801817319038
 21
-12.38598519320005
 31
0.0
  0
LINE
  5
39E
330
1F
100
AcDbEntity
  8
0
100
AcDbLine
 10
16.3801817319038
 20
-12.38598519320005
 30
0.0
 11
16.0451396342498
 21
-12.38144155427407
 31
0.0
  0
LINE
  5
39F
330
1F
100
AcDbEntity
  8
0
100
AcDbLine
 10
16.0451396342498
 20
-12.38144155427407
 30
0.0
 11
15.71103086306831
 21
-12.36775317083585
 31
0.0
  0
LINE
  5
3A0
330
1F
100
AcDbEntity
  8
0
100
AcDbLine
 10
15.71103086306831
 20
-12.36775317083585
 30
0.0
 11
15.37897777610515
 21
-12.34491882494772
 31
0.0
  0
LINE
  5
3A1
330
1F
100
AcDbEntity
  8
0
100
AcDbLine
 10
15.37897777610515
 20
-12.34491882494772
 30
0.0
 11
15.049011963363
 21
-12.31292481851137
 31
0.0
  0
LINE
  5
3A2
330
1F
100
AcDbEntity
  8
0
100
AcDbLine
 10
15.049011963363
 20
-12.31292481851137
 30
0.0
 11
14.72116665698193
 21
-12.27176003840782
 31
0.0
  0
LINE
  5
3A3
330
1F
100
AcDbEntity
  8
0
100
AcDbLine
 10
14.72116665698193
 20
-12.27176003840782
 30
0.0
 11
14.39547639120423
 21
-12.22141616352125
 31
0.0
  0
LINE
  5
3A4
330
1F
100
AcDbEntity
  8
0
100
AcDbLine
 10
14.39547639120423
 20
-12.22141616352125
 30
0.0
 11
14.07197662174322
 21
-12.16188782368511
 31
0.0
  0
LINE
  5
3A5
330
1F
100
AcDbEntity
  8
0
100
AcDbLine
 10
14.07197662174322
 20
-12.16188782368511
 30
0.0
 11
13.75070331365416
 21
-12.09317270342823
 31
0.0
  0
LINE
  5
3A6
330
1F
100
AcDbEntity
  8
0
100
AcDbLine
 10
13.75070331365416
 20
-12.09317270342823
 30
0.0
 11
13.43103958116716
 21
-12.01511214311807
 31
0.0
  0
LINE
  5
3A7
330
1F
100
AcDbEntity
  8
0
100
AcDbLine
 10
13.43103958116716
 20
-12.01511214311807
 30
0.0
 11
13.11647872101227
 21
-11.92771045079014
 31
0.0
  0
LINE
  5
3A8
330
1F
100
AcDbEntity
  8
0
100
AcDbLine
 10
13.11647872101227
 20
-11.92771045079014
 30
0.0
 11
12.80906283307767
 21
-11.82967432408464
 31
0.0
  0
LINE
  5
3A9
330
1F
100
AcDbEntity
  8
0
100
AcDbLine
 10
12.80906283307767
 20
-11.82967432408464
 30
0.0
 11
12.51001580767303
 21
-11.72132624944106
 31
0.0
  0
LINE
  5
3AA
330
1F
100
AcDbEntity
  8
0
100
AcDbLine
 10
12.51001580767303
 20
-11.72132624944106
 30
0.0
 11
12.21938489353304
 21
-11.60266712325087
 31
0.0
  0
LINE
  5
3AB
330
1F
100
AcDbEntity
  8
0
100
AcDbLine
 10
12.21938489353304
 20
-11.60266712325087
 30
0.0
 11
11.93722862466778
 21
-11.47370900184255
 31
0.0
  0
LINE
  5
3AC
330
1F
100
AcDbEntity
  8
0
100
AcDbLine
 10
11.93722862466778
 20
-11.47370900184255
 30
0.0
 11
11.66361524098974
 21
-11.33447739775043
 31
0.0
  0
LINE
  5
3AD
330
1F
100
AcDbEntity
  8
0
100
AcDbLine
 10
11.66361524098974
 20
-11.33447739775043
 30
0.0
 11
11.39862043885662
 21
-11.18501326186471
 31
0.0
  0
LINE
  5
3AE
330
1F
100
AcDbEntity
  8
0
100
AcDbLine
 10
11.39862043885662
 20
-11.18501326186471
 30
0.0
 11
11.1423245069963
 21
-11.02537446127099
 31
0.0
  0
LINE
  5
3AF
330
1F
100
AcDbEntity
  8
0
100
AcDbLine
 10
11.1423245069963
 20
-11.02537446127099
 30
0.0
 11
10.89342851161361
 21
-10.85468990628314
 31
0.0
  0
LINE
  5
3B0
330
1F
100
AcDbEntity
  8
0
100
AcDbLine
 10
10.89342851161361
 20
-10.85468990628314
 30
0.0
 11
10.65255768645448
 21
-10.67073921692248
 31
0.0
  0
LINE
  5
3B1
330
1F
100
AcDbEntity
  8
0
100
AcDbLine
 10
10.65255768645448
 20
-10.67073921692248
 30
0.0
 11
10.42196806355713
 21
-10.4743109429229
 31
0.0
  0
LINE
  5
3B2
330
1F
100
AcDbEntity
  8
0
100
AcDbLine
 10
10.42196806355713
 20
-10.4743109429229
 30
0.0
 11
10.20221704009172
 21
-10.26576555755693
 31
0.0
  0
LINE
  5
3B3
330
1F
100
AcDbEntity
  8
0
100
AcDbLine
 10
10.20221704009172
 20
-10.26576555755693
 30
0.0
 11
9.993509165157853
 21
-10.0452394250289
 31
0.0
  0
LINE
  5
3B4
330
1F
100
AcDbEntity
  8
0
100
AcDbLine
 10
9.993509165157853
 20
-10.0452394250289
 30
0.0
 11
9.796021140799962
 21
-9.812891832459758
 31
0.0
  0
LINE
  5
3B5
330
1F
100
AcDbEntity
  8
0
100
AcDbLine
 10
9.796021140799962
 20
-9.812891832459758
 30
0.0
 11
9.609896906782883
 21
-9.568897058527424
 31
0.0
  0
LINE
  5
3B6
330
1F
100
AcDbEntity
  8
0
100
AcDbLine
 10
9.609896906782883
 20
-9.568897058527424
 30
0.0
 11
9.435245108372465
 21
-9.31343575285916
 31
0.0
  0
LINE
  5
3B7
330
1F
100
AcDbEntity
  8
0
100
AcDbLine
 10
9.435245108372465
 20
-9.31343575285916
 30
0.0
 11
9.272139012649383
 21
-9.046686470123204
 31
0.0
  0
LINE
  5
3B8
330
1F
100
AcDbEntity
  8
0
100
AcDbLine
 10
52.35933004923002
 20
-4.343852463808001
 30
0.0
 11
47.77712861486125
 21
8.985631862460062
 31
0.0
  0
LINE
  5
3B9
330
1F
100
AcDbEntity
  8
0
100
AcDbLine
 10
46.9736339131285
 20
8.985631862460062
 30
0.0
 11
42.23161227752475
 21
-4.343852463808001
 31
0.0
  0
LINE
  5
3BA
330
1F
100
AcDbEntity
  8
0
100
AcDbLine
 10
42.23161227752475
 20
-4.343852463808001
 30
0.0
 11
52.35933004923002
 21
-4.343852463808001
 31
0.0
  0
LINE
  5
3BB
330
1F
100
AcDbEntity
  8
0
100
AcDbLine
 10
46.9736339131285
 20
8.985631862460062
 30
0.0
 11
47.3822673436156
 21
10.13427126679573
 31
0.0
  0
LINE
  5
3BC
330
1F
100
AcDbEntity
  8
0
100
AcDbLine
 10
47.77712861486125
 20
8.985631862460062
 30
0.0
 11
47.3822673436156
 21
10.13427126679573
 31
0.0
  0
LINE
  5
3BD
330
1F
100
AcDbEntity
  8
0
100
AcDbLine
 10
57.08233141389207
 20
-16.19363668373758
 30
0.0
 11
57.20298232183297
 21
-16.24182035160125
 31
0.0
  0
LINE
  5
3BE
330
1F
100
AcDbEntity
  8
0
100
AcDbLine
 10
57.20298232183297
 20
-16.24182035160125
 30
0.0
 11
57.32667148138239
 21
-16.28156074975699
 31
0.0
  0
LINE
  5
3BF
330
1F
100
AcDbEntity
  8
0
100
AcDbLine
 10
57.32667148138239
 20
-16.28156074975699
 30
0.0
 11
57.4528088201365
 21
-16.31266829237245
 31
0.0
  0
LINE
  5
3C0
330
1F
100
AcDbEntity
  8
0
100
AcDbLine
 10
57.4528088201365
 20
-16.31266829237245
 30
0.0
 11
57.55497297835966
 21
-16.33049044436181
 31
0.0
  0
LINE
  5
3C1
330
1F
100
AcDbEntity
  8
0
100
AcDbLine
 10
57.55497297835966
 20
-16.33049044436181
 30
0.0
 11
60.5858121156187
 21
-16.32805368940804
 31
0.0
  0
LINE
  5
3C2
330
1F
100
AcDbEntity
  8
0
100
AcDbLine
 10
60.5858121156187
 20
-16.32805368940804
 30
0.0
 11
60.77288763768853
 21
-16.29835535465149
 31
0.0
  0
LINE
  5
3C3
330
1F
100
AcDbEntity
  8
0
100
AcDbLine
 10
60.77288763768853
 20
-16.29835535465149
 30
0.0
 11
60.9676459687762
 21
-16.24554441646735
 31
0.0
  0
LINE
  5
3C4
330
1F
100
AcDbEntity
  8
0
100
AcDbLine
 10
60.9676459687762
 20
-16.24554441646735
 30
0.0
 11
61.1556242728315
 21
-16.17216894423941
 31
0.0
  0
LINE
  5
3C5
330
1F
100
AcDbEntity
  8
0
100
AcDbLine
 10
61.1556242728315
 20
-16.17216894423941
 30
0.0
 11
61.33465807063095
 21
-16.07907382102984
 31
0.0
  0
LINE
  5
3C6
330
1F
100
AcDbEntity
  8
0
100
AcDbLine
 10
61.33465807063095
 20
-16.07907382102984
 30
0.0
 11
61.50268587461553
 21
-15.96733099213985
 31
0.0
  0
LINE
  5
3C7
330
1F
100
AcDbEntity
  8
0
100
AcDbLine
 10
61.50268587461553
 20
-15.96733099213985
 30
0.0
 11
61.65777292591763
 21
-15.83822712218054
 31
0.0
  0
LINE
  5
3C8
330
1F
100
AcDbEntity
  8
0
100
AcDbLine
 10
61.65777292591763
 20
-15.83822712218054
 30
0.0
 11
61.79813347217683
 21
-15.69324877975075
 31
0.0
  0
LINE
  5
3C9
330
1F
100
AcDbEntity
  8
0
100
AcDbLine
 10
61.79813347217683
 20
-15.69324877975075
 30
0.0
 11
61.92215132961383
 21
-15.5340653203183
 31
0.0
  0
LINE
  5
3CA
330
1F
100
AcDbEntity
  8
0
100
AcDbLine
 10
61.92215132961383
 20
-15.5340653203183
 30
0.0
 11
62.02839849260285
 21
-15.362509664402
 31
0.0
  0
LINE
  5
3CB
330
1F
100
AcDbEntity
  8
0
100
AcDbLine
 10
62.02839849260285
 20
-15.362509664402
 30
0.0
 11
62.11565157646721
 21
-15.18055719237674
 31
0.0
  0
LINE
  5
3CC
330
1F
100
AcDbEntity
  8
0
100
AcDbLine
 10
62.11565157646721
 20
-15.18055719237674
 30
0.0
 11
62.18290590416203
 21
-14.99030299892337
 31
0.0
  0
LINE
  5
3CD
330
1F
100
AcDbEntity
  8
0
100
AcDbLine
 10
62.18290590416203
 20
-14.99030299892337
 30
0.0
 11
62.22938707464272
 21
-14.79393776903124
 31
0.0
  0
LINE
  5
3CE
330
1F
100
AcDbEntity
  8
0
100
AcDbLine
 10
62.22938707464272
 20
-14.79393776903124
 30
0.0
 11
62.2545598797205
 21
-14.59372255331434
 31
0.0
  0
LINE
  5
3CF
330
1F
100
AcDbEntity
  8
0
100
AcDbLine
 10
62.2545598797205
 20
-14.59372255331434
 30
0.0
 11
62.25813446672401
 21
-14.39196273311232
 31
0.0
  0
LINE
  5
3D0
330
1F
100
AcDbEntity
  8
0
100
AcDbLine
 10
62.25813446672401
 20
-14.39196273311232
 30
0.0
 11
62.24006967601339
 21
-14.19098147513895
 31
0.0
  0
LINE
  5
3D1
330
1F
100
AcDbEntity
  8
0
100
AcDbLine
 10
62.24006967601339
 20
-14.19098147513895
 30
0.0
 11
62.20057351491349
 21
-13.99309298133917
 31
0.0
  0
LINE
  5
3D2
330
1F
100
AcDbEntity
  8
0
100
AcDbLine
 10
62.20057351491349
 20
-13.99309298133917
 30
0.0
 11
62.13607239930282
 21
-13.78775140533771
 31
0.0
  0
LINE
  5
3D3
330
1F
100
AcDbEntity
  8
0
100
AcDbLine
 10
62.13607239930282
 20
-13.78775140533771
 30
0.0
 11
51.34821898109588
 21
15.04433614036242
 31
0.0
  0
LINE
  5
3D4
330
1F
100
AcDbEntity
  8
0
100
AcDbLine
 10
51.34821898109588
 20
15.04433614036242
 30
0.0
 11
51.29662700813056
 21
15.16923484523243
 31
0.0
  0
LINE
  5
3D5
330
1F
100
AcDbEntity
  8
0
100
AcDbLine
 10
51.29662700813056
 20
15.16923484523243
 30
0.0
 11
51.24047790717995
 21
15.28282187973718
 31
0.0
  0
LINE
  5
3D6
330
1F
100
AcDbEntity
  8
0
100
AcDbLine
 10
51.24047790717995
 20
15.28282187973718
 30
0.0
 11
51.17680899402725
 21
15.39237098033963
 31
0.0
  0
LINE
  5
3D7
330
1F
100
AcDbEntity
  8
0
100
AcDbLine
 10
51.17680899402725
 20
15.39237098033963
 30
0.0
 11
51.10590918270883
 21
15.49738503987588
 31
0.0
  0
LINE
  5
3D8
330
1F
100
AcDbEntity
  8
0
100
AcDbLine
 10
51.10590918270883
 20
15.49738503987588
 30
0.0
 11
51.02810019932076
 21
15.59738753009035
 31
0.0
  0
LINE
  5
3D9
330
1F
100
AcDbEntity
  8
0
100
AcDbLine
 10
51.02810019932076
 20
15.59738753009035
 30
0.0
 11
50.94373512209873
 21
15.69192466401309
 31
0.0
  0
LINE
  5
3DA
330
1F
100
AcDbEntity
  8
0
100
AcDbLine
 10
50.94373512209873
 20
15.69192466401309
 30
0.0
 11
50.85319677923792
 21
15.78056745513053
 31
0.0
  0
LINE
  5
3DB
330
1F
100
AcDbEntity
  8
0
100
AcDbLine
 10
50.85319677923792
 20
15.78056745513053
 30
0.0
 11
50.7568960117116
 21
15.86291366402193
 31
0.0
  0
LINE
  5
3DC
330
1F
100
AcDbEntity
  8
0
100
AcDbLine
 10
50.7568960117116
 20
15.86291366402193
 30
0.0
 11
50.65526980897285
 21
15.93858962362617
 31
0.0
  0
LINE
  5
3DD
330
1F
100
AcDbEntity
  8
0
100
AcDbLine
 10
50.65526980897285
 20
15.93858962362617
 30
0.0
 11
50.54877932600566
 21
16.00725193484927
 31
0.0
  0
LINE
  5
3DE
330
1F
100
AcDbEntity
  8
0
100
AcDbLine
 10
50.54877932600566
 20
16.00725193484927
 30
0.0
 11
50.43790779071385
 21
16.0685890248277
 31
0.0
  0
LINE
  5
3DF
330
1F
100
AcDbEntity
  8
0
100
AcDbLine
 10
50.43790779071385
 20
16.0685890248277
 30
0.0
 11
50.32315831114948
 21
16.12232256077041
 31
0.0
  0
LINE
  5
3E0
330
1F
100
AcDbEntity
  8
0
100
AcDbLine
 10
50.32315831114948
 20
16.12232256077041
 30
0.0
 11
50.20505159253553
 21
16.16820871296322
 31
0.0
  0
LINE
  5
3E1
330
1F
100
AcDbEntity
  8
0
100
AcDbLine
 10
50.20505159253553
 20
16.16820871296322
 30
0.0
 11
50.08412357442378
 21
16.20603926121227
 31
0.0
  0
LINE
  5
3E2
330
1F
100
AcDbEntity
  8
0
100
AcDbLine
 10
50.08412357442378
 20
16.20603926121227
 30
0.0
 11
49.96092299874253
 21
16.23564253969259
 31
0.0
  0
LINE
  5
3E3
330
1F
100
AcDbEntity
  8
0
100
AcDbLine
 10
49.96092299874253
 20
16.23564253969259
 30
0.0
 11
49.86124087452159
 21
16.25259351452248
 31
0.0
  0
LINE
  5
3E4
330
1F
100
AcDbEntity
  8
0
100
AcDbLine
 10
49.86124087452159
 20
16.25259351452248
 30
0.0
 11
45.02283747201704
 21
16.24808071057798
 31
0.0
  0
LINE
  5
3E5
330
1F
100
AcDbEntity
  8
0
100
AcDbLine
 10
45.02283747201704
 20
16.24808071057798
 30
0.0
 11
44.92178846503074
 21
16.23125807706861
 31
0.0
  0
LINE
  5
3E6
330
1F
100
AcDbEntity
  8
0
100
AcDbLine
 10
44.92178846503074
 20
16.23125807706861
 30
0.0
 11
44.79850024568245
 21
16.20208718171056
 31
0.0
  0
LINE
  5
3E7
330
1F
100
AcDbEntity
  8
0
100
AcDbLine
 10
44.79850024568245
 20
16.20208718171056
 30
0.0
 11
44.67745537347501
 21
16.1646831033385
 31
0.0
  0
LINE
  5
3E8
330
1F
100
AcDbEntity
  8
0
100
AcDbLine
 10
44.67745537347501
 20
16.1646831033385
 30
0.0
 11
44.55920299021215
 21
16.11921553227206
 31
0.0
  0
LINE
  5
3E9
330
1F
100
AcDbEntity
  8
0
100
AcDbLine
 10
44.55920299021215
 20
16.11921553227206
 30
0.0
 11
44.44427956906245
 21
16.06589074031104
 31
0.0
  0
LINE
  5
3EA
330
1F
100
AcDbEntity
  8
0
100
AcDbLine
 10
44.44427956906245
 20
16.06589074031104
 30
0.0
 11
44.33320648076577
 21
16.00495064495102
 31
0.0
  0
LINE
  5
3EB
330
1F
100
AcDbEntity
  8
0
100
AcDbLine
 10
44.33320648076577
 20
16.00495064495102
 30
0.0
 11
44.22648762833232
 21
15.93667171187752
 31
0.0
  0
LINE
  5
3EC
330
1F
100
AcDbEntity
  8
0
100
AcDbLine
 10
44.22648762833232
 20
15.93667171187752
 30
0.0
 11
44.12460716100185
 21
15.86136370073266
 31
0.0
  0
LINE
  5
3ED
330
1F
100
AcDbEntity
  8
0
100
AcDbLine
 10
44.12460716100185
 20
15.86136370073266
 30
0.0
 11
44.02802727780737
 21
15.77936825983082
 31
0.0
  0
LINE
  5
3EE
330
1F
100
AcDbEntity
  8
0
100
AcDbLine
 10
44.02802727780737
 20
15.77936825983082
 30
0.0
 11
43.93718613073533
 21
15.69105737621651
 31
0.0
  0
LINE
  5
3EF
330
1F
100
AcDbEntity
  8
0
100
AcDbLine
 10
43.93718613073533
 20
15.69105737621651
 30
0.0
 11
43.85249583696026
 21
15.59683168806979
 31
0.0
  0
LINE
  5
3F0
330
1F
100
AcDbEntity
  8
0
100
AcDbLine
 10
43.85249583696026
 20
15.59683168806979
 30
0.0
 11
43.77434060921007
 21
15.49711866714761
 31
0.0
  0
LINE
  5
3F1
330
1F
100
AcDbEntity
  8
0
100
AcDbLine
 10
43.77434060921007
 20
15.49711866714761
 30
0.0
 11
43.70307501270891
 21
15.39237067947389
 31
0.0
  0
LINE
  5
3F2
330
1F
100
AcDbEntity
  8
0
100
AcDbLine
 10
43.70307501270891
 20
15.39237067947389
 30
0.0
 11
43.63902235663357
 21
15.28306293310574
 31
0.0
  0
LINE
  5
3F3
330
1F
100
AcDbEntity
  8
0
100
AcDbLine
 10
43.63902235663357
 20
15.28306293310574
 30
0.0
 11
43.58247322736135
 21
15.16969132226487
 31
0.0
  0
LINE
  5
3F4
330
1F
100
AcDbEntity
  8
0
100
AcDbLine
 10
43.58247322736135
 20
15.16969132226487
 30
0.0
 11
43.53043912266939
 21
15.04499354306021
 31
0.0
  0
LINE
  5
3F5
330
1F
100
AcDbEntity
  8
0
100
AcDbLine
 10
43.53043912266939
 20
15.04499354306021
 30
0.0
 11
32.62168291116217
 21
-13.79382635723723
 31
0.0
  0
LINE
  5
3F6
330
1F
100
AcDbEntity
  8
0
100
AcDbLine
 10
32.62168291116217
 20
-13.79382635723723
 30
0.0
 11
32.55644388516926
 21
-13.99893432017245
 31
0.0
  0
LINE
  5
3F7
330
1F
100
AcDbEntity
  8
0
100
AcDbLine
 10
32.55644388516926
 20
-13.99893432017245
 30
0.0
 11
32.51623637932657
 21
-14.19667917492794
 31
0.0
  0
LINE
  5
3F8
330
1F
100
AcDbEntity
  8
0
100
AcDbLine
 10
32.51623637932657
 20
-14.19667917492794
 30
0.0
 11
32.49744891326046
 21
-14.3975938389701
 31
0.0
  0
LINE
  5
3F9
330
1F
100
AcDbEntity
  8
0
100
AcDbLine
 10
32.49744891326046
 20
-14.3975938389701
 30
0.0
 11
32.5002978148532
 21
-14.59936488463336
 31
0.0
  0
LINE
  5
3FA
330
1F
100
AcDbEntity
  8
0
100
AcDbLine
 10
32.5002978148532
 20
-14.59936488463336
 30
0.0
 11
32.52475028048728
 21
-14.7996690234642
 31
0.0
  0
LINE
  5
3FB
330
1F
100
AcDbEntity
  8
0
100
AcDbLine
 10
32.52475028048728
 20
-14.7996690234642
 30
0.0
 11
32.5705247527625
 21
-14.99619985767668
 31
0.0
  0
LINE
  5
3FC
330
1F
100
AcDbEntity
  8
0
100
AcDbLine
 10
32.5705247527625
 20
-14.99619985767668
 30
0.0
 11
32.63709416248243
 21
-15.18669443712169
 31
0.0
  0
LINE
  5
3FD
330
1F
100
AcDbEntity
  8
0
100
AcDbLine
 10
32.63709416248243
 20
-15.18669443712169
 30
0.0
 11
32.72369199758128
 21
-15.36895931597765
 31
0.0
  0
LINE
  5
3FE
330
1F
100
AcDbEntity
  8
0
100
AcDbLine
 10
32.72369199758128
 20
-15.36895931597765
 30
0.0
 11
32.82932112911219
 21
-15.54089580913865
 31
0.0
  0
LINE
  5
3FF
330
1F
100
AcDbEntity
  8
0
100
AcDbLine
 10
32.82932112911219
 20
-15.54089580913865
 30
0.0
 11
32.95276529266539
 21
-15.70052415747634
 31
0.0
  0
LINE
  5
400
330
1F
100
AcDbEntity
  8
0
100
AcDbLine
 10
32.95276529266539
 20
-15.70052415747634
 30
0.0
 11
33.09260309302064
 21
-15.84600632373734
 31
0.0
  0
LINE
  5
401
330
1F
100
AcDbEntity
  8
0
100
AcDbLine
 10
33.09260309302064
 20
-15.84600632373734
 30
0.0
 11
33.24722437077311
 21
-15.97566715658449
 31
0.0
  0
LINE
  5
402
330
1F
100
AcDbEntity
  8
0
100
AcDbLine
 10
33.24722437077311
 20
-15.97566715658449
 30
0.0
 11
33.41484874247764
 21
-16.0880136790896
 31
0.0
  0
LINE
  5
403
330
1F
100
AcDbEntity
  8
0
100
AcDbLine
 10
33.41484874247764
 20
-16.0880136790896
 30
0.0
 11
33.59354610083876
 21
-16.18175227958682
 31
0.0
  0
LINE
  5
404
330
1F
100
AcDbEntity
  8
0
100
AcDbLine
 10
33.59354610083876
 20
-16.18175227958682
 30
0.0
 11
33.78125883888858
 21
-16.25580360693579
 31
0.0
  0
LINE
  5
405
330
1F
100
AcDbEntity
  8
0
100
AcDbLine
 10
33.78125883888858
 20
-16.25580360693579
 30
0.0
 11
33.97582554226049
 21
-16.30931499868817
 31
0.0
  0
LINE
  5
406
330
1F
100
AcDbEntity
  8
0
100
AcDbLine
 10
33.97582554226049
 20
-16.30931499868817
 30
0.0
 11
34.1625002612555
 21
-16.33963885881636
 31
0.0
  0
LINE
  5
407
330
1F
100
AcDbEntity
  8
0
100
AcDbLine
 10
34.1625002612555
 20
-16.33963885881636
 30
0.0
 11
36.67269949146845
 21
-16.34773551399302
 31
0.0
  0
LINE
  5
408
330
1F
100
AcDbEntity
  8
0
100
AcDbLine
 10
36.67269949146845
 20
-16.34773551399302
 30
0.0
 11
36.81030600112744
 21
-16.34345519949023
 31
0.0
  0
LINE
  5
409
330
1F
100
AcDbEntity
  8
0
100
AcDbLine
 10
36.81030600112744
 20
-16.34345519949023
 30
0.0
 11
36.9387514178512
 21
-16.33060175202903
 31
0.0
  0
LINE
  5
40A
330
1F
100
AcDbEntity
  8
0
100
AcDbLine
 10
36.9387514178512
 20
-16.33060175202903
 30
0.0
 11
37.06601276302021
 21
-16.3089687629857
 31
0.0
  0
LINE
  5
40B
330
1F
100
AcDbEntity
  8
0
100
AcDbLine
 10
37.06601276302021
 20
-16.3089687629857
 30
0.0
 11
37.19149065409198
 21
-16.27865812061203
 31
0.0
  0
LINE
  5
40C
330
1F
100
AcDbEntity
  8
0
100
AcDbLine
 10
37.19149065409198
 20
-16.27865812061203
 30
0.0
 11
37.31459410833823
 21
-16.23981258365205
 31
0.0
  0
LINE
  5
40D
330
1F
100
AcDbEntity
  8
0
100
AcDbLine
 10
37.31459410833823
 20
-16.23981258365205
 30
0.0
 11
37.43474332628239
 21
-16.1926151089702
 31
0.0
  0
LINE
  5
40E
330
1F
100
AcDbEntity
  8
0
100
AcDbLine
 10
37.43474332628239
 20
-16.1926151089702
 30
0.0
 11
37.55137242247589
 21
-16.13728798984966
 31
0.0
  0
LINE
  5
40F
330
1F
100
AcDbEntity
  8
0
100
AcDbLine
 10
37.55137242247589
 20
-16.13728798984966
 30
0.0
 11
37.66393209073268
 21
-16.07409180902486
 31
0.0
  0
LINE
  5
410
330
1F
100
AcDbEntity
  8
0
100
AcDbLine
 10
37.66393209073268
 20
-16.07409180902486
 30
0.0
 11
37.77189219128689
 21
-16.00332421137177
 31
0.0
  0
LINE
  5
411
330
1F
100
AcDbEntity
  8
0
100
AcDbLine
 10
37.77189219128689
 20
-16.00332421137177
 30
0.0
 11
37.8747442476672
 21
-15.92531850204806
 31
0.0
  0
LINE
  5
412
330
1F
100
AcDbEntity
  8
0
100
AcDbLine
 10
37.8747442476672
 20
-15.92531850204806
 30
0.0
 11
37.97200384155779
 21
-15.84044207666708
 31
0.0
  0
LINE
  5
413
330
1F
100
AcDbEntity
  8
0
100
AcDbLine
 10
37.97200384155779
 20
-15.84044207666708
 30
0.0
 11
38.06321289432751
 21
-15.74909469092595
 31
0.0
  0
LINE
  5
414
330
1F
100
AcDbEntity
  8
0
100
AcDbLine
 10
38.06321289432751
 20
-15.74909469092595
 30
0.0
 11
38.14794182452302
 21
-15.65170657780626
 31
0.0
  0
LINE
  5
415
330
1F
100
AcDbEntity
  8
0
100
AcDbLine
 10
38.14794182452302
 20
-15.65170657780626
 30
0.0
 11
38.22579157112938
 21
-15.54873642124496
 31
0.0
  0
LINE
  5
416
330
1F
100
AcDbEntity
  8
0
100
AcDbLine
 10
38.22579157112938
 20
-15.54873642124496
 30
0.0
 11
38.29639547309358
 21
-15.44066919579449
 31
0.0
  0
LINE
  5
417
330
1F
100
AcDbEntity
  8
0
100
AcDbLine
 10
38.29639547309358
 20
-15.44066919579449
 30
0.0
 11
38.35942099624218
 21
-15.32801388246713
 31
0.0
  0
LINE
  5
418
330
1F
100
AcDbEntity
  8
0
100
AcDbLine
 10
38.35942099624218
 20
-15.32801388246713
 30
0.0
 11
38.41099234195034
 21
-15.218875104069
 31
0.0
  0
LINE
  5
419
330
1F
100
AcDbEntity
  8
0
100
AcDbLine
 10
38.41099234195034
 20
-15.218875104069
 30
0.0
 11
40.6546372386773
 21
-8.862898512570876
 31
0.0
  0
LINE
  5
41A
330
1F
100
AcDbEntity
  8
0
100
AcDbLine
 10
40.6546372386773
 20
-8.862898512570876
 30
0.0
 11
53.94881760532772
 21
-8.862898512570876
 31
0.0
  0
LINE
  5
41B
330
1F
100
AcDbEntity
  8
0
100
AcDbLine
 10
53.94881760532772
 20
-8.862898512570876
 30
0.0
 11
56.05569116113941
 21
-15.06858267602857
 31
0.0
  0
LINE
  5
41C
330
1F
100
AcDbEntity
  8
0
100
AcDbLine
 10
56.05569116113941
 20
-15.06858267602857
 30
0.0
 11
56.10473985556612
 21
-15.19816869465983
 31
0.0
  0
LINE
  5
41D
330
1F
100
AcDbEntity
  8
0
100
AcDbLine
 10
56.10473985556612
 20
-15.19816869465983
 30
0.0
 11
56.15900707102852
 21
-15.31620842001406
 31
0.0
  0
LINE
  5
41E
330
1F
100
AcDbEntity
  8
0
100
AcDbLine
 10
56.15900707102852
 20
-15.31620842001406
 30
0.0
 11
56.22129293402345
 21
-15.43022060667229
 31
0.0
  0
LINE
  5
41F
330
1F
100
AcDbEntity
  8
0
100
AcDbLine
 10
56.22129293402345
 20
-15.43022060667229
 30
0.0
 11
56.29130030316029
 21
-15.53966134726844
 31
0.0
  0
LINE
  5
420
330
1F
100
AcDbEntity
  8
0
100
AcDbLine
 10
56.29130030316029
 20
-15.53966134726844
 30
0.0
 11
56.3686952007745
 21
-15.64400854300909
 31
0.0
  0
LINE
  5
421
330
1F
100
AcDbEntity
  8
0
100
AcDbLine
 10
56.3686952007745
 20
-15.64400854300909
 30
0.0
 11
56.4531084062045
 21
-15.74276439440339
 31
0.0
  0
LINE
  5
422
330
1F
100
AcDbEntity
  8
0
100
AcDbLine
 10
56.4531084062045
 20
-15.74276439440339
 30
0.0
 11
56.54413721719926
 21
-15.83545777606911
 31
0.0
  0
LINE
  5
423
330
1F
100
AcDbEntity
  8
0
100
AcDbLine
 10
56.54413721719926
 20
-15.83545777606911
 30
0.0
 11
56.64134737104991
 21
-15.9216464842844
 31
0.0
  0
LINE
  5
424
330
1F
100
AcDbEntity
  8
0
100
AcDbLine
 10
56.64134737104991
 20
-15.9216464842844
 30
0.0
 11
56.7442751162913
 21
-16.00091934657265
 31
0.0
  0
LINE
  5
425
330
1F
100
AcDbEntity
  8
0
100
AcDbLine
 10
56.7442751162913
 20
-16.00091934657265
 30
0.0
 11
56.85242942507148
 21
-16.07289818323904
 31
0.0
  0
LINE
  5
426
330
1F
100
AcDbEntity
  8
0
100
AcDbLine
 10
56.85242942507148
 20
-16.07289818323904
 30
0.0
 11
56.96529433565987
 21
-16.13723961152276
 31
0.0
  0
LINE
  5
427
330
1F
100
AcDbEntity
  8
0
100
AcDbLine
 10
56.96529433565987
 20
-16.13723961152276
 30
0.0
 11
57.08233141389207
 21
-16.19363668373758
 31
0.0
  0
ENDSEC
  0
SECTION
  2
OBJECTS
  0
DICTIONARY
  5
C
330
0
100
AcDbDictionary
  3
ACAD_GROUP
350
D
  3
ACAD_LAYOUT
350
1A
  3
ACAD_MATERIAL
350
43
  3
ACAD_MLEADERSTYLE
350
44A
  3
ACAD_MLINESTYLE
350
17
  3
ACAD_PLOTSETTINGS
350
19
  3
ACAD_SCALELIST
350
47
  3
ACAD_VISUALSTYLE
350
2A
  3
ACDBHEADERROUNDTRIPXREC
350
428
  3
ACDBVARIABLEDICTIONARY
350
448
  0
DICTIONARY
  5
44F
330
8
100
AcDbDictionary
280
     1
  3
ACAD_XREC_ROUNDTRIP
360
450
  0
DICTIONARY
  5
D
102
{ACAD_REACTORS
330
C
102
}
330
C
100
AcDbDictionary
  0
DICTIONARY
  5
1A
102
{ACAD_REACTORS
330
C
102
}
330
C
100
AcDbDictionary
  0
DICTIONARY
  5
43
102
{ACAD_REACTORS
330
C
102
}
330
C
100
AcDbDictionary
  3
BYBLOCK
350
45
  3
BYLAYER
350
44
  3
GLOBAL
350
46
  0
DICTIONARY
  5
44A
102
{ACAD_REACTORS
330
C
102
}
330
C
100
AcDbDictionary
  0
DICTIONARY
  5
17
102
{ACAD_REACTORS
330
C
102
}
330
C
100
AcDbDictionary
  3
STANDARD
350
18
  0
DICTIONARY
  5
19
102
{ACAD_REACTORS
330
C
102
}
330
C
100
AcDbDictionary
  0
DICTIONARY
  5
47
102
{ACAD_REACTORS
330
C
102
}
330
C
100
AcDbDictionary
  3
A0
350
48
  3
A1
350
49
  3
A2
350
4A
  3
A3
350
4B
  3
A4
350
4C
  3
A5
350
4D
  3
A6
350
4E
  3
A7
350
4F
  3
A8
350
50
  3
A9
350
51
  3
B0
350
52
  3
B1
350
53
  3
B2
350
54
  3
B3
350
55
  3
B4
350
56
  3
B5
350
57
  3
B6
350
58
  3
B7
350
59
  3
B8
350
5A
  3
B9
350
5B
  3
C0
350
5C
  3
C1
350
5D
  3
C2
350
5E
  3
C3
350
5F
  3
C4
350
60
  3
C5
350
61
  3
C6
350
62
  3
C7
350
63
  3
C8
350
64
  3
C9
350
65
  3
D0
350
66
  3
D1
350
67
  3
D2
350
68
  0
DICTIONARY
  5
2A
102
{ACAD_REACTORS
330
C
102
}
330
C
100
AcDbDictionary
  3
2DWIREFRAME
350
2F
  3
BASIC
350
32
  3
BRIGHTEN
350
36
  3
COLORCHANGE
350
3A
  3
CONCEPTUAL
350
34
  3
DIM
350
35
  3
EDGECOLOROFF
350
3D
  3
FACEPATTERN
350
39
  3
FLAT
350
2B
  3
FLATWITHEDGES
350
2C
  3
GOURAUD
350
2D
  3
GOURAUDWITHEDGES
350
2E
  3
HIDDEN
350
31
  3
JITTEROFF
350
3B
  3
LINEPATTERN
350
38
  3
OVERHANGOFF
350
3C
  3
REALISTIC
350
33
  3
SHADED
350
42
  3
SHADED_WITH_EDGES
350
41
  3
SHADES_OF_GRAY
350
3E
  3
SKETCHY
350
3F
  3
THICKEN
350
37
  3
WIREFRAME
350
30
  3
X-RAY
350
40
  0
DICTIONARY
  5
428
102
{ACAD_REACTORS
330
C
102
}
330
C
100
AcDbDictionary
  3
CEPSNTYPE
350
431
  3
DIMSTYLEDATA
350
447
  3
FINGERPRINTGUID
350
432
  3
HYPERLINKBASE
350
42B
  3
INSUNITS
350
430
  3
LAYOUTDICT
350
42D
  3
LWETCUNION
350
42F
  3
PLOTSETDICT
350
42E
  3
PSVPSCALE
350
434
  3
PUCSBASE
350
437
  3
PUCSORGBACK
350
43D
  3
PUCSORGBOTTOM
350
439
  3
PUCSORGFRONT
350
43C
  3
PUCSORGLEFT
350
43A
  3
PUCSORGRIGHT
350
43B
  3
PUCSORGTOP
350
438
  3
PUCSORTHOREF
350
435
  3
PUCSORTHOVIEW
350
436
  3
STYLESHEET
350
42C
  3
TSTACKALIGN
350
429
  3
TSTACKSIZE
350
42A
  3
UCSBASE
350
440
  3
UCSORGBACK
350
446
  3
UCSORGBOTTOM
350
442
  3
UCSORGFRONT
350
445
  3
UCSORGLEFT
350
443
  3
UCSORGRIGHT
350
444
  3
UCSORGTOP
350
441
  3
UCSORTHOREF
350
43E
  3
UCSORTHOVIEW
350
43F
  3
VERSIONGUID
350
433
  0
DICTIONARY
  5
448
102
{ACAD_REACTORS
330
C
102
}
330
C
100
AcDbDictionary
  3
CANNOSCALE
350
451
  3
DIMASSOC
350
44D
  3
HIDETEXT
350
44E
  3
MSLTSCALE
350
452
  0
XRECORD
  5
450
102
{ACAD_REACTORS
330
44F
102
}
330
44F
100
AcDbXrecord
102
VTR_0.000_0.000_1.000_1.000_GRIDDISPLAY
 70
     3
102
VTR_0.000_0.000_1.000_1.000_GRIDMAJOR
 70
     5
102
VTR_0.000_0.000_1.000_1.000_DEFAULTLIGHTING
280
     1
102
VTR_0.000_0.000_1.000_1.000_DEFAULTLIGHTINGTYPE
 70
     1
102
VTR_0.000_0.000_1.000_1.000_BRIGHTNESS
141
0.0
102
VTR_0.000_0.000_1.000_1.000_CONTRAST
142
0.0
  0
MATERIAL
  5
45
102
{ACAD_REACTORS
330
43
102
}
102
{ACAD_XDICTIONARY
360
455
102
}
330
43
100
AcDbMaterial
  1
BYBLOCK
  0
MATERIAL
  5
44
102
{ACAD_REACTORS
330
43
102
}
102
{ACAD_XDICTIONARY
360
453
102
}
330
43
100
AcDbMaterial
  1
BYLAYER
  0
MATERIAL
  5
46
102
{ACAD_REACTORS
330
43
102
}
102
{ACAD_XDICTIONARY
360
457
102
}
330
43
100
AcDbMaterial
  1
GLOBAL
  0
MLINESTYLE
  5
18
102
{ACAD_REACTORS
330
17
102
}
330
17
100
AcDbMlineStyle
  2
Standard
 70
     0
  3

 62
   256
 51
90.0
 52
90.0
 71
     2
 49
0.5
 62
   256
  6
BYLAYER
 49
-0.5
 62
   256
  6
BYLAYER
  0
ACAD_PROXY_OBJECT
  5
48
102
{ACAD_REACTORS
330
47
102
}
330
47
100
AcDbProxyObject
 90
      499
 91
      503
 93
       41
310
903313A31580
  0
ACAD_PROXY_OBJECT
  5
49
102
{ACAD_REACTORS
330
47
102
}
330
47
100
AcDbProxyObject
 90
      499
 91
      503
 93
      105
310
903313A324000000000000004000
  0
ACAD_PROXY_OBJECT
  5
4A
102
{ACAD_REACTORS
330
47
102
}
330
47
100
AcDbProxyObject
 90
      499
 91
      503
 93
      105
310
903313A344000000000000104000
  0
ACAD_PROXY_OBJECT
  5
4B
102
{ACAD_REACTORS
330
47
102
}
330
47
100
AcDbProxyObject
 90
      499
 91
      503
 93
      105
310
903313A354000000000000144000
  0
ACAD_PROXY_OBJECT
  5
4C
102
{ACAD_REACTORS
330
47
102
}
330
47
100
AcDbProxyObject
 90
      499
 91
      503
 93
      105
310
903313A384000000000000204000
  0
ACAD_PROXY_OBJECT
  5
4D
102
{ACAD_REACTORS
330
47
102
}
330
47
100
AcDbProxyObject
 90
      499
 91
      503
 93
      113
310
904313A31304000000000000244000
  0
ACAD_PROXY_OBJECT
  5
4E
102
{ACAD_REACTORS
330
47
102
}
330
47
100
AcDbProxyObject
 90
      499
 91
      503
 93
      113
310
904313A31364000000000000304000
  0
ACAD_PROXY_OBJECT
  5
4F
102
{ACAD_REACTORS
330
47
102
}
330
47
100
AcDbProxyObject
 90
      499
 91
      503
 93
      113
310
904313A32304000000000000344000
  0
ACAD_PROXY_OBJECT
  5
50
102
{ACAD_REACTORS
330
47
102
}
330
47
100
AcDbProxyObject
 90
      499
 91
      503
 93
      113
310
904313A333040000000000003E4000
  0
ACAD_PROXY_OBJECT
  5
51
102
{ACAD_REACTORS
330
47
102
}
330
47
100
AcDbProxyObject
 90
      499
 91
      503
 93
      113
310
904313A34304000000000000444000
  0
ACAD_PROXY_OBJECT
  5
52
102
{ACAD_REACTORS
330
47
102
}
330
47
100
AcDbProxyObject
 90
      499
 91
      503
 93
      113
310
904313A35304000000000000494000
  0
ACAD_PROXY_OBJECT
  5
53
102
{ACAD_REACTORS
330
47
102
}
330
47
100
AcDbProxyObject
 90
      499
 91
      503
 93
      121
310
905313A3130304000000000000594000
  0
ACAD_PROXY_OBJECT
  5
54
102
{ACAD_REACTORS
330
47
102
}
330
47
100
AcDbProxyObject
 90
      499
 91
      503
 93
      105
310
903323A310000000000000010100
  0
ACAD_PROXY_OBJECT
  5
55
102
{ACAD_REACTORS
330
47
102
}
330
47
100
AcDbProxyObject
 90
      499
 91
      503
 93
      105
310
903343A310000000000000410100
  0
ACAD_PROXY_OBJECT
  5
56
102
{ACAD_REACTORS
330
47
102
}
330
47
100
AcDbProxyObject
 90
      499
 91
      503
 93
      105
310
903383A310000000000000810100
  0
ACAD_PROXY_OBJECT
  5
57
102
{ACAD_REACTORS
330
47
102
}
330
47
100
AcDbProxyObject
 90
      499
 91
      503
 93
      113
310
90431303A310000000000000910100
  0
ACAD_PROXY_OBJECT
  5
58
102
{ACAD_REACTORS
330
47
102
}
330
47
100
AcDbProxyObject
 90
      499
 91
      503
 93
      121
310
9053130303A310000000000001650100
  0
ACAD_PROXY_OBJECT
  5
59
102
{ACAD_REACTORS
330
47
102
}
330
47
100
AcDbProxyObject
 90
      499
 91
      503
 93
      257
310
90E312F31323822203D2031272D3022000000000000200FC000000000000284000
  0
ACAD_PROXY_OBJECT
  5
5A
102
{ACAD_REACTORS
330
47
102
}
330
47
100
AcDbProxyObject
 90
      499
 91
      503
 93
      249
310
90D312F363422203D2031272D3022000000000000240FC000000000000284000
  0
ACAD_PROXY_OBJECT
  5
5B
102
{ACAD_REACTORS
330
47
102
}
330
47
100
AcDbProxyObject
 90
      499
 91
      503
 93
      249
310
90D312F333222203D2031272D3022000000000000280FC000000000000284000
  0
ACAD_PROXY_OBJECT
  5
5C
102
{ACAD_REACTORS
330
47
102
}
330
47
100
AcDbProxyObject
 90
      499
 91
      503
 93
      249
310
90D312F313622203D2031272D30220000000000002C0FC000000000000284000
  0
ACAD_PROXY_OBJECT
  5
5D
102
{ACAD_REACTORS
330
47
102
}
330
47
100
AcDbProxyObject
 90
      499
 91
      503
 93
      249
310
90D332F333222203D2031272D30220000000000002E0FC000000000000284000
  0
ACAD_PROXY_OBJECT
  5
5E
102
{ACAD_REACTORS
330
47
102
}
330
47
100
AcDbProxyObject
 90
      499
 91
      503
 93
      241
310
90C312F3822203D2031272D3022000000000000300FC000000000000284000
  0
ACAD_PROXY_OBJECT
  5
5F
102
{ACAD_REACTORS
330
47
102
}
330
47
100
AcDbProxyObject
 90
      499
 91
      503
 93
      249
310
90D332F313622203D2031272D3022000000000000320FC000000000000284000
  0
ACAD_PROXY_OBJECT
  5
60
102
{ACAD_REACTORS
330
47
102
}
330
47
100
AcDbProxyObject
 90
      499
 91
      503
 93
      241
310
90C312F3422203D2031272D3022000000000000340FC000000000000284000
  0
ACAD_PROXY_OBJECT
  5
61
102
{ACAD_REACTORS
330
47
102
}
330
47
100
AcDbProxyObject
 90
      499
 91
      503
 93
      241
310
90C332F3822203D2031272D3022000000000000360FC000000000000284000
  0
ACAD_PROXY_OBJECT
  5
62
102
{ACAD_REACTORS
330
47
102
}
330
47
100
AcDbProxyObject
 90
      499
 91
      503
 93
      241
310
90C312F3222203D2031272D3022000000000000380FC000000000000284000
  0
ACAD_PROXY_OBJECT
  5
63
102
{ACAD_REACTORS
330
47
102
}
330
47
100
AcDbProxyObject
 90
      499
 91
      503
 93
      241
310
90C332F3422203D2031272D30220000000000003A0FC000000000000284000
  0
ACAD_PROXY_OBJECT
  5
64
102
{ACAD_REACTORS
330
47
102
}
330
47
100
AcDbProxyObject
 90
      499
 91
      503
 93
      161
310
90A3122203D2031272D30224000000000000284000
  0
ACAD_PROXY_OBJECT
  5
65
102
{ACAD_REACTORS
330
47
102
}
330
47
100
AcDbProxyObject
 90
      499
 91
      503
 93
      257
310
90E312D312F3222203D2031272D30220000000000003E0FC000000000000284000
  0
ACAD_PROXY_OBJECT
  5
66
102
{ACAD_REACTORS
330
47
102
}
330
47
100
AcDbProxyObject
 90
      499
 91
      503
 93
      225
310
90A3322203D2031272D302200000000000002100000000000000284000
  0
ACAD_PROXY_OBJECT
  5
67
102
{ACAD_REACTORS
330
47
102
}
330
47
100
AcDbProxyObject
 90
      499
 91
      503
 93
      225
310
90A3622203D2031272D302200000000000006100000000000000284000
  0
ACAD_PROXY_OBJECT
  5
68
102
{ACAD_REACTORS
330
47
102
}
330
47
100
AcDbProxyObject
 90
      499
 91
      503
 93
      249
310
90D31272D3022203D2031272D30220000000000000A100000000000000284000
  0
ACAD_PROXY_OBJECT
  5
2F
102
{ACAD_REACTORS
330
2A
102
}
330
2A
100
AcDbProxyObject
 90
      499
 91
      501
 93
      436
310
42CC9915DA5C99599C985B595049028333333333333E33F0000000000000F90107901411070040501600405405064090741402480A0340
1001
ACAD
1000
AcDbSavedByObjectVersion
1070
     0
  0
ACAD_PROXY_OBJECT
  5
32
102
{ACAD_REACTORS
330
2A
102
}
330
2A
100
AcDbProxyObject
 90
      499
 91
      501
 93
      388
310
4150985CDA58D07406404333333333333E33F0000000000000F90107A41107004050150841D405064090741402480A0350
1001
ACAD
1000
AcDbSavedByObjectVersion
1070
     0
  0
ACAD_PROXY_OBJECT
  5
36
102
{ACAD_REACTORS
330
2A
102
}
330
2A
100
AcDbProxyObject
 90
      499
 91
      501
 93
      428
310
42109C9A59DA1D195B90C409028333333333333E33F0000000000000F9010790141107004050150841D405064090741402480A029950
1001
ACAD
1000
AcDbSavedByObjectVersion
1070
     0
  0
ACAD_PROXY_OBJECT
  5
3A
102
{ACAD_REACTORS
330
2A
102
}
330
2A
100
AcDbProxyObject
 90
      499
 91
      501
 93
      452
310
42D0DBDB1BDC90DA185B99D95104090240C333333333333E33F0000000000000F90108901411070040501508421405064090741402480A0350
1001
ACAD
1000
AcDbSavedByObjectVersion
1070
     0
  0
ACAD_PROXY_OBJECT
  5
34
102
{ACAD_REACTORS
330
2A
102
}
330
2A
100
AcDbProxyObject
 90
      499
 91
      501
 93
      500
310
4290DBDB98D95C1D1D585B10940D028333333333333E33F0000000000000F90107902409070040501000000000018199010841D405064090740C02480A0340
1001
ACAD
1000
AcDbSavedByObjectVersion
1070
     0
  0
ACAD_PROXY_OBJECT
  5
35
102
{ACAD_REACTORS
330
2A
102
}
330
2A
100
AcDbProxyObject
 90
      499
 91
      501
 93
      412
310
40D11A5B50B409028333333333333E33F0000000000000F9010790141107004050150841D405064090741402480A02677FFFFFD0
1001
ACAD
1000
AcDbSavedByObjectVersion
1070
     0
  0
ACAD_PROXY_OBJECT
  5
3D
102
{ACAD_REACTORS
330
2A
102
}
330
2A
100
AcDbProxyObject
 90
      499
 91
      501
 93
      452
310
43115919D950DBDB1BDC93D999916409028333333333333E33F0000000000000F9010790141107004050150841D405064090741402480A0350
1001
ACAD
1000
AcDbSavedByObjectVersion
1070
     0
  0
ACAD_PROXY_OBJECT
  5
39
102
{ACAD_REACTORS
330
2A
102
}
330
2A
100
AcDbProxyObject
 90
      499
 91
      501
 93
      444
310
42D19858D95C185D1D195C9B90F409028333333333333E33F0000000000000F9010790141107004050150841D405064090741402480A0350
1001
ACAD
1000
AcDbSavedByObjectVersion
1070
     0
  0
ACAD_PROXY_OBJECT
  5
2B
102
{ACAD_REACTORS
330
2A
102
}
330
2A
100
AcDbProxyObject
 90
      499
 91
      501
 93
      380
310
41119B185D240901404333333333333E33F0000000000000F9010740A907004050150841D405064090741402480A1B50
1001
ACAD
1000
AcDbSavedByObjectVersion
1070
     0
  0
ACAD_PROXY_OBJECT
  5
2C
102
{ACAD_REACTORS
330
2A
102
}
330
2A
100
AcDbProxyObject
 90
      499
 91
      501
 93
      468
310
43519B185D15DA5D1A115919D95CD0140901404333333333333E33F0000000000000F90107409019070040501600405405064090741402480A1B50
1001
ACAD
1000
AcDbSavedByObjectVersion
1070
     0
  0
ACAD_PROXY_OBJECT
  5
2D
102
{ACAD_REACTORS
330
2A
102
}
330
2A
100
AcDbProxyObject
 90
      499
 91
      501
 93
      404
310
41D1DBDD5C985D5910240902404333333333333E33F0000000000000F9010740A9070040501641D405064090741402480A1B50
1001
ACAD
1000
AcDbSavedByObjectVersion
1070
     0
  0
ACAD_PROXY_OBJECT
  5
2E
102
{ACAD_REACTORS
330
2A
102
}
330
2A
100
AcDbProxyObject
 90
      499
 91
      501
 93
      492
310
4411DBDD5C985D5915DA5D1A115919D95CD0340902404333333333333E33F0000000000000F90107409019070040501600405405064090741402480A1B50
1001
ACAD
1000
AcDbSavedByObjectVersion
1070
     0
  0
ACAD_PROXY_OBJECT
  5
31
102
{ACAD_REACTORS
330
2A
102
}
330
2A
100
AcDbProxyObject
 90
      499
 91
      501
 93
      476
310
41921A5919195B90640502408333333333333E33F0000000000000F901079024090700405020000000000001110200405405064090740C02480A0340
1001
ACAD
1000
AcDbSavedByObjectVersion
1070
     0
  0
ACAD_PROXY_OBJECT
  5
3B
102
{ACAD_REACTORS
330
2A
102
}
330
2A
100
AcDbProxyObject
 90
      499
 91
      501
 93
      428
310
42529A5D1D195C93D999914409028333333333333E33F0000000000000F9010790141107004050150A41D405064090741402480A0350
1001
ACAD
1000
AcDbSavedByObjectVersion
1070
     0
  0
ACAD_PROXY_OBJECT
  5
38
102
{ACAD_REACTORS
330
2A
102
}
330
2A
100
AcDbProxyObject
 90
      499
 91
      501
 93
      444
310
42D31A5B995C185D1D195C9B90E409028333333333333E33F0000000000000F9010790141107004050750841D405064090741402483A0350
1001
ACAD
1000
AcDbSavedByObjectVersion
1070
     0
  0
ACAD_PROXY_OBJECT
  5
3C
102
{ACAD_REACTORS
330
2A
102
}
330
2A
100
AcDbProxyObject
 90
      499
 91
      501
 93
      444
310
42D3DD995C9A185B99D3D999915409028333333333333E33F0000000000000F9010790141107004050150941D405064090741402480A0350
1001
ACAD
1000
AcDbSavedByObjectVersion
1070
     0
  0
ACAD_PROXY_OBJECT
  5
33
102
{ACAD_REACTORS
330
2A
102
}
330
2A
100
AcDbProxyObject
 90
      499
 91
      501
 93
      428
310
425499585B1A5CDD1A58D08409038333333333333E33F0000000000000F9010740A907004050150800405405064090740C02480A1B40
1001
ACAD
1000
AcDbSavedByObjectVersion
1070
     0
  0
ACAD_PROXY_OBJECT
  5
42
102
{ACAD_REACTORS
330
2A
102
}
330
2A
100
AcDbProxyObject
 90
      499
 91
      501
 93
      420
310
4194DA1859195911B40902404333333333333E33F0000000000000F9010740A41107004050150800405405064090840C02480A0B40
1001
ACAD
1000
AcDbSavedByObjectVersion
1070
     0
  0
ACAD_PROXY_OBJECT
  5
41
102
{ACAD_REACTORS
330
2A
102
}
330
2A
100
AcDbProxyObject
 90
      499
 91
      501
 93
      516
310
4454DA18591959081DDA5D1A08195919D95CD1A40902404333333333333E33F0000000000000F901074090142907004050250800405405064090740C02480A0B40
1001
ACAD
1000
AcDbSavedByObjectVersion
1070
     0
  0
ACAD_PROXY_OBJECT
  5
3E
102
{ACAD_REACTORS
330
2A
102
}
330
2A
100
AcDbProxyObject
 90
      499
 91
      501
 93
      532
310
4394DA1859195CC81BD98811DC985E5174090240C333333333333E33F0000000000000F901079024090741D01000000000000111010841D405064090740C02480A0340
1001
ACAD
1000
AcDbSavedByObjectVersion
1070
     0
  0
ACAD_PROXY_OBJECT
  5
3F
102
{ACAD_REACTORS
330
2A
102
}
330
2A
100
AcDbProxyObject
 90
      499
 91
      501
 93
      476
310
41D4DAD95D18DA1E51840502408333333333333E33F0000000000000F901079024090741D01000000000000111010B41D405064090741802480A0340
1001
ACAD
1000
AcDbSavedByObjectVersion
1070
     0
  0
ACAD_PROXY_OBJECT
  5
37
102
{ACAD_REACTORS
330
2A
102
}
330
2A
100
AcDbProxyObject
 90
      499
 91
      501
 93
      412
310
41D51A1A58DAD95B90D409028333333333333E33F0000000000000F9010790141107004050150C41D405064090741402480A0350
1001
ACAD
1000
AcDbSavedByObjectVersion
1070
     0
  0
ACAD_PROXY_OBJECT
  5
30
102
{ACAD_REACTORS
330
2A
102
}
330
2A
100
AcDbProxyObject
 90
      499
 91
      501
 93
      420
310
4255DA5C99599C985B595059028333333333333E33F0000000000000F90107901411070040501600405405064090740C02480A0340
1001
ACAD
1000
AcDbSavedByObjectVersion
1070
     0
  0
ACAD_PROXY_OBJECT
  5
40
102
{ACAD_REACTORS
330
2A
102
}
330
2A
100
AcDbProxyObject
 90
      499
 91
      501
 93
      404
310
41560B54985E51940902404000000000000E03F0000000000000F9010740501907004050150841D405064090740C02480A1B40
1001
ACAD
1000
AcDbSavedByObjectVersion
1070
     0
  0
XRECORD
  5
431
102
{ACAD_REACTORS
330
428
102
}
330
428
100
AcDbXrecord
 90
        0
  0
XRECORD
  5
447
102
{ACAD_REACTORS
330
428
102
}
330
428
100
AcDbXrecord
1000
DSTYLE
1002
{
1070
   171
 70
     2
1070
   143
 40
25.4
1070
   274
 70
     2
1070
    41
 40
0.18
1070
   141
 40
0.09
1070
   271
 70
     4
1070
    43
 40
0.38
1070
   278
 70
    46
1070
    44
 40
0.18
1070
    42
 40
0.0625
1070
   147
 40
0.09
1070
    77
 70
     0
1070
   272
 70
     4
1070
    73
 70
     1
1070
   172
 70
     0
1070
    74
 70
     1
1070
   283
 70
     1
1070
   340
340
11
1070
   140
 40
0.18
1070
   284
 70
     0
1070
    78
 70
     0
1002
}
  0
XRECORD
  5
432
102
{ACAD_REACTORS
330
428
102
}
330
428
100
AcDbXrecord
  1
{0F56BCCC-EE4A-4BBE-B2EB-B4004CEA8CD9}
  0
XRECORD
  5
42B
102
{ACAD_REACTORS
330
428
102
}
330
428
100
AcDbXrecord
  1

  0
XRECORD
  5
430
102
{ACAD_REACTORS
330
428
102
}
330
428
100
AcDbXrecord
 90
        4
  0
XRECORD
  5
42D
102
{ACAD_REACTORS
330
428
102
}
330
428
100
AcDbXrecord
340
1A
  0
XRECORD
  5
42F
102
{ACAD_REACTORS
330
428
102
}
330
428
100
AcDbXrecord
 90
    10781
  0
XRECORD
  5
42E
102
{ACAD_REACTORS
330
428
102
}
330
428
100
AcDbXrecord
340
19
  0
XRECORD
  5
434
102
{ACAD_REACTORS
330
428
102
}
330
428
100
AcDbXrecord
 40
0.0
  0
XRECORD
  5
437
102
{ACAD_REACTORS
330
428
102
}
330
428
100
AcDbXrecord
340
0
  0
XRECORD
  5
43D
102
{ACAD_REACTORS
330
428
102
}
330
428
100
AcDbXrecord
 10
0.0
 20
0.0
 30
0.0
  0
XRECORD
  5
439
102
{ACAD_REACTORS
330
428
102
}
330
428
100
AcDbXrecord
 10
0.0
 20
0.0
 30
0.0
  0
XRECORD
  5
43C
102
{ACAD_REACTORS
330
428
102
}
330
428
100
AcDbXrecord
 10
0.0
 20
0.0
 30
0.0
  0
XRECORD
  5
43A
102
{ACAD_REACTORS
330
428
102
}
330
428
100
AcDbXrecord
 10
0.0
 20
0.0
 30
0.0
  0
XRECORD
  5
43B
102
{ACAD_REACTORS
330
428
102
}
330
428
100
AcDbXrecord
 10
0.0
 20
0.0
 30
0.0
  0
XRECORD
  5
438
102
{ACAD_REACTORS
330
428
102
}
330
428
100
AcDbXrecord
 10
0.0
 20
0.0
 30
0.0
  0
XRECORD
  5
435
102
{ACAD_REACTORS
330
428
102
}
330
428
100
AcDbXrecord
340
0
  0
XRECORD
  5
436
102
{ACAD_REACTORS
330
428
102
}
330
428
100
AcDbXrecord
 70
     0
  0
XRECORD
  5
42C
102
{ACAD_REACTORS
330
428
102
}
330
428
100
AcDbXrecord
  1

  0
XRECORD
  5
429
102
{ACAD_REACTORS
330
428
102
}
330
428
100
AcDbXrecord
 90
        1
  0
XRECORD
  5
42A
102
{ACAD_REACTORS
330
428
102
}
330
428
100
AcDbXrecord
 90
       70
  0
XRECORD
  5
440
102
{ACAD_REACTORS
330
428
102
}
330
428
100
AcDbXrecord
340
0
  0
XRECORD
  5
446
102
{ACAD_REACTORS
330
428
102
}
330
428
100
AcDbXrecord
 10
0.0
 20
0.0
 30
0.0
  0
XRECORD
  5
442
102
{ACAD_REACTORS
330
428
102
}
330
428
100
AcDbXrecord
 10
0.0
 20
0.0
 30
0.0
  0
XRECORD
  5
445
102
{ACAD_REACTORS
330
428
102
}
330
428
100
AcDbXrecord
 10
0.0
 20
0.0
 30
0.0
  0
XRECORD
  5
443
102
{ACAD_REACTORS
330
428
102
}
330
428
100
AcDbXrecord
 10
0.0
 20
0.0
 30
0.0
  0
XRECORD
  5
444
102
{ACAD_REACTORS
330
428
102
}
330
428
100
AcDbXrecord
 10
0.0
 20
0.0
 30
0.0
  0
XRECORD
  5
441
102
{ACAD_REACTORS
330
428
102
}
330
428
100
AcDbXrecord
 10
0.0
 20
0.0
 30
0.0
  0
XRECORD
  5
43E
102
{ACAD_REACTORS
330
428
102
}
330
428
100
AcDbXrecord
340
0
  0
XRECORD
  5
43F
102
{ACAD_REACTORS
330
428
102
}
330
428
100
AcDbXrecord
 70
     0
  0
XRECORD
  5
433
102
{ACAD_REACTORS
330
428
102
}
330
428
100
AcDbXrecord
  1
{FAEB1C32-E019-11D5-929B-00C0DF256EC4}
  0
DICTIONARYVAR
  5
451
102
{ACAD_REACTORS
330
448
102
}
330
448
100
DictionaryVariables
280
     0
  1
1:1
  0
DICTIONARYVAR
  5
44D
102
{ACAD_REACTORS
330
448
102
}
330
448
100
DictionaryVariables
280
     0
  1
2
  0
DICTIONARYVAR
  5
44E
102
{ACAD_REACTORS
330
448
102
}
330
448
100
DictionaryVariables
280
     0
  1
1
  0
DICTIONARYVAR
  5
452
102
{ACAD_REACTORS
330
448
102
}
330
448
100
DictionaryVariables
280
     0
  1
1
  0
DICTIONARY
  5
455
330
45
100
AcDbDictionary
280
     1
  3
ACAD_XREC_ROUNDTRIP
360
456
  0
DICTIONARY
  5
453
330
44
100
AcDbDictionary
280
     1
  3
ACAD_XREC_ROUNDTRIP
360
454
  0
DICTIONARY
  5
457
330
46
100
AcDbDictionary
280
     1
  3
ACAD_XREC_ROUNDTRIP
360
458
  0
XRECORD
  5
456
102
{ACAD_REACTORS
330
455
102
}
330
455
100
AcDbXrecord
102
MATERIAL
148
0.0
149
0.0
149
0.0
 93
        0
 94
      127
282
     0
 72
     1
 77
     1
171
     1
175
     1
179
     1
273
     0
  0
XRECORD
  5
454
102
{ACAD_REACTORS
330
453
102
}
330
453
100
AcDbXrecord
102
MATERIAL
148
0.0
149
0.0
149
0.0
 93
        0
 94
      127
282
     0
 72
     1
 77
     1
171
     1
175
     1
179
     1
273
     0
  0
XRECORD
  5
458
102
{ACAD_REACTORS
330
457
102
}
330
457
100
AcDbXrecord
102
MATERIAL
148
0.0
149
0.0
149
0.0
 93
        0
 94
      127
282
     0
 72
     1
 77
     1
171
     1
175
     1
179
     1
273
     0
  0
ENDSEC
  0
EOF
