  0
SECTION
  2
HEADER
  9
$ACADVER
  1
AC1014
  9
$ACADMAINTVER
 70
     9
  9
$DWGCODEPAGE
  3
ANSI_1252
  9
$INSBASE
 10
0.0
 20
0.0
 30
0.0
  9
$EXTMIN
 10
1.000000000000000E+20
 20
1.000000000000000E+20
 30
1.000000000000000E+20
  9
$EXTMAX
 10
-1.000000000000000E+20
 20
-1.000000000000000E+20
 30
-1.000000000000000E+20
  9
$LIMMIN
 10
0.0
 20
0.0
  9
$LIMMAX
 10
12.0
 20
9.0
  9
$ORTHOMODE
 70
     0
  9
$REGENMODE
 70
     1
  9
$FILLMODE
 70
     1
  9
$QTEXTMODE
 70
     0
  9
$MIRRTEXT
 70
     1
  9
$DRAGMODE
 70
     2
  9
$LTSCALE
 40
1.0
  9
$OSMODE
 70
    37
  9
$ATTMODE
 70
     1
  9
$TEXTSIZE
 40
0.2
  9
$TRACEWID
 40
0.05
  9
$TEXTSTYLE
  7
STANDARD
  9
$CLAYER
  8
0
  9
$CELTYPE
  6
BYLAYER
  9
$CECOLOR
 62
   256
  9
$CELTSCALE
 40
1.0
  9
$DELOBJ
 70
     1
  9
$DISPSILH
 70
     0
  9
$DIMSCALE
 40
1.0
  9
$DIMASZ
 40
0.18
  9
$DIMEXO
 40
0.0625
  9
$DIMDLI
 40
0.38
  9
$DIMRND
 40
0.0
  9
$DIMDLE
 40
0.0
  9
$DIMEXE
 40
0.18
  9
$DIMTP
 40
0.0
  9
$DIMTM
 40
0.0
  9
$DIMTXT
 40
0.18
  9
$DIMCEN
 40
0.09
  9
$DIMTSZ
 40
0.0
  9
$DIMTOL
 70
     0
  9
$DIMLIM
 70
     0
  9
$DIMTIH
 70
     1
  9
$DIMTOH
 70
     1
  9
$DIMSE1
 70
     0
  9
$DIMSE2
 70
     0
  9
$DIMTAD
 70
     0
  9
$DIMZIN
 70
     0
  9
$DIMBLK
  1

  9
$DIMASO
 70
     1
  9
$DIMSHO
 70
     1
  9
$DIMPOST
  1

  9
$DIMAPOST
  1

  9
$DIMALT
 70
     0
  9
$DIMALTD
 70
     2
  9
$DIMALTF
 40
25.4
  9
$DIMLFAC
 40
1.0
  9
$DIMTOFL
 70
     0
  9
$DIMTVP
 40
0.0
  9
$DIMTIX
 70
     0
  9
$DIMSOXD
 70
     0
  9
$DIMSAH
 70
     0
  9
$DIMBLK1
  1

  9
$DIMBLK2
  1

  9
$DIMSTYLE
  2
STANDARD
  9
$DIMCLRD
 70
     0
  9
$DIMCLRE
 70
     0
  9
$DIMCLRT
 70
     0
  9
$DIMTFAC
 40
1.0
  9
$DIMGAP
 40
0.09
  9
$DIMJUST
 70
     0
  9
$DIMSD1
 70
     0
  9
$DIMSD2
 70
     0
  9
$DIMTOLJ
 70
     1
  9
$DIMTZIN
 70
     0
  9
$DIMALTZ
 70
     0
  9
$DIMALTTZ
 70
     0
  9
$DIMFIT
 70
     3
  9
$DIMUPT
 70
     0
  9
$DIMUNIT
 70
     2
  9
$DIMDEC
 70
     4
  9
$DIMTDEC
 70
     4
  9
$DIMALTU
 70
     2
  9
$DIMALTTD
 70
     2
  9
$DIMTXSTY
  7
STANDARD
  9
$DIMAUNIT
 70
     0
  9
$LUNITS
 70
     2
  9
$LUPREC
 70
     4
  9
$SKETCHINC
 40
0.1
  9
$FILLETRAD
 40
0.5
  9
$AUNITS
 70
     0
  9
$AUPREC
 70
     0
  9
$MENU
  1
.
  9
$ELEVATION
 40
0.0
  9
$PELEVATION
 40
0.0
  9
$THICKNESS
 40
0.0
  9
$LIMCHECK
 70
     0
  9
$CHAMFERA
 40
0.0
  9
$CHAMFERB
 40
0.0
  9
$CHAMFERC
 40
0.0
  9
$CHAMFERD
 40
0.0
  9
$SKPOLY
 70
     0
  9
$TDCREATE
 40
2457211.427796285
  9
$TDUPDATE
 40
2457211.42779632
  9
$TDINDWG
 40
0.0000000116
  9
$TDUSRTIMER
 40
0.0000000116
  9
$USRTIMER
 70
     1
  9
$ANGBASE
 50
0.0
  9
$ANGDIR
 70
     0
  9
$PDMODE
 70
     0
  9
$PDSIZE
 40
0.0
  9
$PLINEWID
 40
0.0
  9
$COORDS
 70
     1
  9
$SPLFRAME
 70
     0
  9
$SPLINETYPE
 70
     6
  9
$SPLINESEGS
 70
     8
  9
$ATTDIA
 70
     0
  9
$ATTREQ
 70
     1
  9
$HANDLING
 70
     1
  9
$HANDSEED
  5
19D
  9
$SURFTAB1
 70
     6
  9
$SURFTAB2
 70
     6
  9
$SURFTYPE
 70
     6
  9
$SURFU
 70
     6
  9
$SURFV
 70
     6
  9
$UCSNAME
  2

  9
$UCSORG
 10
0.0
 20
0.0
 30
0.0
  9
$UCSXDIR
 10
1.0
 20
0.0
 30
0.0
  9
$UCSYDIR
 10
0.0
 20
1.0
 30
0.0
  9
$PUCSNAME
  2

  9
$PUCSORG
 10
0.0
 20
0.0
 30
0.0
  9
$PUCSXDIR
 10
1.0
 20
0.0
 30
0.0
  9
$PUCSYDIR
 10
0.0
 20
1.0
 30
0.0
  9
$USERI1
 70
     0
  9
$USERI2
 70
     0
  9
$USERI3
 70
     0
  9
$USERI4
 70
     0
  9
$USERI5
 70
     0
  9
$USERR1
 40
0.0
  9
$USERR2
 40
0.0
  9
$USERR3
 40
0.0
  9
$USERR4
 40
0.0
  9
$USERR5
 40
0.0
  9
$WORLDVIEW
 70
     1
  9
$SHADEDGE
 70
     3
  9
$SHADEDIF
 70
    70
  9
$TILEMODE
 70
     1
  9
$MAXACTVP
 70
    64
  9
$PINSBASE
 10
0.0
 20
0.0
 30
0.0
  9
$PLIMCHECK
 70
     0
  9
$PEXTMIN
 10
1.000000000000000E+20
 20
1.000000000000000E+20
 30
1.000000000000000E+20
  9
$PEXTMAX
 10
-1.000000000000000E+20
 20
-1.000000000000000E+20
 30
-1.000000000000000E+20
  9
$PLIMMIN
 10
0.0
 20
0.0
  9
$PLIMMAX
 10
12.0
 20
9.0
  9
$UNITMODE
 70
     0
  9
$VISRETAIN
 70
     1
  9
$PLINEGEN
 70
     0
  9
$PSLTSCALE
 70
     1
  9
$TREEDEPTH
 70
  3020
  9
$PICKSTYLE
 70
     1
  9
$CMLSTYLE
  2
STANDARD
  9
$CMLJUST
 70
     0
  9
$CMLSCALE
 40
1.0
  9
$PROXYGRAPHICS
 70
     1
  9
$MEASUREMENT
 70
     1
  0
ENDSEC
  0
SECTION
  2
CLASSES
  0
CLASS
  1
ACDBDICTIONARYWDFLT
  2
AcDbDictionaryWithDefault
  3
ObjectDBX Classes
 90
        0
280
     0
281
     0
  0
CLASS
  1
VISUALSTYLE
  2
AcDbVisualStyle
  3
ObjectDBX Classes
 90
     4095
280
     0
281
     0
  0
CLASS
  1
MATERIAL
  2
AcDbMaterial
  3
ObjectDBX Classes
 90
     1153
280
     0
281
     0
  0
CLASS
  1
SCALE
  2
AcDbScale
  3
ObjectDBX Classes
 90
     1153
280
     0
281
     0
  0
CLASS
  1
SUN
  2
AcDbSun
  3
SCENEOE
 90
     1153
280
     0
281
     0
  0
CLASS
  1
DICTIONARYVAR
  2
AcDbDictionaryVar
  3
ObjectDBX Classes
 90
        0
280
     0
281
     0
  0
CLASS
  1
XRECORD
  2
AcDbXrecord
  3
ObjectDBX Classes
 90
        0
280
     0
281
     0
  0
CLASS
  1
LWPOLYLINE
  2
AcDbPolyline
  3
ObjectDBX Classes
 90
        0
280
     0
281
     1
  0
CLASS
  1
HATCH
  2
AcDbHatch
  3
ObjectDBX Classes
 90
        0
280
     0
281
     1
  0
CLASS
  1
ACDBPLACEHOLDER
  2
AcDbPlaceHolder
  3
ObjectDBX Classes
 90
        0
280
     0
281
     0
  0
CLASS
  1
LAYOUT
  2
AcDbLayout
  3
ObjectDBX Classes
 90
        0
280
     0
281
     0
  0
ENDSEC
  0
SECTION
  2
TABLES
  0
TABLE
  2
VPORT
  5
8
102
{ACAD_XDICTIONARY
360
193
102
}
330
0
100
AcDbSymbolTable
 70
     1
  0
VPORT
  5
29
330
8
100
AcDbSymbolTableRecord
100
AcDbViewportTableRecord
  2
*ACTIVE
 70
     0
 10
0.0
 20
0.0
 11
1.0
 21
1.0
 12
0.0
 22
0.0
 13
0.0
 23
0.0
 14
0.5
 24
0.5
 15
0.5
 25
0.5
 16
0.0
 26
0.0
 36
1.0
 17
0.0
 27
0.0
 37
-1000.0
 40
135.8984711156703
 41
2.07191011235955
 42
50.0
 43
505.5005738066313
 44
645.7740346525494
 50
0.0
 51
0.0
 71
     0
 72
   100
 73
     1
 74
     3
 75
     0
 76
     0
 77
     0
 78
     0
  0
ENDTAB
  0
TABLE
  2
LTYPE
  5
5
330
0
100
AcDbSymbolTable
 70
     1
  0
LTYPE
  5
14
330
5
100
AcDbSymbolTableRecord
100
AcDbLinetypeTableRecord
  2
BYBLOCK
 70
     0
  3

 72
    65
 73
     0
 40
0.0
  0
LTYPE
  5
15
330
5
100
AcDbSymbolTableRecord
100
AcDbLinetypeTableRecord
  2
BYLAYER
 70
     0
  3

 72
    65
 73
     0
 40
0.0
  0
LTYPE
  5
16
330
5
100
AcDbSymbolTableRecord
100
AcDbLinetypeTableRecord
  2
CONTINUOUS
 70
     0
  3
Solid line
 72
    65
 73
     0
 40
0.0
  0
ENDTAB
  0
TABLE
  2
LAYER
  5
2
330
0
100
AcDbSymbolTable
 70
     3
  0
LAYER
  5
10
330
2
100
AcDbSymbolTableRecord
100
AcDbLayerTableRecord
  2
0
 70
     0
 62
     7
  6
CONTINUOUS
  0
LAYER
  5
6A
330
2
100
AcDbSymbolTableRecord
100
AcDbLayerTableRecord
  2
PROFILEEDGES
 70
     0
 62
     7
  6
CONTINUOUS
  0
LAYER
  5
6B
330
2
100
AcDbSymbolTableRecord
100
AcDbLayerTableRecord
  2
SECTIONCUTEDGES
 70
     0
 62
     7
  6
CONTINUOUS
  0
ENDTAB
  0
TABLE
  2
STYLE
  5
3
330
0
100
AcDbSymbolTable
 70
     1
  0
STYLE
  5
11
330
3
100
AcDbSymbolTableRecord
100
AcDbTextStyleTableRecord
  2
STANDARD
 70
     0
 40
0.0
 41
1.0
 50
0.0
 71
     0
 42
0.2
  3
txt
  4

  0
ENDTAB
  0
TABLE
  2
VIEW
  5
6
330
0
100
AcDbSymbolTable
 70
     0
  0
ENDTAB
  0
TABLE
  2
UCS
  5
7
330
0
100
AcDbSymbolTable
 70
     0
  0
ENDTAB
  0
TABLE
  2
APPID
  5
9
330
0
100
AcDbSymbolTable
 70
     1
  0
APPID
  5
12
330
9
100
AcDbSymbolTableRecord
100
AcDbRegAppTableRecord
  2
ACAD
 70
     0
  0
ENDTAB
  0
TABLE
  2
DIMSTYLE
  5
A
330
0
100
AcDbSymbolTable
 70
     1
  0
DIMSTYLE
105
27
330
A
100
AcDbSymbolTableRecord
100
AcDbDimStyleTableRecord
  2
STANDARD
 70
     0
  3

  4

  5

  6

  7

 40
1.0
 41
0.18
 42
0.0625
 43
0.38
 44
0.18
 45
0.0
 46
0.0
 47
0.0
 48
0.0
140
0.18
141
0.09
142
0.0
143
25.4
144
1.0
145
0.0
146
1.0
147
0.09
 71
     0
 72
     0
 73
     1
 74
     1
 75
     0
 76
     0
 77
     0
 78
     0
170
     0
171
     2
172
     0
173
     0
174
     0
175
     0
176
     0
177
     0
178
     0
270
     2
271
     4
272
     4
273
     2
274
     2
340
11
275
     0
280
     0
281
     0
282
     0
283
     1
284
     0
285
     0
286
     0
287
     3
288
     0
  0
ENDTAB
  0
TABLE
  2
BLOCK_RECORD
  5
1
330
0
100
AcDbSymbolTable
 70
     1
  0
BLOCK_RECORD
  5
1F
330
1
100
AcDbSymbolTableRecord
100
AcDbBlockTableRecord
  2
*MODEL_SPACE
  0
BLOCK_RECORD
  5
1B
330
1
100
AcDbSymbolTableRecord
100
AcDbBlockTableRecord
  2
*PAPER_SPACE
  0
ENDTAB
  0
ENDSEC
  0
SECTION
  2
BLOCKS
  0
BLOCK
  5
20
330
1F
100
AcDbEntity
  8
0
100
AcDbBlockBegin
  2
*MODEL_SPACE
 70
     0
 10
0.0
 20
0.0
 30
0.0
  3
*MODEL_SPACE
  1

  0
ENDBLK
  5
21
330
1F
100
AcDbEntity
  8
0
100
AcDbBlockEnd
  0
BLOCK
  5
1C
330
1B
100
AcDbEntity
 67
     1
  8
0
100
AcDbBlockBegin
  2
*PAPER_SPACE
 70
     0
 10
0.0
 20
0.0
 30
0.0
  3
*PAPER_SPACE
  1

  0
ENDBLK
  5
1D
330
1B
100
AcDbEntity
 67
     1
  8
0
100
AcDbBlockEnd
  0
ENDSEC
  0
SECTION
  2
ENTITIES
  0
LINE
  5
6C
330
1F
100
AcDbEntity
  8
0
100
AcDbLine
 10
26.66907871128173
 20
13.55630306020633
 30
0.0
 11
27.77572231399356
 21
13.33033022126022
 31
0.0
  0
LINE
  5
6D
330
1F
100
AcDbEntity
  8
0
100
AcDbLine
 10
27.77572231399356
 20
13.33033022126022
 30
0.0
 11
28.81404090074214
 21
12.95505714787775
 31
0.0
  0
LINE
  5
6E
330
1F
100
AcDbEntity
  8
0
100
AcDbLine
 10
28.81404090074214
 20
12.95505714787775
 30
0.0
 11
29.78852122345585
 21
12.42940553267842
 31
0.0
  0
LINE
  5
6F
330
1F
100
AcDbEntity
  8
0
100
AcDbLine
 10
29.78852122345585
 20
12.42940553267842
 30
0.0
 11
30.70273413938477
 21
11.75054032863955
 31
0.0
  0
LINE
  5
70
330
1F
100
AcDbEntity
  8
0
100
AcDbLine
 10
30.70273413938477
 20
11.75054032863955
 30
0.0
 11
31.5584621892213
 21
10.91483812162554
 31
0.0
  0
LINE
  5
71
330
1F
100
AcDbEntity
  8
0
100
AcDbLine
 10
31.5584621892213
 20
10.91483812162554
 30
0.0
 11
32.35570444083085
 21
9.918996878096086
 31
0.0
  0
LINE
  5
72
330
1F
100
AcDbEntity
  8
0
100
AcDbLine
 10
32.35570444083085
 20
9.918996878096086
 30
0.0
 11
33.0932926859498
 21
8.76067799276374
 31
0.0
  0
LINE
  5
73
330
1F
100
AcDbEntity
  8
0
100
AcDbLine
 10
33.0932926859498
 20
8.76067799276374
 30
0.0
 11
34.00485730166603
 21
6.978673852299346
 31
0.0
  0
LINE
  5
74
330
1F
100
AcDbEntity
  8
0
100
AcDbLine
 10
34.00485730166603
 20
6.978673852299346
 30
0.0
 11
45.64741036315835
 21
12.82327157257755
 31
0.0
  0
LINE
  5
75
330
1F
100
AcDbEntity
  8
0
100
AcDbLine
 10
45.64741036315835
 20
12.82327157257755
 30
0.0
 11
43.8330878304355
 21
15.73784782547851
 31
0.0
  0
LINE
  5
76
330
1F
100
AcDbEntity
  8
0
100
AcDbLine
 10
43.8330878304355
 20
15.73784782547851
 30
0.0
 11
42.08008059637467
 21
17.92504731586977
 31
0.0
  0
LINE
  5
77
330
1F
100
AcDbEntity
  8
0
100
AcDbLine
 10
42.08008059637467
 20
17.92504731586977
 30
0.0
 11
40.11345832410494
 21
19.82425691415417
 31
0.0
  0
LINE
  5
78
330
1F
100
AcDbEntity
  8
0
100
AcDbLine
 10
40.11345832410494
 20
19.82425691415417
 30
0.0
 11
37.93483869259492
 21
21.43263536130515
 31
0.0
  0
LINE
  5
79
330
1F
100
AcDbEntity
  8
0
100
AcDbLine
 10
37.93483869259492
 20
21.43263536130515
 30
0.0
 11
35.5469314956982
 21
22.74805145578832
 31
0.0
  0
LINE
  5
7A
330
1F
100
AcDbEntity
  8
0
100
AcDbLine
 10
35.5469314956982
 20
22.74805145578832
 30
0.0
 11
32.95291271573495
 21
23.7695918304471
 31
0.0
  0
LINE
  5
7B
330
1F
100
AcDbEntity
  8
0
100
AcDbLine
 10
32.95291271573495
 20
23.7695918304471
 30
0.0
 11
30.15566307598472
 21
24.49758856398421
 31
0.0
  0
LINE
  5
7C
330
1F
100
AcDbEntity
  8
0
100
AcDbLine
 10
30.15566307598472
 20
24.49758856398421
 30
0.0
 11
27.15724952241871
 21
24.93323348219678
 31
0.0
  0
LINE
  5
7D
330
1F
100
AcDbEntity
  8
0
100
AcDbLine
 10
27.15724952241871
 20
24.93323348219678
 30
0.0
 11
23.96007410922729
 21
25.07800785908351
 31
0.0
  0
LINE
  5
7E
330
1F
100
AcDbEntity
  8
0
100
AcDbLine
 10
23.96007410922729
 20
25.07800785908351
 30
0.0
 11
21.71976918451731
 21
24.99418570702317
 31
0.0
  0
LINE
  5
7F
330
1F
100
AcDbEntity
  8
0
100
AcDbLine
 10
21.71976918451731
 20
24.99418570702317
 30
0.0
 11
19.56762894504529
 21
24.74254252087835
 31
0.0
  0
LINE
  5
80
330
1F
100
AcDbEntity
  8
0
100
AcDbLine
 10
19.56762894504529
 20
24.74254252087835
 30
0.0
 11
17.50192765239219
 21
24.32247522841118
 31
0.0
  0
LINE
  5
81
330
1F
100
AcDbEntity
  8
0
100
AcDbLine
 10
17.50192765239219
 20
24.32247522841118
 30
0.0
 11
15.52351866137522
 21
23.73363040269068
 31
0.0
  0
LINE
  5
82
330
1F
100
AcDbEntity
  8
0
100
AcDbLine
 10
15.52351866137522
 20
23.73363040269068
 30
0.0
 11
13.63345259348961
 21
22.97591604232615
 31
0.0
  0
LINE
  5
83
330
1F
100
AcDbEntity
  8
0
100
AcDbLine
 10
13.63345259348961
 20
22.97591604232615
 30
0.0
 11
11.83286390986214
 21
22.04956931166558
 31
0.0
  0
LINE
  5
84
330
1F
100
AcDbEntity
  8
0
100
AcDbLine
 10
11.83286390986214
 20
22.04956931166558
 30
0.0
 11
10.12282310734676
 21
20.9551642273909
 31
0.0
  0
LINE
  5
85
330
1F
100
AcDbEntity
  8
0
100
AcDbLine
 10
10.12282310734676
 20
20.9551642273909
 30
0.0
 11
8.504194233614818
 21
19.69354878555077
 31
0.0
  0
LINE
  5
86
330
1F
100
AcDbEntity
  8
0
100
AcDbLine
 10
8.504194233614818
 20
19.69354878555077
 30
0.0
 11
6.976582536329683
 21
18.26483422915586
 31
0.0
  0
LINE
  5
87
330
1F
100
AcDbEntity
  8
0
100
AcDbLine
 10
6.976582536329683
 20
18.26483422915586
 30
0.0
 11
5.574594098036915
 21
16.69143769824123
 31
0.0
  0
LINE
  5
88
330
1F
100
AcDbEntity
  8
0
100
AcDbLine
 10
5.574594098036915
 20
16.69143769824123
 30
0.0
 11
4.336489580332601
 21
14.9988827406861
 31
0.0
  0
LINE
  5
89
330
1F
100
AcDbEntity
  8
0
100
AcDbLine
 10
4.336489580332601
 20
14.9988827406861
 30
0.0
 11
3.26365512341028
 21
13.18880522946865
 31
0.0
  0
LINE
  5
8A
330
1F
100
AcDbEntity
  8
0
100
AcDbLine
 10
3.26365512341028
 20
13.18880522946865
 30
0.0
 11
2.356578088818755
 21
11.26237883862051
 31
0.0
  0
LINE
  5
8B
330
1F
100
AcDbEntity
  8
0
100
AcDbLine
 10
2.356578088818755
 20
11.26237883862051
 30
0.0
 11
1.615369238675141
 21
9.220772238808015
 31
0.0
  0
LINE
  5
8C
330
1F
100
AcDbEntity
  8
0
100
AcDbLine
 10
1.615369238675141
 20
9.220772238808015
 30
0.0
 11
1.039806865112464
 21
7.065001347786331
 31
0.0
  0
LINE
  5
8D
330
1F
100
AcDbEntity
  8
0
100
AcDbLine
 10
1.039806865112464
 20
7.065001347786331
 30
0.0
 11
0.6294329635994005
 21
4.795836674833073
 31
0.0
  0
LINE
  5
8E
330
1F
100
AcDbEntity
  8
0
100
AcDbLine
 10
0.6294329635994005
 20
4.795836674833073
 30
0.0
 11
0.383664263336662
 21
2.413774555791652
 31
0.0
  0
LINE
  5
8F
330
1F
100
AcDbEntity
  8
0
100
AcDbLine
 10
0.383664263336662
 20
2.413774555791652
 30
0.0
 11
0.3018845474450899
 21
-0.0810571451651171
 31
0.0
  0
LINE
  5
90
330
1F
100
AcDbEntity
  8
0
100
AcDbLine
 10
0.3018845474450899
 20
-0.0810571451651171
 30
0.0
 11
0.3824183272485509
 21
-2.615403667780076
 31
0.0
  0
LINE
  5
91
330
1F
100
AcDbEntity
  8
0
100
AcDbLine
 10
0.3824183272485509
 20
-2.615403667780076
 30
0.0
 11
0.6243587819057026
 21
-5.02939670710554
 31
0.0
  0
LINE
  5
92
330
1F
100
AcDbEntity
  8
0
100
AcDbLine
 10
0.6243587819057026
 20
-5.02939670710554
 30
0.0
 11
1.028293621472459
 21
-7.323455734979695
 31
0.0
  0
LINE
  5
93
330
1F
100
AcDbEntity
  8
0
100
AcDbLine
 10
1.028293621472459
 20
-7.323455734979695
 30
0.0
 11
1.59479358740051
 21
-9.497134749820423
 31
0.0
  0
LINE
  5
94
330
1F
100
AcDbEntity
  8
0
100
AcDbLine
 10
1.59479358740051
 20
-9.497134749820423
 30
0.0
 11
2.324340865622343
 21
-11.54970143255645
 31
0.0
  0
LINE
  5
95
330
1F
100
AcDbEntity
  8
0
100
AcDbLine
 10
2.324340865622343
 20
-11.54970143255645
 30
0.0
 11
3.217212218794802
 21
-13.48014197376796
 31
0.0
  0
LINE
  5
96
330
1F
100
AcDbEntity
  8
0
100
AcDbLine
 10
3.217212218794802
 20
-13.48014197376796
 30
0.0
 11
4.273362606473618
 21
-15.28723227099138
 31
0.0
  0
LINE
  5
97
330
1F
100
AcDbEntity
  8
0
100
AcDbLine
 10
4.273362606473618
 20
-15.28723227099138
 30
0.0
 11
5.492349679459991
 21
-16.96967793137456
 31
0.0
  0
LINE
  5
98
330
1F
100
AcDbEntity
  8
0
100
AcDbLine
 10
5.492349679459991
 20
-16.96967793137456
 30
0.0
 11
6.873212288307621
 21
-18.52615445409824
 31
0.0
  0
LINE
  5
99
330
1F
100
AcDbEntity
  8
0
100
AcDbLine
 10
6.873212288307621
 20
-18.52615445409824
 30
0.0
 11
8.390814845530214
 21
-19.93566933333369
 31
0.0
  0
LINE
  5
9A
330
1F
100
AcDbEntity
  8
0
100
AcDbLine
 10
8.390814845530214
 20
-19.93566933333369
 30
0.0
 11
10.01620003047905
 21
-21.17978690504839
 31
0.0
  0
LINE
  5
9B
330
1F
100
AcDbEntity
  8
0
100
AcDbLine
 10
10.01620003047905
 20
-21.17978690504839
 30
0.0
 11
11.74936396311324
 21
-22.25831193228815
 31
0.0
  0
LINE
  5
9C
330
1F
100
AcDbEntity
  8
0
100
AcDbLine
 10
11.74936396311324
 20
-22.25831193228815
 30
0.0
 11
13.58921595717824
 21
-23.17055972244392
 31
0.0
  0
LINE
  5
9D
330
1F
100
AcDbEntity
  8
0
100
AcDbLine
 10
13.58921595717824
 20
-23.17055972244392
 30
0.0
 11
15.53456850184434
 21
-23.91621389203105
 31
0.0
  0
LINE
  5
9E
330
1F
100
AcDbEntity
  8
0
100
AcDbLine
 10
15.53456850184434
 20
-23.91621389203105
 30
0.0
 11
17.58430524025639
 21
-24.49532814411593
 31
0.0
  0
LINE
  5
9F
330
1F
100
AcDbEntity
  8
0
100
AcDbLine
 10
17.58430524025639
 20
-24.49532814411593
 30
0.0
 11
19.73751258610329
 21
-24.90825611327961
 31
0.0
  0
LINE
  5
A0
330
1F
100
AcDbEntity
  8
0
100
AcDbLine
 10
19.73751258610329
 20
-24.90825611327961
 30
0.0
 11
21.99354828237836
 21
-25.15554274702528
 31
0.0
  0
LINE
  5
A1
330
1F
100
AcDbEntity
  8
0
100
AcDbLine
 10
21.99354828237836
 20
-25.15554274702528
 30
0.0
 11
24.35642022299673
 21
-25.23796664367125
 31
0.0
  0
LINE
  5
A2
330
1F
100
AcDbEntity
  8
0
100
AcDbLine
 10
24.35642022299673
 20
-25.23796664367125
 30
0.0
 11
27.39838697094037
 21
-25.08319549667642
 31
0.0
  0
LINE
  5
A3
330
1F
100
AcDbEntity
  8
0
100
AcDbLine
 10
27.39838697094037
 20
-25.08319549667642
 30
0.0
 11
30.27717359214134
 21
-24.6172213604016
 31
0.0
  0
LINE
  5
A4
330
1F
100
AcDbEntity
  8
0
100
AcDbLine
 10
30.27717359214134
 20
-24.6172213604016
 30
0.0
 11
32.9875349205679
 21
-23.83896613534193
 31
0.0
  0
LINE
  5
A5
330
1F
100
AcDbEntity
  8
0
100
AcDbLine
 10
32.9875349205679
 20
-23.83896613534193
 30
0.0
 11
35.52674475860626
 21
-22.74795139769157
 31
0.0
  0
LINE
  5
A6
330
1F
100
AcDbEntity
  8
0
100
AcDbLine
 10
35.52674475860626
 20
-22.74795139769157
 30
0.0
 11
37.89175482246758
 21
-21.3448327113989
 31
0.0
  0
LINE
  5
A7
330
1F
100
AcDbEntity
  8
0
100
AcDbLine
 10
37.89175482246758
 20
-21.3448327113989
 30
0.0
 11
40.0798882009293
 21
-19.63140232281488
 31
0.0
  0
LINE
  5
A8
330
1F
100
AcDbEntity
  8
0
100
AcDbLine
 10
40.0798882009293
 20
-19.63140232281488
 30
0.0
 11
42.08942529795291
 21
-17.61016504705499
 31
0.0
  0
LINE
  5
A9
330
1F
100
AcDbEntity
  8
0
100
AcDbLine
 10
42.08942529795291
 20
-17.61016504705499
 30
0.0
 11
43.91980373947328
 21
-15.28370693933053
 31
0.0
  0
LINE
  5
AA
330
1F
100
AcDbEntity
  8
0
100
AcDbLine
 10
43.91980373947328
 20
-15.28370693933053
 30
0.0
 11
45.84709788559697
 21
-12.21527391119068
 31
0.0
  0
LINE
  5
AB
330
1F
100
AcDbEntity
  8
0
100
AcDbLine
 10
45.84709788559697
 20
-12.21527391119068
 30
0.0
 11
34.98045308813371
 21
-6.555652082748498
 31
0.0
  0
LINE
  5
AC
330
1F
100
AcDbEntity
  8
0
100
AcDbLine
 10
34.98045308813371
 20
-6.555652082748498
 30
0.0
 11
34.10381813882741
 21
-8.453889867373357
 31
0.0
  0
LINE
  5
AD
330
1F
100
AcDbEntity
  8
0
100
AcDbLine
 10
34.10381813882741
 20
-8.453889867373357
 30
0.0
 11
33.36287173820858
 21
-9.680227309308723
 31
0.0
  0
LINE
  5
AE
330
1F
100
AcDbEntity
  8
0
100
AcDbLine
 10
33.36287173820858
 20
-9.680227309308723
 30
0.0
 11
32.52921212350677
 21
-10.7349995691377
 31
0.0
  0
LINE
  5
AF
330
1F
100
AcDbEntity
  8
0
100
AcDbLine
 10
32.52921212350677
 20
-10.7349995691377
 30
0.0
 11
31.60324380694141
 21
-11.62174899350115
 31
0.0
  0
LINE
  5
B0
330
1F
100
AcDbEntity
  8
0
100
AcDbLine
 10
31.60324380694141
 20
-11.62174899350115
 30
0.0
 11
30.58348897097616
 21
-12.34452208935514
 31
0.0
  0
LINE
  5
B1
330
1F
100
AcDbEntity
  8
0
100
AcDbLine
 10
30.58348897097616
 20
-12.34452208935514
 30
0.0
 11
29.46651258759409
 21
-12.90664922709527
 31
0.0
  0
LINE
  5
B2
330
1F
100
AcDbEntity
  8
0
100
AcDbLine
 10
29.46651258759409
 20
-12.90664922709527
 30
0.0
 11
28.24781671958571
 21
-13.30964313112171
 31
0.0
  0
LINE
  5
B3
330
1F
100
AcDbEntity
  8
0
100
AcDbLine
 10
28.24781671958571
 20
-13.30964313112171
 30
0.0
 11
26.92323406883606
 21
-13.55296156227955
 31
0.0
  0
LINE
  5
B4
330
1F
100
AcDbEntity
  8
0
100
AcDbLine
 10
26.92323406883606
 20
-13.55296156227955
 30
0.0
 11
25.49600219906595
 21
-13.63432227342832
 31
0.0
  0
LINE
  5
B5
330
1F
100
AcDbEntity
  8
0
100
AcDbLine
 10
25.49600219906595
 20
-13.63432227342832
 30
0.0
 11
23.32640905115232
 21
-13.46594054685987
 31
0.0
  0
LINE
  5
B6
330
1F
100
AcDbEntity
  8
0
100
AcDbLine
 10
23.32640905115232
 20
-13.46594054685987
 30
0.0
 11
21.43759338801242
 21
-12.96755671221111
 31
0.0
  0
LINE
  5
B7
330
1F
100
AcDbEntity
  8
0
100
AcDbLine
 10
21.43759338801242
 20
-12.96755671221111
 30
0.0
 11
19.81665992025397
 21
-12.14509420638871
 31
0.0
  0
LINE
  5
B8
330
1F
100
AcDbEntity
  8
0
100
AcDbLine
 10
19.81665992025397
 20
-12.14509420638871
 30
0.0
 11
18.44861339156548
 21
-10.99664826381711
 31
0.0
  0
LINE
  5
B9
330
1F
100
AcDbEntity
  8
0
100
AcDbLine
 10
18.44861339156548
 20
-10.99664826381711
 30
0.0
 11
17.32212487964736
 21
-9.510674111003185
 31
0.0
  0
LINE
  5
BA
330
1F
100
AcDbEntity
  8
0
100
AcDbLine
 10
17.32212487964736
 20
-9.510674111003185
 30
0.0
 11
16.43578392130449
 21
-7.673458221064052
 31
0.0
  0
LINE
  5
BB
330
1F
100
AcDbEntity
  8
0
100
AcDbLine
 10
16.43578392130449
 20
-7.673458221064052
 30
0.0
 11
15.79520539054302
 21
-5.476656566795579
 31
0.0
  0
LINE
  5
BC
330
1F
100
AcDbEntity
  8
0
100
AcDbLine
 10
15.79520539054302
 20
-5.476656566795579
 30
0.0
 11
15.40722473908251
 21
-2.91803533575596
 31
0.0
  0
LINE
  5
BD
330
1F
100
AcDbEntity
  8
0
100
AcDbLine
 10
15.40722473908251
 20
-2.91803533575596
 30
0.0
 11
15.27707224253444
 21
0.0001375071499446
 31
0.0
  0
LINE
  5
BE
330
1F
100
AcDbEntity
  8
0
100
AcDbLine
 10
15.27707224253444
 20
0.0001375071499446
 30
0.0
 11
15.40722392105968
 21
2.917530731205023
 31
0.0
  0
LINE
  5
BF
330
1F
100
AcDbEntity
  8
0
100
AcDbLine
 10
15.40722392105968
 20
2.917530731205023
 30
0.0
 11
15.79520096967527
 21
5.47553904202694
 31
0.0
  0
LINE
  5
C0
330
1F
100
AcDbEntity
  8
0
100
AcDbLine
 10
15.79520096967527
 20
5.47553904202694
 30
0.0
 11
16.43577338654259
 21
7.671881102261793
 31
0.0
  0
LINE
  5
C1
330
1F
100
AcDbEntity
  8
0
100
AcDbLine
 10
16.43577338654259
 20
7.671881102261793
 30
0.0
 11
17.3221074659294
 21
9.508772087296364
 31
0.0
  0
LINE
  5
C2
330
1F
100
AcDbEntity
  8
0
100
AcDbLine
 10
17.3221074659294
 20
9.508772087296364
 30
0.0
 11
18.44859232135279
 21
10.99453555782732
 31
0.0
  0
LINE
  5
C3
330
1F
100
AcDbEntity
  8
0
100
AcDbLine
 10
18.44859232135279
 20
10.99453555782732
 30
0.0
 11
19.81664182074468
 21
12.14285991481064
 31
0.0
  0
LINE
  5
C4
330
1F
100
AcDbEntity
  8
0
100
AcDbLine
 10
19.81664182074468
 20
12.14285991481064
 30
0.0
 11
21.43758307330858
 21
12.96526248571757
 31
0.0
  0
LINE
  5
C5
330
1F
100
AcDbEntity
  8
0
100
AcDbLine
 10
21.43758307330858
 20
12.96526248571757
 30
0.0
 11
23.32640571011376
 21
13.46362438925563
 31
0.0
  0
LINE
  5
C6
330
1F
100
AcDbEntity
  8
0
100
AcDbLine
 10
23.32640571011376
 20
13.46362438925563
 30
0.0
 11
25.49417915087961
 21
13.63186144954591
 31
0.0
  0
LINE
  5
C7
330
1F
100
AcDbEntity
  8
0
100
AcDbLine
 10
25.49417915087961
 20
13.63186144954591
 30
0.0
 11
26.66907871128173
 21
13.55630306020633
 31
0.0
  0
LINE
  5
C8
330
1F
100
AcDbEntity
  8
0
100
AcDbLine
 10
-11.58339714216504
 20
-8.444407892581975
 30
0.0
 11
-12.35980411071158
 21
-9.672715092223875
 31
0.0
  0
LINE
  5
C9
330
1F
100
AcDbEntity
  8
0
100
AcDbLine
 10
-12.35980411071158
 20
-9.672715092223875
 30
0.0
 11
-13.22420958534234
 21
-10.72962653351981
 31
0.0
  0
LINE
  5
CA
330
1F
100
AcDbEntity
  8
0
100
AcDbLine
 10
-13.22420958534234
 20
-10.72962653351981
 30
0.0
 11
-14.17627777695919
 21
-11.61841132416368
 31
0.0
  0
LINE
  5
CB
330
1F
100
AcDbEntity
  8
0
100
AcDbLine
 10
-14.17627777695919
 20
-11.61841132416368
 30
0.0
 11
-15.21737302214936
 21
-12.3428160320166
 31
0.0
  0
LINE
  5
CC
330
1F
100
AcDbEntity
  8
0
100
AcDbLine
 10
-15.21737302214936
 20
-12.3428160320166
 30
0.0
 11
-16.35066148096613
 21
-12.90599312292781
 31
0.0
  0
LINE
  5
CD
330
1F
100
AcDbEntity
  8
0
100
AcDbLine
 10
-16.35066148096613
 20
-12.90599312292781
 30
0.0
 11
-17.58036302334588
 21
-13.30948874871571
 31
0.0
  0
LINE
  5
CE
330
1F
100
AcDbEntity
  8
0
100
AcDbLine
 10
-17.58036302334588
 20
-13.30948874871571
 30
0.0
 11
-18.91050875634433
 21
-13.55295237883648
 31
0.0
  0
LINE
  5
CF
330
1F
100
AcDbEntity
  8
0
100
AcDbLine
 10
-18.91050875634433
 20
-13.55295237883648
 30
0.0
 11
-20.33755469010097
 21
-13.63430010536946
 31
0.0
  0
LINE
  5
D0
330
1F
100
AcDbEntity
  8
0
100
AcDbLine
 10
-20.33755469010097
 20
-13.63430010536946
 30
0.0
 11
-22.46152759796004
 21
-13.46613968600642
 31
0.0
  0
LINE
  5
D1
330
1F
100
AcDbEntity
  8
0
100
AcDbLine
 10
-22.46152759796004
 20
-13.46613968600642
 30
0.0
 11
-24.30946962842171
 21
-12.96866525721776
 31
0.0
  0
LINE
  5
D2
330
1F
100
AcDbEntity
  8
0
100
AcDbLine
 10
-24.30946962842171
 20
-12.96866525721776
 30
0.0
 11
-25.89536095311526
 21
-12.14759132616133
 31
0.0
  0
LINE
  5
D3
330
1F
100
AcDbEntity
  8
0
100
AcDbLine
 10
-25.89536095311526
 20
-12.14759132616133
 30
0.0
 11
-27.23462114627486
 21
-11.00027701165641
 31
0.0
  0
LINE
  5
D4
330
1F
100
AcDbEntity
  8
0
100
AcDbLine
 10
-27.23462114627486
 20
-11.00027701165641
 30
0.0
 11
-28.33820956323062
 21
-9.514515266329285
 31
0.0
  0
LINE
  5
D5
330
1F
100
AcDbEntity
  8
0
100
AcDbLine
 10
-28.33820956323062
 20
-9.514515266329285
 30
0.0
 11
-29.20687121031331
 21
-7.676634800157315
 31
0.0
  0
LINE
  5
D6
330
1F
100
AcDbEntity
  8
0
100
AcDbLine
 10
-29.20687121031331
 20
-7.676634800157315
 30
0.0
 11
-29.83468193323732
 21
-5.478755114651753
 31
0.0
  0
LINE
  5
D7
330
1F
100
AcDbEntity
  8
0
100
AcDbLine
 10
-29.83468193323732
 20
-5.478755114651753
 30
0.0
 11
-30.21486490919657
 21
-2.919025125628434
 31
0.0
  0
LINE
  5
D8
330
1F
100
AcDbEntity
  8
0
100
AcDbLine
 10
-30.21486490919657
 20
-2.919025125628434
 30
0.0
 11
-30.34237654944729
 21
0.0001375669781279
 31
0.0
  0
LINE
  5
D9
330
1F
100
AcDbEntity
  8
0
100
AcDbLine
 10
-30.34237654944729
 20
0.0001375669781279
 30
0.0
 11
-30.21486569439493
 21
2.918520747664512
 31
0.0
  0
LINE
  5
DA
330
1F
100
AcDbEntity
  8
0
100
AcDbLine
 10
-30.21486569439493
 20
2.918520747664512
 30
0.0
 11
-29.83468618711268
 21
5.477637966577078
 31
0.0
  0
LINE
  5
DB
330
1F
100
AcDbEntity
  8
0
100
AcDbLine
 10
-29.83468618711268
 20
5.477637966577078
 30
0.0
 11
-29.20688139931091
 21
7.675058031714233
 31
0.0
  0
LINE
  5
DC
330
1F
100
AcDbEntity
  8
0
100
AcDbLine
 10
-29.20688139931091
 20
7.675058031714233
 30
0.0
 11
-28.33822655327187
 21
9.512613350014504
 31
0.0
  0
LINE
  5
DD
330
1F
100
AcDbEntity
  8
0
100
AcDbLine
 10
-28.33822655327187
 20
9.512613350014504
 30
0.0
 11
-27.23464195504192
 21
10.99816412473301
 31
0.0
  0
LINE
  5
DE
330
1F
100
AcDbEntity
  8
0
100
AcDbLine
 10
-27.23464195504192
 20
10.99816412473301
 30
0.0
 11
-25.89537906588644
 21
12.14535679168904
 31
0.0
  0
LINE
  5
DF
330
1F
100
AcDbEntity
  8
0
100
AcDbLine
 10
-25.89537906588644
 20
12.14535679168904
 30
0.0
 11
-24.30948006238197
 21
12.96637092127208
 31
0.0
  0
LINE
  5
E0
330
1F
100
AcDbEntity
  8
0
100
AcDbLine
 10
-24.30948006238197
 20
12.96637092127208
 30
0.0
 11
-22.46153099869355
 21
13.4638235156248
 31
0.0
  0
LINE
  5
E1
330
1F
100
AcDbEntity
  8
0
100
AcDbLine
 10
-22.46153099869355
 20
13.4638235156248
 30
0.0
 11
-20.33889379048771
 21
13.63187474885616
 31
0.0
  0
LINE
  5
E2
330
1F
100
AcDbEntity
  8
0
100
AcDbLine
 10
-20.33889379048771
 20
13.63187474885616
 30
0.0
 11
-19.12426886966465
 21
13.55611966781493
 31
0.0
  0
LINE
  5
E3
330
1F
100
AcDbEntity
  8
0
100
AcDbLine
 10
-19.12426886966465
 20
13.55611966781493
 30
0.0
 11
-17.98214354334331
 21
13.32945492924678
 31
0.0
  0
LINE
  5
E4
330
1F
100
AcDbEntity
  8
0
100
AcDbLine
 10
-17.98214354334331
 20
13.32945492924678
 30
0.0
 11
-16.91375150510774
 21
12.9532601746096
 31
0.0
  0
LINE
  5
E5
330
1F
100
AcDbEntity
  8
0
100
AcDbLine
 10
-16.91375150510774
 20
12.9532601746096
 30
0.0
 11
-15.91469769718486
 21
12.42681367532459
 31
0.0
  0
LINE
  5
E6
330
1F
100
AcDbEntity
  8
0
100
AcDbLine
 10
-15.91469769718486
 20
12.42681367532459
 30
0.0
 11
-14.98123710404797
 21
11.74759800433706
 31
0.0
  0
LINE
  5
E7
330
1F
100
AcDbEntity
  8
0
100
AcDbLine
 10
-14.98123710404797
 20
11.74759800433706
 30
0.0
 11
-14.11124829078849
 21
10.91211569095632
 31
0.0
  0
LINE
  5
E8
330
1F
100
AcDbEntity
  8
0
100
AcDbLine
 10
-14.11124829078849
 20
10.91211569095632
 30
0.0
 11
-13.30440100130608
 21
9.91698921609812
 31
0.0
  0
LINE
  5
E9
330
1F
100
AcDbEntity
  8
0
100
AcDbLine
 10
-13.30440100130608
 20
9.91698921609812
 30
0.0
 11
-12.56164583785062
 21
8.759701251216608
 31
0.0
  0
LINE
  5
EA
330
1F
100
AcDbEntity
  8
0
100
AcDbLine
 10
-12.56164583785062
 20
8.759701251216608
 30
0.0
 11
-11.64697253643391
 21
6.97537525072252
 31
0.0
  0
LINE
  5
EB
330
1F
100
AcDbEntity
  8
0
100
AcDbLine
 10
-11.64697253643391
 20
6.97537525072252
 30
0.0
 11
-0.2152833189979251
 21
12.82728464025897
 31
0.0
  0
LINE
  5
EC
330
1F
100
AcDbEntity
  8
0
100
AcDbLine
 10
-0.2152833189979251
 20
12.82728464025897
 30
0.0
 11
-2.033127887556136
 21
15.73839333611307
 31
0.0
  0
LINE
  5
ED
330
1F
100
AcDbEntity
  8
0
100
AcDbLine
 10
-2.033127887556136
 20
15.73839333611307
 30
0.0
 11
-3.790621117666773
 21
17.92548819737113
 31
0.0
  0
LINE
  5
EE
330
1F
100
AcDbEntity
  8
0
100
AcDbLine
 10
-3.790621117666773
 20
17.92548819737113
 30
0.0
 11
-5.761547854744204
 21
19.82459046366485
 31
0.0
  0
LINE
  5
EF
330
1F
100
AcDbEntity
  8
0
100
AcDbLine
 10
-5.761547854744204
 20
19.82459046366485
 30
0.0
 11
-7.94439024952039
 21
21.43286704699194
 31
0.0
  0
LINE
  5
F0
330
1F
100
AcDbEntity
  8
0
100
AcDbLine
 10
-7.94439024952039
 20
21.43286704699194
 30
0.0
 11
-10.33654283623613
 21
22.74819526408213
 31
0.0
  0
LINE
  5
F1
330
1F
100
AcDbEntity
  8
0
100
AcDbLine
 10
-10.33654283623613
 20
22.74819526408213
 30
0.0
 11
-12.93493776462662
 21
23.76966782253994
 31
0.0
  0
LINE
  5
F2
330
1F
100
AcDbEntity
  8
0
100
AcDbLine
 10
-12.93493776462662
 20
23.76966782253994
 30
0.0
 11
-15.73680388271101
 21
24.49761893866454
 31
0.0
  0
LINE
  5
F3
330
1F
100
AcDbEntity
  8
0
100
AcDbLine
 10
-15.73680388271101
 20
24.49761893866454
 30
0.0
 11
-18.74018285874503
 21
24.93323907293044
 31
0.0
  0
LINE
  5
F4
330
1F
100
AcDbEntity
  8
0
100
AcDbLine
 10
-18.74018285874503
 20
24.93323907293044
 30
0.0
 11
-21.94295682797377
 21
25.07801429173518
 31
0.0
  0
LINE
  5
F5
330
1F
100
AcDbEntity
  8
0
100
AcDbLine
 10
-21.94295682797377
 20
25.07801429173518
 30
0.0
 11
-24.1469426766299
 21
24.99415169212061
 31
0.0
  0
LINE
  5
F6
330
1F
100
AcDbEntity
  8
0
100
AcDbLine
 10
-24.1469426766299
 20
24.99415169212061
 30
0.0
 11
-26.2699187505798
 21
24.74239661534041
 31
0.0
  0
LINE
  5
F7
330
1F
100
AcDbEntity
  8
0
100
AcDbLine
 10
-26.2699187505798
 20
24.74239661534041
 30
0.0
 11
-28.31339427168554
 21
24.3222112843863
 31
0.0
  0
LINE
  5
F8
330
1F
100
AcDbEntity
  8
0
100
AcDbLine
 10
-28.31339427168554
 20
24.3222112843863
 30
0.0
 11
-30.27652094093529
 21
23.73332503788993
 31
0.0
  0
LINE
  5
F9
330
1F
100
AcDbEntity
  8
0
100
AcDbLine
 10
-30.27652094093529
 20
23.73332503788993
 30
0.0
 11
-32.15829502477779
 21
22.97573841489347
 31
0.0
  0
LINE
  5
FA
330
1F
100
AcDbEntity
  8
0
100
AcDbLine
 10
-32.15829502477779
 20
22.97573841489347
 30
0.0
 11
-33.95767693670079
 21
22.04976956320484
 31
0.0
  0
LINE
  5
FB
330
1F
100
AcDbEntity
  8
0
100
AcDbLine
 10
-33.95767693670079
 20
22.04976956320484
 30
0.0
 11
-35.67373091007317
 21
20.95604025234138
 31
0.0
  0
LINE
  5
FC
330
1F
100
AcDbEntity
  8
0
100
AcDbLine
 10
-35.67373091007317
 20
20.95604025234138
 30
0.0
 11
-37.30574673886264
 21
19.69540016958982
 31
0.0
  0
LINE
  5
FD
330
1F
100
AcDbEntity
  8
0
100
AcDbLine
 10
-37.30574673886264
 20
19.69540016958982
 30
0.0
 11
-38.85462542084888
 21
18.26759992099238
 31
0.0
  0
LINE
  5
FE
330
1F
100
AcDbEntity
  8
0
100
AcDbLine
 10
-38.85462542084888
 20
18.26759992099238
 30
0.0
 11
-40.27997165242314
 21
16.69460143311021
 31
0.0
  0
LINE
  5
FF
330
1F
100
AcDbEntity
  8
0
100
AcDbLine
 10
-40.27997165242314
 20
16.69460143311021
 30
0.0
 11
-41.5388449974489
 21
15.00205893734273
 31
0.0
  0
LINE
  5
100
330
1F
100
AcDbEntity
  8
0
100
AcDbLine
 10
-41.5388449974489
 20
15.00205893734273
 30
0.0
 11
-42.62963861506238
 21
13.1918154557461
 31
0.0
  0
LINE
  5
101
330
1F
100
AcDbEntity
  8
0
100
AcDbLine
 10
-42.62963861506238
 20
13.1918154557461
 30
0.0
 11
-43.55185108904121
 21
11.26505811786798
 31
0.0
  0
LINE
  5
102
330
1F
100
AcDbEntity
  8
0
100
AcDbLine
 10
-43.55185108904121
 20
11.26505811786798
 30
0.0
 11
-44.30536781026932
 21
9.222991444888306
 31
0.0
  0
LINE
  5
103
330
1F
100
AcDbEntity
  8
0
100
AcDbLine
 10
-44.30536781026932
 20
9.222991444888306
 30
0.0
 11
-44.89042485733832
 21
7.06667920708908
 31
0.0
  0
LINE
  5
104
330
1F
100
AcDbEntity
  8
0
100
AcDbLine
 10
-44.89042485733832
 20
7.06667920708908
 30
0.0
 11
-45.30751408351474
 21
4.79694032707078
 31
0.0
  0
LINE
  5
105
330
1F
100
AcDbEntity
  8
0
100
AcDbLine
 10
-45.30751408351474
 20
4.79694032707078
 30
0.0
 11
-45.55726811919675
 21
2.414311708030488
 31
0.0
  0
LINE
  5
106
330
1F
100
AcDbEntity
  8
0
100
AcDbLine
 10
-45.55726811919675
 20
2.414311708030488
 30
0.0
 11
-45.64035770311374
 21
-0.0809212706726228
 31
0.0
  0
LINE
  5
107
330
1F
100
AcDbEntity
  8
0
100
AcDbLine
 10
-45.64035770311374
 20
-0.0809212706726228
 30
0.0
 11
-45.5598811179668
 21
-2.615391451878205
 31
0.0
  0
LINE
  5
108
330
1F
100
AcDbEntity
  8
0
100
AcDbLine
 10
-45.5598811179668
 20
-2.615391451878205
 30
0.0
 11
-45.31799931692915
 21
-5.02940373804847
 31
0.0
  0
LINE
  5
109
330
1F
100
AcDbEntity
  8
0
100
AcDbLine
 10
-45.31799931692915
 20
-5.02940373804847
 30
0.0
 11
-44.91392924487242
 21
-7.323521281629045
 31
0.0
  0
LINE
  5
10A
330
1F
100
AcDbEntity
  8
0
100
AcDbLine
 10
-44.91392924487242
 20
-7.323521281629045
 30
0.0
 11
-44.34690781953633
 21
-9.497295835816187
 31
0.0
  0
LINE
  5
10B
330
1F
100
AcDbEntity
  8
0
100
AcDbLine
 10
-44.34690781953633
 20
-9.497295835816187
 30
0.0
 11
-43.61626112675726
 21
-11.54998659155532
 31
0.0
  0
LINE
  5
10C
330
1F
100
AcDbEntity
  8
0
100
AcDbLine
 10
-43.61626112675726
 20
-11.54998659155532
 30
0.0
 11
-42.72152445078803
 21
-13.48056457546001
 31
0.0
  0
LINE
  5
10D
330
1F
100
AcDbEntity
  8
0
100
AcDbLine
 10
-42.72152445078803
 20
-13.48056457546001
 30
0.0
 11
-41.66256198627918
 21
-15.2877856512001
 31
0.0
  0
LINE
  5
10E
330
1F
100
AcDbEntity
  8
0
100
AcDbLine
 10
-41.66256198627918
 20
-15.2877856512001
 30
0.0
 11
-40.43964422764594
 21
-16.97033471747381
 31
0.0
  0
LINE
  5
10F
330
1F
100
AcDbEntity
  8
0
100
AcDbLine
 10
-40.43964422764594
 20
-16.97033471747381
 30
0.0
 11
-39.05385806175163
 21
-18.52654648613815
 31
0.0
  0
LINE
  5
110
330
1F
100
AcDbEntity
  8
0
100
AcDbLine
 10
-39.05385806175163
 20
-18.52654648613815
 30
0.0
 11
-37.53526787254786
 21
-19.93582637985448
 31
0.0
  0
LINE
  5
111
330
1F
100
AcDbEntity
  8
0
100
AcDbLine
 10
-37.53526787254786
 20
-19.93582637985448
 30
0.0
 11
-35.90798955401414
 21
-21.17995550696275
 31
0.0
  0
LINE
  5
112
330
1F
100
AcDbEntity
  8
0
100
AcDbLine
 10
-35.90798955401414
 20
-21.17995550696275
 30
0.0
 11
-34.17244539024447
 21
-22.25846225857714
 31
0.0
  0
LINE
  5
113
330
1F
100
AcDbEntity
  8
0
100
AcDbLine
 10
-34.17244539024447
 20
-22.25846225857714
 30
0.0
 11
-32.32983091159508
 21
-23.17067470167731
 31
0.0
  0
LINE
  5
114
330
1F
100
AcDbEntity
  8
0
100
AcDbLine
 10
-32.32983091159508
 20
-23.17067470167731
 30
0.0
 11
-30.38143223435747
 21
-23.91628903133795
 31
0.0
  0
LINE
  5
115
330
1F
100
AcDbEntity
  8
0
100
AcDbLine
 10
-30.38143223435747
 20
-23.91628903133795
 30
0.0
 11
-28.32845983773672
 21
-24.49536852076095
 31
0.0
  0
LINE
  5
116
330
1F
100
AcDbEntity
  8
0
100
AcDbLine
 10
-28.32845983773672
 20
-24.49536852076095
 30
0.0
 11
-26.1719197203539
 21
-24.90827201349892
 31
0.0
  0
LINE
  5
117
330
1F
100
AcDbEntity
  8
0
100
AcDbLine
 10
-26.1719197203539
 20
-24.90827201349892
 30
0.0
 11
-23.91254739940979
 21
-25.15554553791994
 31
0.0
  0
LINE
  5
118
330
1F
100
AcDbEntity
  8
0
100
AcDbLine
 10
-23.91254739940979
 20
-25.15554553791994
 30
0.0
 11
-21.54644329468105
 21
-25.23796520544593
 31
0.0
  0
LINE
  5
119
330
1F
100
AcDbEntity
  8
0
100
AcDbLine
 10
-21.54644329468105
 20
-25.23796520544593
 30
0.0
 11
-18.49906999456795
 21
-25.08320274510234
 31
0.0
  0
LINE
  5
11A
330
1F
100
AcDbEntity
  8
0
100
AcDbLine
 10
-18.49906999456795
 20
-25.08320274510234
 30
0.0
 11
-15.61539836915616
 21
-24.61725854041027
 31
0.0
  0
LINE
  5
11B
330
1F
100
AcDbEntity
  8
0
100
AcDbLine
 10
-15.61539836915616
 20
-24.61725854041027
 30
0.0
 11
-12.90060904140626
 21
-23.83905171438449
 31
0.0
  0
LINE
  5
11C
330
1F
100
AcDbEntity
  8
0
100
AcDbLine
 10
-12.90060904140626
 20
-23.83905171438449
 30
0.0
 11
-10.35737547060462
 21
-22.74809657188022
 31
0.0
  0
LINE
  5
11D
330
1F
100
AcDbEntity
  8
0
100
AcDbLine
 10
-10.35737547060462
 20
-22.74809657188022
 30
0.0
 11
-7.988698411819892
 21
-21.34503756909376
 31
0.0
  0
LINE
  5
11E
330
1F
100
AcDbEntity
  8
0
100
AcDbLine
 10
-7.988698411819892
 20
-21.34503756909376
 30
0.0
 11
-5.797214470436291
 21
-19.63165610548876
 31
0.0
  0
LINE
  5
11F
330
1F
100
AcDbEntity
  8
0
100
AcDbLine
 10
-5.797214470436291
 20
-19.63165610548876
 30
0.0
 11
-3.784608492543245
 21
-17.61045055619543
 31
0.0
  0
LINE
  5
120
330
1F
100
AcDbEntity
  8
0
100
AcDbLine
 10
-3.784608492543245
 20
-17.61045055619543
 30
0.0
 11
-1.951409616318365
 21
-15.28400638175684
 31
0.0
  0
LINE
  5
121
330
1F
100
AcDbEntity
  8
0
100
AcDbLine
 10
-1.951409616318365
 20
-15.28400638175684
 30
0.0
 11
-0.023625155642374
 21
-12.2196299583073
 31
0.0
  0
LINE
  5
122
330
1F
100
AcDbEntity
  8
0
100
AcDbLine
 10
-0.023625155642374
 20
-12.2196299583073
 30
0.0
 11
-10.65843771009059
 21
-6.556954974926975
 31
0.0
  0
LINE
  5
123
330
1F
100
AcDbEntity
  8
0
100
AcDbLine
 10
-10.65843771009059
 20
-6.556954974926975
 30
0.0
 11
-11.58339714216504
 21
-8.444407892581975
 31
0.0
  0
LINE
  5
124
330
1F
100
AcDbEntity
  8
0
100
AcDbLine
 10
53.17164014547465
 20
36.95339222139172
 30
0.0
 11
49.68424434064493
 21
41.44091397556326
 31
0.0
  0
LINE
  5
125
330
1F
100
AcDbEntity
  8
0
100
AcDbLine
 10
49.68424434064493
 20
41.44091397556326
 30
0.0
 11
45.73011642632259
 21
45.72884205504
 31
0.0
  0
LINE
  5
126
330
1F
100
AcDbEntity
  8
0
100
AcDbLine
 10
45.73011642632259
 20
45.72884205504
 30
0.0
 11
41.44566996389465
 21
49.68180756352827
 31
0.0
  0
LINE
  5
127
330
1F
100
AcDbEntity
  8
0
100
AcDbLine
 10
41.44566996389465
 20
49.68180756352827
 30
0.0
 11
36.96622983428515
 21
53.16812056049011
 31
0.0
  0
LINE
  5
128
330
1F
100
AcDbEntity
  8
0
100
AcDbLine
 10
36.96622983428515
 20
53.16812056049011
 30
0.0
 11
32.2917383127336
 21
56.18835678194096
 31
0.0
  0
LINE
  5
129
330
1F
100
AcDbEntity
  8
0
100
AcDbLine
 10
32.2917383127336
 20
56.18835678194096
 30
0.0
 11
27.42153991144808
 21
58.74332110139881
 31
0.0
  0
LINE
  5
12A
330
1F
100
AcDbEntity
  8
0
100
AcDbLine
 10
27.42153991144808
 20
58.74332110139881
 30
0.0
 11
22.3547160128041
 21
60.83365465648289
 31
0.0
  0
LINE
  5
12B
330
1F
100
AcDbEntity
  8
0
100
AcDbLine
 10
22.3547160128041
 20
60.83365465648289
 30
0.0
 11
17.09017762919491
 21
62.45973779954418
 31
0.0
  0
LINE
  5
12C
330
1F
100
AcDbEntity
  8
0
100
AcDbLine
 10
17.09017762919491
 20
62.45973779954418
 30
0.0
 11
11.62679511064192
 21
63.62164214042502
 31
0.0
  0
LINE
  5
12D
330
1F
100
AcDbEntity
  8
0
100
AcDbLine
 10
11.62679511064192
 20
63.62164214042502
 30
0.0
 11
5.963529714623856
 21
64.31914395712164
 31
0.0
  0
LINE
  5
12E
330
1F
100
AcDbEntity
  8
0
100
AcDbLine
 10
5.963529714623856
 20
64.31914395712164
 30
0.0
 11
0.0999123525392548
 21
64.55177377994336
 31
0.0
  0
LINE
  5
12F
330
1F
100
AcDbEntity
  8
0
100
AcDbLine
 10
0.0999123525392548
 20
64.55177377994336
 30
0.0
 11
-5.760025624920896
 21
64.31796152388684
 31
0.0
  0
LINE
  5
130
330
1F
100
AcDbEntity
  8
0
100
AcDbLine
 10
-5.760025624920896
 20
64.31796152388684
 30
0.0
 11
-11.41238686168674
 21
63.61693747289451
 31
0.0
  0
LINE
  5
131
330
1F
100
AcDbEntity
  8
0
100
AcDbLine
 10
-11.41238686168674
 20
63.61693747289451
 30
0.0
 11
-16.85764589924935
 21
62.44918447698404
 31
0.0
  0
LINE
  5
132
330
1F
100
AcDbEntity
  8
0
100
AcDbLine
 10
-16.85764589924935
 20
62.44918447698404
 30
0.0
 11
-22.0967641385811
 21
60.8149383847258
 31
0.0
  0
LINE
  5
133
330
1F
100
AcDbEntity
  8
0
100
AcDbLine
 10
-22.0967641385811
 20
60.8149383847258
 30
0.0
 11
-27.13080863941112
 21
58.71412650386866
 31
0.0
  0
LINE
  5
134
330
1F
100
AcDbEntity
  8
0
100
AcDbLine
 10
-27.13080863941112
 20
58.71412650386866
 30
0.0
 11
-31.96081289714374
 21
56.14634859335828
 31
0.0
  0
LINE
  5
135
330
1F
100
AcDbEntity
  8
0
100
AcDbLine
 10
-31.96081289714374
 20
56.14634859335828
 30
0.0
 11
-36.58763672508795
 21
53.11092444119311
 31
0.0
  0
LINE
  5
136
330
1F
100
AcDbEntity
  8
0
100
AcDbLine
 10
-36.58763672508795
 20
53.11092444119311
 30
0.0
 11
-41.01186425827068
 21
49.60699616424957
 31
0.0
  0
LINE
  5
137
330
1F
100
AcDbEntity
  8
0
100
AcDbLine
 10
-41.01186425827068
 20
49.60699616424957
 30
0.0
 11
-45.23506721648539
 21
45.63242684328107
 31
0.0
  0
LINE
  5
138
330
1F
100
AcDbEntity
  8
0
100
AcDbLine
 10
-45.23506721648539
 20
45.63242684328107
 30
0.0
 11
-49.29586103842514
 21
41.20722574260723
 31
0.0
  0
LINE
  5
139
330
1F
100
AcDbEntity
  8
0
100
AcDbLine
 10
-49.29586103842514
 20
41.20722574260723
 30
0.0
 11
-52.87633287324434
 21
36.61964160256677
 31
0.0
  0
LINE
  5
13A
330
1F
100
AcDbEntity
  8
0
100
AcDbLine
 10
-52.87633287324434
 20
36.61964160256677
 30
0.0
 11
-55.97758871766515
 21
31.86915835449177
 31
0.0
  0
LINE
  5
13B
330
1F
100
AcDbEntity
  8
0
100
AcDbLine
 10
-55.97758871766515
 20
31.86915835449177
 30
0.0
 11
-58.600523376833
 21
26.95522786433127
 31
0.0
  0
LINE
  5
13C
330
1F
100
AcDbEntity
  8
0
100
AcDbLine
 10
-58.600523376833
 20
26.95522786433127
 30
0.0
 11
-60.74594420232465
 21
21.87701344236349
 31
0.0
  0
LINE
  5
13D
330
1F
100
AcDbEntity
  8
0
100
AcDbLine
 10
-60.74594420232465
 20
21.87701344236349
 30
0.0
 11
-62.41446004974417
 21
16.63344344013119
 31
0.0
  0
LINE
  5
13E
330
1F
100
AcDbEntity
  8
0
100
AcDbLine
 10
-62.41446004974417
 20
16.63344344013119
 30
0.0
 11
-63.60639929272788
 21
11.22331753283743
 31
0.0
  0
LINE
  5
13F
330
1F
100
AcDbEntity
  8
0
100
AcDbLine
 10
-63.60639929272788
 20
11.22331753283743
 30
0.0
 11
-64.3217820266874
 21
5.645440253076897
 31
0.0
  0
LINE
  5
140
330
1F
100
AcDbEntity
  8
0
100
AcDbLine
 10
-64.3217820266874
 20
5.645440253076897
 30
0.0
 11
-64.56034383120252
 21
-0.1010538667693034
 31
0.0
  0
LINE
  5
141
330
1F
100
AcDbEntity
  8
0
100
AcDbLine
 10
-64.56034383120252
 20
-0.1010538667693034
 30
0.0
 11
-64.32414230329849
 21
-5.841378392078072
 31
0.0
  0
LINE
  5
142
330
1F
100
AcDbEntity
  8
0
100
AcDbLine
 10
-64.32414230329849
 20
-5.841378392078072
 30
0.0
 11
-63.61588135159785
 21
-11.40372741163623
 31
0.0
  0
LINE
  5
143
330
1F
100
AcDbEntity
  8
0
100
AcDbLine
 10
-63.61588135159785
 20
-11.40372741163623
 30
0.0
 11
-62.4359389907107
 21
-16.78864437621653
 31
0.0
  0
LINE
  5
144
330
1F
100
AcDbEntity
  8
0
100
AcDbLine
 10
-62.4359389907107
 20
-16.78864437621653
 30
0.0
 11
-60.78440874999766
 21
-21.99722060350777
 31
0.0
  0
LINE
  5
145
330
1F
100
AcDbEntity
  8
0
100
AcDbLine
 10
-60.78440874999766
 20
-21.99722060350777
 30
0.0
 11
-58.66107264929887
 21
-27.03057852628137
 31
0.0
  0
LINE
  5
146
330
1F
100
AcDbEntity
  8
0
100
AcDbLine
 10
-58.66107264929887
 20
-27.03057852628137
 30
0.0
 11
-56.06541745084125
 21
-31.88973458036471
 31
0.0
  0
LINE
  5
147
330
1F
100
AcDbEntity
  8
0
100
AcDbLine
 10
-56.06541745084125
 20
-31.88973458036471
 30
0.0
 11
-52.99670943231897
 21
-36.57548283902526
 31
0.0
  0
LINE
  5
148
330
1F
100
AcDbEntity
  8
0
100
AcDbLine
 10
-52.99670943231897
 20
-36.57548283902526
 30
0.0
 11
-49.45410508541013
 21
-41.08832895285782
 31
0.0
  0
LINE
  5
149
330
1F
100
AcDbEntity
  8
0
100
AcDbLine
 10
-49.45410508541013
 20
-41.08832895285782
 30
0.0
 11
-45.43702269772695
 21
-45.42820526194468
 31
0.0
  0
LINE
  5
14A
330
1F
100
AcDbEntity
  8
0
100
AcDbLine
 10
-45.43702269772695
 20
-45.42820526194468
 30
0.0
 11
-41.09290031004814
 21
-49.44546480311246
 31
0.0
  0
LINE
  5
14B
330
1F
100
AcDbEntity
  8
0
100
AcDbLine
 10
-41.09290031004814
 20
-49.44546480311246
 30
0.0
 11
-36.57126060720412
 21
-52.98810406196094
 31
0.0
  0
LINE
  5
14C
330
1F
100
AcDbEntity
  8
0
100
AcDbLine
 10
-36.57126060720412
 20
-52.98810406196094
 30
0.0
 11
-31.87200849812765
 21
-56.05682368395532
 31
0.0
  0
LINE
  5
14D
330
1F
100
AcDbEntity
  8
0
100
AcDbLine
 10
-31.87200849812765
 20
-56.05682368395532
 30
0.0
 11
-26.9945726781339
 21
-58.65248512083786
 31
0.0
  0
LINE
  5
14E
330
1F
100
AcDbEntity
  8
0
100
AcDbLine
 10
-26.9945726781339
 20
-58.65248512083786
 30
0.0
 11
-21.93809747358349
 21
-60.77582939354602
 31
0.0
  0
LINE
  5
14F
330
1F
100
AcDbEntity
  8
0
100
AcDbLine
 10
-21.93809747358349
 20
-60.77582939354602
 30
0.0
 11
-16.70151441981592
 21
-62.42736853201239
 31
0.0
  0
LINE
  5
150
330
1F
100
AcDbEntity
  8
0
100
AcDbLine
 10
-16.70151441981592
 20
-62.42736853201239
 30
0.0
 11
-11.28366185343498
 21
-63.60731578323179
 31
0.0
  0
LINE
  5
151
330
1F
100
AcDbEntity
  8
0
100
AcDbLine
 10
-11.28366185343498
 20
-63.60731578323179
 30
0.0
 11
-5.683421565278733
 21
-64.31557532112106
 31
0.0
  0
LINE
  5
152
330
1F
100
AcDbEntity
  8
0
100
AcDbLine
 10
-5.683421565278733
 20
-64.31557532112106
 30
0.0
 11
0.0997622285539213
 21
-64.5517737799434
 31
0.0
  0
LINE
  5
153
330
1F
100
AcDbEntity
  8
0
100
AcDbLine
 10
0.0997622285539213
 20
-64.5517737799434
 30
0.0
 11
5.88758964996224
 21
-64.31321929950394
 31
0.0
  0
LINE
  5
154
330
1F
100
AcDbEntity
  8
0
100
AcDbLine
 10
5.88758964996224
 20
-64.31321929950394
 30
0.0
 11
11.50214432826521
 21
-63.59787784738876
 31
0.0
  0
LINE
  5
155
330
1F
100
AcDbEntity
  8
0
100
AcDbLine
 10
11.50214432826521
 20
-63.59787784738876
 30
0.0
 11
16.94422342183717
 21
-62.40604937375822
 31
0.0
  0
LINE
  5
156
330
1F
100
AcDbEntity
  8
0
100
AcDbLine
 10
16.94422342183717
 20
-62.40604937375822
 30
0.0
 11
22.21496370986306
 21
-60.73775664211303
 31
0.0
  0
LINE
  5
157
330
1F
100
AcDbEntity
  8
0
100
AcDbLine
 10
22.21496370986306
 20
-60.73775664211303
 30
0.0
 11
27.31551897259894
 21
-58.59271688126851
 31
0.0
  0
LINE
  5
158
330
1F
100
AcDbEntity
  8
0
100
AcDbLine
 10
27.31551897259894
 20
-58.59271688126851
 30
0.0
 11
32.24692701424828
 21
-55.97036369258969
 31
0.0
  0
LINE
  5
159
330
1F
100
AcDbEntity
  8
0
100
AcDbLine
 10
32.24692701424828
 20
-55.97036369258969
 30
0.0
 11
37.01000033109998
 21
-52.86992410960166
 31
0.0
  0
LINE
  5
15A
330
1F
100
AcDbEntity
  8
0
100
AcDbLine
 10
37.01000033109998
 20
-52.86992410960166
 30
0.0
 11
41.60526723929697
 21
-49.29052745700588
 31
0.0
  0
LINE
  5
15B
330
1F
100
AcDbEntity
  8
0
100
AcDbLine
 10
41.60526723929697
 20
-49.29052745700588
 30
0.0
 11
46.03395511690858
 21
-45.23041155827129
 31
0.0
  0
LINE
  5
15C
330
1F
100
AcDbEntity
  8
0
100
AcDbLine
 10
46.03395511690858
 20
-45.23041155827129
 30
0.0
 11
49.92589582843993
 21
-41.12709591240284
 31
0.0
  0
LINE
  5
15D
330
1F
100
AcDbEntity
  8
0
100
AcDbLine
 10
49.92589582843993
 20
-41.12709591240284
 30
0.0
 11
53.35609450849984
 21
-36.80020087030563
 31
0.0
  0
LINE
  5
15E
330
1F
100
AcDbEntity
  8
0
100
AcDbLine
 10
53.35609450849984
 20
-36.80020087030563
 30
0.0
 11
56.32795288750155
 21
-32.24652882386165
 31
0.0
  0
LINE
  5
15F
330
1F
100
AcDbEntity
  8
0
100
AcDbLine
 10
56.32795288750155
 20
-32.24652882386165
 30
0.0
 11
58.84229750015923
 21
-27.4651525329014
 31
0.0
  0
LINE
  5
160
330
1F
100
AcDbEntity
  8
0
100
AcDbLine
 10
58.84229750015923
 20
-27.4651525329014
 30
0.0
 11
60.89971172218937
 21
-22.45489673304588
 31
0.0
  0
LINE
  5
161
330
1F
100
AcDbEntity
  8
0
100
AcDbLine
 10
60.89971172218937
 20
-22.45489673304588
 30
0.0
 11
62.50045077670339
 21
-17.2144715181406
 31
0.0
  0
LINE
  5
162
330
1F
100
AcDbEntity
  8
0
100
AcDbLine
 10
62.50045077670339
 20
-17.2144715181406
 30
0.0
 11
63.6444260065687
 21
-11.74262630841544
 31
0.0
  0
LINE
  5
163
330
1F
100
AcDbEntity
  8
0
100
AcDbLine
 10
63.6444260065687
 20
-11.74262630841544
 30
0.0
 11
64.33125689922308
 21
-6.038280935039255
 31
0.0
  0
LINE
  5
164
330
1F
100
AcDbEntity
  8
0
100
AcDbLine
 10
64.33125689922308
 20
-6.038280935039255
 30
0.0
 11
64.56034383120254
 21
-0.101171583106882
 31
0.0
  0
LINE
  5
165
330
1F
100
AcDbEntity
  8
0
100
AcDbLine
 10
64.56034383120254
 20
-0.101171583106882
 30
0.0
 11
64.32756085328312
 21
5.803527051476732
 31
0.0
  0
LINE
  5
166
330
1F
100
AcDbEntity
  8
0
100
AcDbLine
 10
64.32756085328312
 20
5.803527051476732
 30
0.0
 11
63.62965256050195
 21
11.50300646966606
 31
0.0
  0
LINE
  5
167
330
1F
100
AcDbEntity
  8
0
100
AcDbLine
 10
63.62965256050195
 20
11.50300646966606
 30
0.0
 11
62.46711600162123
 21
16.99796115996979
 31
0.0
  0
LINE
  5
168
330
1F
100
AcDbEntity
  8
0
100
AcDbLine
 10
62.46711600162123
 20
16.99796115996979
 30
0.0
 11
60.8402199356853
 21
22.28939760326474
 31
0.0
  0
LINE
  5
169
330
1F
100
AcDbEntity
  8
0
100
AcDbLine
 10
60.8402199356853
 20
22.28939760326474
 30
0.0
 11
58.74894159654418
 21
27.3784229646771
 31
0.0
  0
LINE
  5
16A
330
1F
100
AcDbEntity
  8
0
100
AcDbLine
 10
58.74894159654418
 20
27.3784229646771
 30
0.0
 11
56.19294826149664
 21
32.26611528531761
 31
0.0
  0
LINE
  5
16B
330
1F
100
AcDbEntity
  8
0
100
AcDbLine
 10
56.19294826149664
 20
32.26611528531761
 30
0.0
 11
53.17164014547465
 21
36.95339222139172
 31
0.0
  0
ENDSEC
  0
SECTION
  2
OBJECTS
  0
DICTIONARY
  5
C
330
0
100
AcDbDictionary
  3
ACAD_GROUP
350
D
  3
ACAD_LAYOUT
350
1A
  3
ACAD_MATERIAL
350
43
  3
ACAD_MLEADERSTYLE
350
18E
  3
ACAD_MLINESTYLE
350
17
  3
ACAD_PLOTSETTINGS
350
19
  3
ACAD_SCALELIST
350
47
  3
ACAD_VISUALSTYLE
350
2A
  3
ACDBHEADERROUNDTRIPXREC
350
16C
  3
ACDBVARIABLEDICTIONARY
350
18C
  0
DICTIONARY
  5
193
330
8
100
AcDbDictionary
280
     1
  3
ACAD_XREC_ROUNDTRIP
360
194
  0
DICTIONARY
  5
D
102
{ACAD_REACTORS
330
C
102
}
330
C
100
AcDbDictionary
  0
DICTIONARY
  5
1A
102
{ACAD_REACTORS
330
C
102
}
330
C
100
AcDbDictionary
  0
DICTIONARY
  5
43
102
{ACAD_REACTORS
330
C
102
}
330
C
100
AcDbDictionary
  3
BYBLOCK
350
45
  3
BYLAYER
350
44
  3
GLOBAL
350
46
  0
DICTIONARY
  5
18E
102
{ACAD_REACTORS
330
C
102
}
330
C
100
AcDbDictionary
  0
DICTIONARY
  5
17
102
{ACAD_REACTORS
330
C
102
}
330
C
100
AcDbDictionary
  3
STANDARD
350
18
  0
DICTIONARY
  5
19
102
{ACAD_REACTORS
330
C
102
}
330
C
100
AcDbDictionary
  0
DICTIONARY
  5
47
102
{ACAD_REACTORS
330
C
102
}
330
C
100
AcDbDictionary
  3
A0
350
48
  3
A1
350
49
  3
A2
350
4A
  3
A3
350
4B
  3
A4
350
4C
  3
A5
350
4D
  3
A6
350
4E
  3
A7
350
4F
  3
A8
350
50
  3
A9
350
51
  3
B0
350
52
  3
B1
350
53
  3
B2
350
54
  3
B3
350
55
  3
B4
350
56
  3
B5
350
57
  3
B6
350
58
  3
B7
350
59
  3
B8
350
5A
  3
B9
350
5B
  3
C0
350
5C
  3
C1
350
5D
  3
C2
350
5E
  3
C3
350
5F
  3
C4
350
60
  3
C5
350
61
  3
C6
350
62
  3
C7
350
63
  3
C8
350
64
  3
C9
350
65
  3
D0
350
66
  3
D1
350
67
  3
D2
350
68
  0
DICTIONARY
  5
2A
102
{ACAD_REACTORS
330
C
102
}
330
C
100
AcDbDictionary
  3
2DWIREFRAME
350
2F
  3
BASIC
350
32
  3
BRIGHTEN
350
36
  3
COLORCHANGE
350
3A
  3
CONCEPTUAL
350
34
  3
DIM
350
35
  3
EDGECOLOROFF
350
3D
  3
FACEPATTERN
350
39
  3
FLAT
350
2B
  3
FLATWITHEDGES
350
2C
  3
GOURAUD
350
2D
  3
GOURAUDWITHEDGES
350
2E
  3
HIDDEN
350
31
  3
JITTEROFF
350
3B
  3
LINEPATTERN
350
38
  3
OVERHANGOFF
350
3C
  3
REALISTIC
350
33
  3
SHADED
350
42
  3
SHADED_WITH_EDGES
350
41
  3
SHADES_OF_GRAY
350
3E
  3
SKETCHY
350
3F
  3
THICKEN
350
37
  3
WIREFRAME
350
30
  3
X-RAY
350
40
  0
DICTIONARY
  5
16C
102
{ACAD_REACTORS
330
C
102
}
330
C
100
AcDbDictionary
  3
CEPSNTYPE
350
175
  3
DIMSTYLEDATA
350
18B
  3
FINGERPRINTGUID
350
176
  3
HYPERLINKBASE
350
16F
  3
INSUNITS
350
174
  3
LAYOUTDICT
350
171
  3
LWETCUNION
350
173
  3
PLOTSETDICT
350
172
  3
PSVPSCALE
350
178
  3
PUCSBASE
350
17B
  3
PUCSORGBACK
350
181
  3
PUCSORGBOTTOM
350
17D
  3
PUCSORGFRONT
350
180
  3
PUCSORGLEFT
350
17E
  3
PUCSORGRIGHT
350
17F
  3
PUCSORGTOP
350
17C
  3
PUCSORTHOREF
350
179
  3
PUCSORTHOVIEW
350
17A
  3
STYLESHEET
350
170
  3
TSTACKALIGN
350
16D
  3
TSTACKSIZE
350
16E
  3
UCSBASE
350
184
  3
UCSORGBACK
350
18A
  3
UCSORGBOTTOM
350
186
  3
UCSORGFRONT
350
189
  3
UCSORGLEFT
350
187
  3
UCSORGRIGHT
350
188
  3
UCSORGTOP
350
185
  3
UCSORTHOREF
350
182
  3
UCSORTHOVIEW
350
183
  3
VERSIONGUID
350
177
  0
DICTIONARY
  5
18C
102
{ACAD_REACTORS
330
C
102
}
330
C
100
AcDbDictionary
  3
CANNOSCALE
350
195
  3
DIMASSOC
350
191
  3
HIDETEXT
350
192
  3
MSLTSCALE
350
196
  0
XRECORD
  5
194
102
{ACAD_REACTORS
330
193
102
}
330
193
100
AcDbXrecord
102
VTR_0.000_0.000_1.000_1.000_GRIDDISPLAY
 70
     3
102
VTR_0.000_0.000_1.000_1.000_GRIDMAJOR
 70
     5
102
VTR_0.000_0.000_1.000_1.000_DEFAULTLIGHTING
280
     1
102
VTR_0.000_0.000_1.000_1.000_DEFAULTLIGHTINGTYPE
 70
     1
102
VTR_0.000_0.000_1.000_1.000_BRIGHTNESS
141
0.0
102
VTR_0.000_0.000_1.000_1.000_CONTRAST
142
0.0
  0
MATERIAL
  5
45
102
{ACAD_REACTORS
330
43
102
}
102
{ACAD_XDICTIONARY
360
199
102
}
330
43
100
AcDbMaterial
  1
BYBLOCK
  0
MATERIAL
  5
44
102
{ACAD_REACTORS
330
43
102
}
102
{ACAD_XDICTIONARY
360
197
102
}
330
43
100
AcDbMaterial
  1
BYLAYER
  0
MATERIAL
  5
46
102
{ACAD_REACTORS
330
43
102
}
102
{ACAD_XDICTIONARY
360
19B
102
}
330
43
100
AcDbMaterial
  1
GLOBAL
  0
MLINESTYLE
  5
18
102
{ACAD_REACTORS
330
17
102
}
330
17
100
AcDbMlineStyle
  2
Standard
 70
     0
  3

 62
   256
 51
90.0
 52
90.0
 71
     2
 49
0.5
 62
   256
  6
BYLAYER
 49
-0.5
 62
   256
  6
BYLAYER
  0
ACAD_PROXY_OBJECT
  5
48
102
{ACAD_REACTORS
330
47
102
}
330
47
100
AcDbProxyObject
 90
      499
 91
      503
 93
       41
310
903313A31580
  0
ACAD_PROXY_OBJECT
  5
49
102
{ACAD_REACTORS
330
47
102
}
330
47
100
AcDbProxyObject
 90
      499
 91
      503
 93
      105
310
903313A324000000000000004000
  0
ACAD_PROXY_OBJECT
  5
4A
102
{ACAD_REACTORS
330
47
102
}
330
47
100
AcDbProxyObject
 90
      499
 91
      503
 93
      105
310
903313A344000000000000104000
  0
ACAD_PROXY_OBJECT
  5
4B
102
{ACAD_REACTORS
330
47
102
}
330
47
100
AcDbProxyObject
 90
      499
 91
      503
 93
      105
310
903313A354000000000000144000
  0
ACAD_PROXY_OBJECT
  5
4C
102
{ACAD_REACTORS
330
47
102
}
330
47
100
AcDbProxyObject
 90
      499
 91
      503
 93
      105
310
903313A384000000000000204000
  0
ACAD_PROXY_OBJECT
  5
4D
102
{ACAD_REACTORS
330
47
102
}
330
47
100
AcDbProxyObject
 90
      499
 91
      503
 93
      113
310
904313A31304000000000000244000
  0
ACAD_PROXY_OBJECT
  5
4E
102
{ACAD_REACTORS
330
47
102
}
330
47
100
AcDbProxyObject
 90
      499
 91
      503
 93
      113
310
904313A31364000000000000304000
  0
ACAD_PROXY_OBJECT
  5
4F
102
{ACAD_REACTORS
330
47
102
}
330
47
100
AcDbProxyObject
 90
      499
 91
      503
 93
      113
310
904313A32304000000000000344000
  0
ACAD_PROXY_OBJECT
  5
50
102
{ACAD_REACTORS
330
47
102
}
330
47
100
AcDbProxyObject
 90
      499
 91
      503
 93
      113
310
904313A333040000000000003E4000
  0
ACAD_PROXY_OBJECT
  5
51
102
{ACAD_REACTORS
330
47
102
}
330
47
100
AcDbProxyObject
 90
      499
 91
      503
 93
      113
310
904313A34304000000000000444000
  0
ACAD_PROXY_OBJECT
  5
52
102
{ACAD_REACTORS
330
47
102
}
330
47
100
AcDbProxyObject
 90
      499
 91
      503
 93
      113
310
904313A35304000000000000494000
  0
ACAD_PROXY_OBJECT
  5
53
102
{ACAD_REACTORS
330
47
102
}
330
47
100
AcDbProxyObject
 90
      499
 91
      503
 93
      121
310
905313A3130304000000000000594000
  0
ACAD_PROXY_OBJECT
  5
54
102
{ACAD_REACTORS
330
47
102
}
330
47
100
AcDbProxyObject
 90
      499
 91
      503
 93
      105
310
903323A310000000000000010100
  0
ACAD_PROXY_OBJECT
  5
55
102
{ACAD_REACTORS
330
47
102
}
330
47
100
AcDbProxyObject
 90
      499
 91
      503
 93
      105
310
903343A310000000000000410100
  0
ACAD_PROXY_OBJECT
  5
56
102
{ACAD_REACTORS
330
47
102
}
330
47
100
AcDbProxyObject
 90
      499
 91
      503
 93
      105
310
903383A310000000000000810100
  0
ACAD_PROXY_OBJECT
  5
57
102
{ACAD_REACTORS
330
47
102
}
330
47
100
AcDbProxyObject
 90
      499
 91
      503
 93
      113
310
90431303A310000000000000910100
  0
ACAD_PROXY_OBJECT
  5
58
102
{ACAD_REACTORS
330
47
102
}
330
47
100
AcDbProxyObject
 90
      499
 91
      503
 93
      121
310
9053130303A310000000000001650100
  0
ACAD_PROXY_OBJECT
  5
59
102
{ACAD_REACTORS
330
47
102
}
330
47
100
AcDbProxyObject
 90
      499
 91
      503
 93
      257
310
90E312F31323822203D2031272D3022000000000000200FC000000000000284000
  0
ACAD_PROXY_OBJECT
  5
5A
102
{ACAD_REACTORS
330
47
102
}
330
47
100
AcDbProxyObject
 90
      499
 91
      503
 93
      249
310
90D312F363422203D2031272D3022000000000000240FC000000000000284000
  0
ACAD_PROXY_OBJECT
  5
5B
102
{ACAD_REACTORS
330
47
102
}
330
47
100
AcDbProxyObject
 90
      499
 91
      503
 93
      249
310
90D312F333222203D2031272D3022000000000000280FC000000000000284000
  0
ACAD_PROXY_OBJECT
  5
5C
102
{ACAD_REACTORS
330
47
102
}
330
47
100
AcDbProxyObject
 90
      499
 91
      503
 93
      249
310
90D312F313622203D2031272D30220000000000002C0FC000000000000284000
  0
ACAD_PROXY_OBJECT
  5
5D
102
{ACAD_REACTORS
330
47
102
}
330
47
100
AcDbProxyObject
 90
      499
 91
      503
 93
      249
310
90D332F333222203D2031272D30220000000000002E0FC000000000000284000
  0
ACAD_PROXY_OBJECT
  5
5E
102
{ACAD_REACTORS
330
47
102
}
330
47
100
AcDbProxyObject
 90
      499
 91
      503
 93
      241
310
90C312F3822203D2031272D3022000000000000300FC000000000000284000
  0
ACAD_PROXY_OBJECT
  5
5F
102
{ACAD_REACTORS
330
47
102
}
330
47
100
AcDbProxyObject
 90
      499
 91
      503
 93
      249
310
90D332F313622203D2031272D3022000000000000320FC000000000000284000
  0
ACAD_PROXY_OBJECT
  5
60
102
{ACAD_REACTORS
330
47
102
}
330
47
100
AcDbProxyObject
 90
      499
 91
      503
 93
      241
310
90C312F3422203D2031272D3022000000000000340FC000000000000284000
  0
ACAD_PROXY_OBJECT
  5
61
102
{ACAD_REACTORS
330
47
102
}
330
47
100
AcDbProxyObject
 90
      499
 91
      503
 93
      241
310
90C332F3822203D2031272D3022000000000000360FC000000000000284000
  0
ACAD_PROXY_OBJECT
  5
62
102
{ACAD_REACTORS
330
47
102
}
330
47
100
AcDbProxyObject
 90
      499
 91
      503
 93
      241
310
90C312F3222203D2031272D3022000000000000380FC000000000000284000
  0
ACAD_PROXY_OBJECT
  5
63
102
{ACAD_REACTORS
330
47
102
}
330
47
100
AcDbProxyObject
 90
      499
 91
      503
 93
      241
310
90C332F3422203D2031272D30220000000000003A0FC000000000000284000
  0
ACAD_PROXY_OBJECT
  5
64
102
{ACAD_REACTORS
330
47
102
}
330
47
100
AcDbProxyObject
 90
      499
 91
      503
 93
      161
310
90A3122203D2031272D30224000000000000284000
  0
ACAD_PROXY_OBJECT
  5
65
102
{ACAD_REACTORS
330
47
102
}
330
47
100
AcDbProxyObject
 90
      499
 91
      503
 93
      257
310
90E312D312F3222203D2031272D30220000000000003E0FC000000000000284000
  0
ACAD_PROXY_OBJECT
  5
66
102
{ACAD_REACTORS
330
47
102
}
330
47
100
AcDbProxyObject
 90
      499
 91
      503
 93
      225
310
90A3322203D2031272D302200000000000002100000000000000284000
  0
ACAD_PROXY_OBJECT
  5
67
102
{ACAD_REACTORS
330
47
102
}
330
47
100
AcDbProxyObject
 90
      499
 91
      503
 93
      225
310
90A3622203D2031272D302200000000000006100000000000000284000
  0
ACAD_PROXY_OBJECT
  5
68
102
{ACAD_REACTORS
330
47
102
}
330
47
100
AcDbProxyObject
 90
      499
 91
      503
 93
      249
310
90D31272D3022203D2031272D30220000000000000A100000000000000284000
  0
ACAD_PROXY_OBJECT
  5
2F
102
{ACAD_REACTORS
330
2A
102
}
330
2A
100
AcDbProxyObject
 90
      499
 91
      501
 93
      436
310
42CC9915DA5C99599C985B595049028333333333333E33F0000000000000F90107901411070040501600405405064090741402480A0340
1001
ACAD
1000
AcDbSavedByObjectVersion
1070
     0
  0
ACAD_PROXY_OBJECT
  5
32
102
{ACAD_REACTORS
330
2A
102
}
330
2A
100
AcDbProxyObject
 90
      499
 91
      501
 93
      388
310
4150985CDA58D07406404333333333333E33F0000000000000F90107A41107004050150841D405064090741402480A0350
1001
ACAD
1000
AcDbSavedByObjectVersion
1070
     0
  0
ACAD_PROXY_OBJECT
  5
36
102
{ACAD_REACTORS
330
2A
102
}
330
2A
100
AcDbProxyObject
 90
      499
 91
      501
 93
      428
310
42109C9A59DA1D195B90C409028333333333333E33F0000000000000F9010790141107004050150841D405064090741402480A029950
1001
ACAD
1000
AcDbSavedByObjectVersion
1070
     0
  0
ACAD_PROXY_OBJECT
  5
3A
102
{ACAD_REACTORS
330
2A
102
}
330
2A
100
AcDbProxyObject
 90
      499
 91
      501
 93
      452
310
42D0DBDB1BDC90DA185B99D95104090240C333333333333E33F0000000000000F90108901411070040501508421405064090741402480A0350
1001
ACAD
1000
AcDbSavedByObjectVersion
1070
     0
  0
ACAD_PROXY_OBJECT
  5
34
102
{ACAD_REACTORS
330
2A
102
}
330
2A
100
AcDbProxyObject
 90
      499
 91
      501
 93
      500
310
4290DBDB98D95C1D1D585B10940D028333333333333E33F0000000000000F90107902409070040501000000000018199010841D405064090740C02480A0340
1001
ACAD
1000
AcDbSavedByObjectVersion
1070
     0
  0
ACAD_PROXY_OBJECT
  5
35
102
{ACAD_REACTORS
330
2A
102
}
330
2A
100
AcDbProxyObject
 90
      499
 91
      501
 93
      412
310
40D11A5B50B409028333333333333E33F0000000000000F9010790141107004050150841D405064090741402480A02677FFFFFD0
1001
ACAD
1000
AcDbSavedByObjectVersion
1070
     0
  0
ACAD_PROXY_OBJECT
  5
3D
102
{ACAD_REACTORS
330
2A
102
}
330
2A
100
AcDbProxyObject
 90
      499
 91
      501
 93
      452
310
43115919D950DBDB1BDC93D999916409028333333333333E33F0000000000000F9010790141107004050150841D405064090741402480A0350
1001
ACAD
1000
AcDbSavedByObjectVersion
1070
     0
  0
ACAD_PROXY_OBJECT
  5
39
102
{ACAD_REACTORS
330
2A
102
}
330
2A
100
AcDbProxyObject
 90
      499
 91
      501
 93
      444
310
42D19858D95C185D1D195C9B90F409028333333333333E33F0000000000000F9010790141107004050150841D405064090741402480A0350
1001
ACAD
1000
AcDbSavedByObjectVersion
1070
     0
  0
ACAD_PROXY_OBJECT
  5
2B
102
{ACAD_REACTORS
330
2A
102
}
330
2A
100
AcDbProxyObject
 90
      499
 91
      501
 93
      380
310
41119B185D240901404333333333333E33F0000000000000F9010740A907004050150841D405064090741402480A1B50
1001
ACAD
1000
AcDbSavedByObjectVersion
1070
     0
  0
ACAD_PROXY_OBJECT
  5
2C
102
{ACAD_REACTORS
330
2A
102
}
330
2A
100
AcDbProxyObject
 90
      499
 91
      501
 93
      468
310
43519B185D15DA5D1A115919D95CD0140901404333333333333E33F0000000000000F90107409019070040501600405405064090741402480A1B50
1001
ACAD
1000
AcDbSavedByObjectVersion
1070
     0
  0
ACAD_PROXY_OBJECT
  5
2D
102
{ACAD_REACTORS
330
2A
102
}
330
2A
100
AcDbProxyObject
 90
      499
 91
      501
 93
      404
310
41D1DBDD5C985D5910240902404333333333333E33F0000000000000F9010740A9070040501641D405064090741402480A1B50
1001
ACAD
1000
AcDbSavedByObjectVersion
1070
     0
  0
ACAD_PROXY_OBJECT
  5
2E
102
{ACAD_REACTORS
330
2A
102
}
330
2A
100
AcDbProxyObject
 90
      499
 91
      501
 93
      492
310
4411DBDD5C985D5915DA5D1A115919D95CD0340902404333333333333E33F0000000000000F90107409019070040501600405405064090741402480A1B50
1001
ACAD
1000
AcDbSavedByObjectVersion
1070
     0
  0
ACAD_PROXY_OBJECT
  5
31
102
{ACAD_REACTORS
330
2A
102
}
330
2A
100
AcDbProxyObject
 90
      499
 91
      501
 93
      476
310
41921A5919195B90640502408333333333333E33F0000000000000F901079024090700405020000000000001110200405405064090740C02480A0340
1001
ACAD
1000
AcDbSavedByObjectVersion
1070
     0
  0
ACAD_PROXY_OBJECT
  5
3B
102
{ACAD_REACTORS
330
2A
102
}
330
2A
100
AcDbProxyObject
 90
      499
 91
      501
 93
      428
310
42529A5D1D195C93D999914409028333333333333E33F0000000000000F9010790141107004050150A41D405064090741402480A0350
1001
ACAD
1000
AcDbSavedByObjectVersion
1070
     0
  0
ACAD_PROXY_OBJECT
  5
38
102
{ACAD_REACTORS
330
2A
102
}
330
2A
100
AcDbProxyObject
 90
      499
 91
      501
 93
      444
310
42D31A5B995C185D1D195C9B90E409028333333333333E33F0000000000000F9010790141107004050750841D405064090741402483A0350
1001
ACAD
1000
AcDbSavedByObjectVersion
1070
     0
  0
ACAD_PROXY_OBJECT
  5
3C
102
{ACAD_REACTORS
330
2A
102
}
330
2A
100
AcDbProxyObject
 90
      499
 91
      501
 93
      444
310
42D3DD995C9A185B99D3D999915409028333333333333E33F0000000000000F9010790141107004050150941D405064090741402480A0350
1001
ACAD
1000
AcDbSavedByObjectVersion
1070
     0
  0
ACAD_PROXY_OBJECT
  5
33
102
{ACAD_REACTORS
330
2A
102
}
330
2A
100
AcDbProxyObject
 90
      499
 91
      501
 93
      428
310
425499585B1A5CDD1A58D08409038333333333333E33F0000000000000F9010740A907004050150800405405064090740C02480A1B40
1001
ACAD
1000
AcDbSavedByObjectVersion
1070
     0
  0
ACAD_PROXY_OBJECT
  5
42
102
{ACAD_REACTORS
330
2A
102
}
330
2A
100
AcDbProxyObject
 90
      499
 91
      501
 93
      420
310
4194DA1859195911B40902404333333333333E33F0000000000000F9010740A41107004050150800405405064090840C02480A0B40
1001
ACAD
1000
AcDbSavedByObjectVersion
1070
     0
  0
ACAD_PROXY_OBJECT
  5
41
102
{ACAD_REACTORS
330
2A
102
}
330
2A
100
AcDbProxyObject
 90
      499
 91
      501
 93
      516
310
4454DA18591959081DDA5D1A08195919D95CD1A40902404333333333333E33F0000000000000F901074090142907004050250800405405064090740C02480A0B40
1001
ACAD
1000
AcDbSavedByObjectVersion
1070
     0
  0
ACAD_PROXY_OBJECT
  5
3E
102
{ACAD_REACTORS
330
2A
102
}
330
2A
100
AcDbProxyObject
 90
      499
 91
      501
 93
      532
310
4394DA1859195CC81BD98811DC985E5174090240C333333333333E33F0000000000000F901079024090741D01000000000000111010841D405064090740C02480A0340
1001
ACAD
1000
AcDbSavedByObjectVersion
1070
     0
  0
ACAD_PROXY_OBJECT
  5
3F
102
{ACAD_REACTORS
330
2A
102
}
330
2A
100
AcDbProxyObject
 90
      499
 91
      501
 93
      476
310
41D4DAD95D18DA1E51840502408333333333333E33F0000000000000F901079024090741D01000000000000111010B41D405064090741802480A0340
1001
ACAD
1000
AcDbSavedByObjectVersion
1070
     0
  0
ACAD_PROXY_OBJECT
  5
37
102
{ACAD_REACTORS
330
2A
102
}
330
2A
100
AcDbProxyObject
 90
      499
 91
      501
 93
      412
310
41D51A1A58DAD95B90D409028333333333333E33F0000000000000F9010790141107004050150C41D405064090741402480A0350
1001
ACAD
1000
AcDbSavedByObjectVersion
1070
     0
  0
ACAD_PROXY_OBJECT
  5
30
102
{ACAD_REACTORS
330
2A
102
}
330
2A
100
AcDbProxyObject
 90
      499
 91
      501
 93
      420
310
4255DA5C99599C985B595059028333333333333E33F0000000000000F90107901411070040501600405405064090740C02480A0340
1001
ACAD
1000
AcDbSavedByObjectVersion
1070
     0
  0
ACAD_PROXY_OBJECT
  5
40
102
{ACAD_REACTORS
330
2A
102
}
330
2A
100
AcDbProxyObject
 90
      499
 91
      501
 93
      404
310
41560B54985E51940902404000000000000E03F0000000000000F9010740501907004050150841D405064090740C02480A1B40
1001
ACAD
1000
AcDbSavedByObjectVersion
1070
     0
  0
XRECORD
  5
175
102
{ACAD_REACTORS
330
16C
102
}
330
16C
100
AcDbXrecord
 90
        0
  0
XRECORD
  5
18B
102
{ACAD_REACTORS
330
16C
102
}
330
16C
100
AcDbXrecord
1000
DSTYLE
1002
{
1070
   171
 70
     2
1070
   143
 40
25.4
1070
   274
 70
     2
1070
    41
 40
0.18
1070
   141
 40
0.09
1070
   271
 70
     4
1070
    43
 40
0.38
1070
   278
 70
    46
1070
    44
 40
0.18
1070
    42
 40
0.0625
1070
   147
 40
0.09
1070
    77
 70
     0
1070
   272
 70
     4
1070
    73
 70
     1
1070
   172
 70
     0
1070
    74
 70
     1
1070
   283
 70
     1
1070
   340
340
11
1070
   140
 40
0.18
1070
   284
 70
     0
1070
    78
 70
     0
1002
}
  0
XRECORD
  5
176
102
{ACAD_REACTORS
330
16C
102
}
330
16C
100
AcDbXrecord
  1
{82E6D685-8929-469C-B24F-8EFF009F9DC3}
  0
XRECORD
  5
16F
102
{ACAD_REACTORS
330
16C
102
}
330
16C
100
AcDbXrecord
  1

  0
XRECORD
  5
174
102
{ACAD_REACTORS
330
16C
102
}
330
16C
100
AcDbXrecord
 90
        4
  0
XRECORD
  5
171
102
{ACAD_REACTORS
330
16C
102
}
330
16C
100
AcDbXrecord
340
1A
  0
XRECORD
  5
173
102
{ACAD_REACTORS
330
16C
102
}
330
16C
100
AcDbXrecord
 90
    10781
  0
XRECORD
  5
172
102
{ACAD_REACTORS
330
16C
102
}
330
16C
100
AcDbXrecord
340
19
  0
XRECORD
  5
178
102
{ACAD_REACTORS
330
16C
102
}
330
16C
100
AcDbXrecord
 40
0.0
  0
XRECORD
  5
17B
102
{ACAD_REACTORS
330
16C
102
}
330
16C
100
AcDbXrecord
340
0
  0
XRECORD
  5
181
102
{ACAD_REACTORS
330
16C
102
}
330
16C
100
AcDbXrecord
 10
0.0
 20
0.0
 30
0.0
  0
XRECORD
  5
17D
102
{ACAD_REACTORS
330
16C
102
}
330
16C
100
AcDbXrecord
 10
0.0
 20
0.0
 30
0.0
  0
XRECORD
  5
180
102
{ACAD_REACTORS
330
16C
102
}
330
16C
100
AcDbXrecord
 10
0.0
 20
0.0
 30
0.0
  0
XRECORD
  5
17E
102
{ACAD_REACTORS
330
16C
102
}
330
16C
100
AcDbXrecord
 10
0.0
 20
0.0
 30
0.0
  0
XRECORD
  5
17F
102
{ACAD_REACTORS
330
16C
102
}
330
16C
100
AcDbXrecord
 10
0.0
 20
0.0
 30
0.0
  0
XRECORD
  5
17C
102
{ACAD_REACTORS
330
16C
102
}
330
16C
100
AcDbXrecord
 10
0.0
 20
0.0
 30
0.0
  0
XRECORD
  5
179
102
{ACAD_REACTORS
330
16C
102
}
330
16C
100
AcDbXrecord
340
0
  0
XRECORD
  5
17A
102
{ACAD_REACTORS
330
16C
102
}
330
16C
100
AcDbXrecord
 70
     0
  0
XRECORD
  5
170
102
{ACAD_REACTORS
330
16C
102
}
330
16C
100
AcDbXrecord
  1

  0
XRECORD
  5
16D
102
{ACAD_REACTORS
330
16C
102
}
330
16C
100
AcDbXrecord
 90
        1
  0
XRECORD
  5
16E
102
{ACAD_REACTORS
330
16C
102
}
330
16C
100
AcDbXrecord
 90
       70
  0
XRECORD
  5
184
102
{ACAD_REACTORS
330
16C
102
}
330
16C
100
AcDbXrecord
340
0
  0
XRECORD
  5
18A
102
{ACAD_REACTORS
330
16C
102
}
330
16C
100
AcDbXrecord
 10
0.0
 20
0.0
 30
0.0
  0
XRECORD
  5
186
102
{ACAD_REACTORS
330
16C
102
}
330
16C
100
AcDbXrecord
 10
0.0
 20
0.0
 30
0.0
  0
XRECORD
  5
189
102
{ACAD_REACTORS
330
16C
102
}
330
16C
100
AcDbXrecord
 10
0.0
 20
0.0
 30
0.0
  0
XRECORD
  5
187
102
{ACAD_REACTORS
330
16C
102
}
330
16C
100
AcDbXrecord
 10
0.0
 20
0.0
 30
0.0
  0
XRECORD
  5
188
102
{ACAD_REACTORS
330
16C
102
}
330
16C
100
AcDbXrecord
 10
0.0
 20
0.0
 30
0.0
  0
XRECORD
  5
185
102
{ACAD_REACTORS
330
16C
102
}
330
16C
100
AcDbXrecord
 10
0.0
 20
0.0
 30
0.0
  0
XRECORD
  5
182
102
{ACAD_REACTORS
330
16C
102
}
330
16C
100
AcDbXrecord
340
0
  0
XRECORD
  5
183
102
{ACAD_REACTORS
330
16C
102
}
330
16C
100
AcDbXrecord
 70
     0
  0
XRECORD
  5
177
102
{ACAD_REACTORS
330
16C
102
}
330
16C
100
AcDbXrecord
  1
{FAEB1C32-E019-11D5-929B-00C0DF256EC4}
  0
DICTIONARYVAR
  5
195
102
{ACAD_REACTORS
330
18C
102
}
330
18C
100
DictionaryVariables
280
     0
  1
1:1
  0
DICTIONARYVAR
  5
191
102
{ACAD_REACTORS
330
18C
102
}
330
18C
100
DictionaryVariables
280
     0
  1
2
  0
DICTIONARYVAR
  5
192
102
{ACAD_REACTORS
330
18C
102
}
330
18C
100
DictionaryVariables
280
     0
  1
1
  0
DICTIONARYVAR
  5
196
102
{ACAD_REACTORS
330
18C
102
}
330
18C
100
DictionaryVariables
280
     0
  1
1
  0
DICTIONARY
  5
199
330
45
100
AcDbDictionary
280
     1
  3
ACAD_XREC_ROUNDTRIP
360
19A
  0
DICTIONARY
  5
197
330
44
100
AcDbDictionary
280
     1
  3
ACAD_XREC_ROUNDTRIP
360
198
  0
DICTIONARY
  5
19B
330
46
100
AcDbDictionary
280
     1
  3
ACAD_XREC_ROUNDTRIP
360
19C
  0
XRECORD
  5
19A
102
{ACAD_REACTORS
330
199
102
}
330
199
100
AcDbXrecord
102
MATERIAL
148
0.0
149
0.0
149
0.0
 93
        0
 94
      127
282
     0
 72
     1
 77
     1
171
     1
175
     1
179
     1
273
     0
  0
XRECORD
  5
198
102
{ACAD_REACTORS
330
197
102
}
330
197
100
AcDbXrecord
102
MATERIAL
148
0.0
149
0.0
149
0.0
 93
        0
 94
      127
282
     0
 72
     1
 77
     1
171
     1
175
     1
179
     1
273
     0
  0
XRECORD
  5
19C
102
{ACAD_REACTORS
330
19B
102
}
330
19B
100
AcDbXrecord
102
MATERIAL
148
0.0
149
0.0
149
0.0
 93
        0
 94
      127
282
     0
 72
     1
 77
     1
171
     1
175
     1
179
     1
273
     0
  0
ENDSEC
  0
EOF
